<?xml version="1.0" encoding="UTF-8" standalone="no"?>
<!DOCTYPE svg PUBLIC "-//W3C//DTD SVG 20010904//EN"
              "http://www.w3.org/TR/2001/REC-SVG-20010904/DTD/svg10.dtd">

<svg xmlns="http://www.w3.org/2000/svg"
     width="362.61mm" height="176.367mm"
     viewBox="0 0 1028 500">
  <path id="Assamite"
        fill="none" stroke="black" stroke-width="1"
        d="M 649.00,2.00
           C 651.60,7.65 651.07,14.85 651.00,21.00
             650.82,36.41 640.96,56.28 632.66,69.00
             616.01,94.49 592.52,121.10 569.00,140.38
             561.99,146.13 559.09,147.33 552.00,152.00
             537.97,161.26 524.48,171.48 513.17,184.00
             503.04,195.22 493.18,209.96 487.45,224.00
             487.45,224.00 479.00,249.00 479.00,249.00
             474.08,240.95 473.90,229.18 474.00,220.00
             474.25,198.75 489.96,178.13 506.00,165.52
             506.00,165.52 527.00,152.19 527.00,152.19
             527.00,152.19 544.00,140.58 544.00,140.58
             575.86,118.02 609.41,88.58 629.80,55.00
             639.70,38.70 647.44,21.25 649.00,2.00 Z
           M 690.00,5.00
           C 694.98,8.81 695.06,18.20 695.00,24.00
             694.71,49.22 673.43,80.74 658.34,100.00
             652.98,106.84 640.89,120.89 634.83,126.71
             634.83,126.71 621.00,138.29 621.00,138.29
             621.00,138.29 604.17,155.00 604.17,155.00
             577.59,184.43 564.54,216.40 565.00,256.00
             565.12,266.21 568.01,280.20 571.02,290.00
             574.95,302.75 576.38,311.52 584.44,323.00
             601.56,347.39 637.93,360.79 667.00,360.96
             667.00,360.96 681.00,360.96 681.00,360.96
             681.00,360.96 692.00,360.00 692.00,360.00
             692.00,360.00 707.00,360.00 707.00,360.00
             707.00,360.00 717.00,359.09 717.00,359.09
             740.86,357.42 768.58,352.68 788.00,337.76
             799.96,328.57 798.52,325.38 804.86,314.00
             809.41,305.83 813.67,299.38 819.42,292.00
             833.55,273.87 849.13,259.87 867.00,245.60
             874.73,239.42 891.78,226.61 900.00,222.00
             900.00,222.00 887.24,238.00 887.24,238.00
             887.24,238.00 876.42,254.00 876.42,254.00
             866.52,269.92 863.92,278.38 856.24,294.00
             853.79,299.00 849.11,307.86 847.79,313.00
             846.90,316.44 847.16,320.91 852.02,319.63
             854.28,319.04 859.37,315.34 862.00,313.98
             865.46,312.18 867.56,311.67 871.00,309.21
             881.64,301.63 891.88,283.75 897.75,272.00
             897.75,272.00 907.00,253.00 907.00,253.00
             904.19,272.96 900.72,273.17 901.00,297.00
             901.07,302.80 902.27,308.47 906.22,312.96
             915.10,323.03 923.27,319.10 934.00,316.04
             934.00,316.04 944.00,313.99 944.00,313.99
             950.99,311.15 954.34,304.27 953.82,297.00
             952.83,283.29 946.19,267.30 940.26,255.00
             940.26,255.00 911.80,203.00 911.80,203.00
             911.80,203.00 899.00,183.00 899.00,183.00
             907.66,188.76 919.39,203.45 925.87,212.00
             925.87,212.00 965.68,270.00 965.68,270.00
             973.20,281.93 983.54,295.71 984.68,310.00
             986.42,331.98 959.98,334.97 944.00,335.73
             940.52,335.97 937.44,334.71 934.00,335.73
             927.51,337.46 913.46,349.96 901.02,343.55
             889.83,337.79 891.82,321.91 889.00,312.00
             887.90,324.09 878.09,343.40 865.00,345.67
             857.79,346.93 854.81,343.68 851.00,342.77
             846.41,341.68 831.95,347.04 828.53,333.00
             828.04,331.00 828.03,329.04 828.00,327.00
             827.85,314.27 831.99,301.02 836.00,289.00
             836.00,289.00 796.05,349.00 796.05,349.00
             787.68,362.20 780.59,375.18 766.00,382.63
             752.46,389.54 735.01,391.17 720.00,391.00
             704.92,390.82 687.63,387.53 673.00,383.87
             630.57,373.27 577.91,351.47 556.32,311.00
             553.12,304.99 551.01,298.49 549.02,292.00
             546.90,285.08 545.09,274.21 545.00,267.00
             545.00,267.00 545.00,246.00 545.00,246.00
             545.03,227.61 552.50,204.05 561.31,188.00
             574.18,164.56 587.37,153.78 606.00,135.96
             606.00,135.96 621.09,120.00 621.09,120.00
             621.09,120.00 641.08,98.00 641.08,98.00
             657.06,78.88 673.12,58.05 683.00,35.00
             686.73,26.29 691.06,14.55 690.00,5.00 Z
           M 1025.00,21.00
           C 1025.00,21.00 1027.00,21.00 1027.00,21.00
             1027.00,21.00 1024.11,37.00 1024.11,37.00
             1021.17,48.71 1016.04,59.84 1009.56,70.00
             991.02,99.14 967.15,113.49 941.00,133.65
             928.51,143.28 916.15,153.85 905.00,165.00
             888.42,181.59 872.83,201.08 860.42,221.00
             860.42,221.00 843.00,253.00 843.00,253.00
             843.00,253.00 858.74,207.00 858.74,207.00
             858.74,207.00 863.00,194.00 863.00,194.00
             835.29,206.37 812.75,240.20 805.16,269.00
             805.16,269.00 801.79,287.00 801.79,287.00
             798.51,302.47 791.20,324.74 775.00,330.87
             771.33,332.26 766.91,332.82 763.00,333.00
             763.00,333.00 770.48,324.00 770.48,324.00
             777.31,315.30 780.50,304.94 781.00,294.00
             770.95,304.02 763.61,308.94 751.00,315.25
             746.66,317.42 740.85,320.33 736.00,320.80
             729.74,321.41 721.16,318.34 716.00,314.90
             712.16,312.33 710.02,310.04 707.80,306.00
             705.24,301.35 704.04,297.15 703.00,292.00
             700.38,294.49 698.16,296.64 695.00,298.47
             686.05,303.65 671.99,305.24 663.01,299.44
             658.07,296.25 655.99,292.86 653.00,288.00
             653.00,305.65 654.86,317.22 660.52,334.00
             660.52,334.00 668.00,352.00 668.00,352.00
             659.75,346.08 653.27,336.01 648.75,327.00
             640.46,310.45 635.03,291.64 635.00,273.00
             635.00,273.00 635.00,256.00 635.00,256.00
             635.02,242.90 640.60,210.96 645.47,199.00
             649.31,189.58 658.35,177.72 665.00,170.00
             684.32,147.58 708.68,131.76 736.00,120.80
             751.82,114.45 766.26,110.64 783.00,107.61
             787.64,106.78 797.85,104.62 802.00,106.00
             736.61,118.31 679.13,152.44 658.34,219.00
             655.32,228.68 652.24,243.92 652.01,254.00
             651.83,262.02 652.81,270.40 660.02,275.40
             666.01,279.38 670.75,276.84 677.00,275.40
             686.28,273.53 689.67,275.08 698.00,268.48
             710.76,258.37 713.02,244.51 719.32,231.00
             720.84,227.75 724.32,222.02 726.36,219.00
             742.60,194.90 771.90,177.40 799.00,168.00
             794.45,173.38 784.16,179.15 778.00,183.34
             769.78,188.94 756.76,199.64 750.28,207.00
             736.91,222.19 728.78,233.65 722.33,253.00
             720.12,259.65 717.73,266.92 718.04,274.00
             718.78,290.84 733.03,287.46 738.00,287.75
             738.00,287.75 744.00,288.66 744.00,288.66
             753.90,289.58 762.60,281.26 768.10,274.00
             768.10,274.00 786.69,243.00 786.69,243.00
             794.76,230.34 799.44,225.44 810.00,215.00
             821.27,203.87 834.87,195.27 849.00,188.25
             849.00,188.25 872.00,177.61 872.00,177.61
             872.00,177.61 894.00,156.09 894.00,156.09
             914.37,137.11 935.09,118.43 957.00,101.21
             957.00,101.21 974.00,88.72 974.00,88.72
             987.17,78.28 1002.32,62.02 1011.67,48.00
             1016.66,40.51 1022.94,29.76 1025.00,21.00 Z
           M 469.00,26.00
           C 471.05,31.21 468.16,40.57 465.00,45.00
             465.00,45.00 469.00,26.00 469.00,26.00 Z
           M 417.00,44.00
           C 418.43,51.15 409.28,68.52 405.57,75.00
             390.71,100.97 364.32,126.92 343.00,148.00
             321.30,169.44 281.97,197.17 256.00,214.49
             230.31,231.61 219.71,237.29 197.00,260.00
             189.62,267.38 169.69,287.59 165.37,296.00
             165.37,296.00 152.94,321.00 152.94,321.00
             151.19,323.80 148.05,328.58 145.00,329.92
             141.52,331.44 139.73,328.87 138.56,325.98
             137.01,322.15 135.44,309.69 129.00,311.34
             125.77,312.16 121.49,318.24 119.70,321.00
             119.70,321.00 103.14,349.00 103.14,349.00
             100.37,353.93 96.84,361.71 90.00,360.57
             81.26,359.10 74.52,346.78 72.21,339.00
             68.69,327.15 69.59,303.41 71.43,291.00
             71.43,291.00 75.00,272.00 75.00,272.00
             65.87,274.61 58.09,280.77 51.00,286.87
             35.58,300.13 23.50,317.43 13.43,335.00
             13.43,335.00 1.00,358.00 1.00,358.00
             2.52,347.25 7.30,333.02 11.58,323.00
             33.26,272.30 78.35,236.25 130.00,219.00
             124.29,226.34 121.01,227.01 114.45,238.00
             104.04,255.45 102.49,267.37 100.96,287.00
             100.11,297.03 99.18,304.87 100.96,315.00
             111.95,309.69 115.09,291.29 119.80,281.00
             121.61,277.04 128.49,269.26 131.58,265.00
             131.58,265.00 152.01,236.00 152.01,236.00
             158.14,228.13 165.15,219.85 173.00,213.67
             181.60,206.89 193.33,201.29 203.00,195.72
             203.00,195.72 221.00,184.58 221.00,184.58
             221.00,184.58 248.00,166.00 248.00,166.00
             248.00,166.00 261.00,157.00 261.00,157.00
             256.17,163.44 235.18,180.97 228.00,185.96
             228.00,185.96 211.00,197.02 211.00,197.02
             193.01,209.50 165.36,233.91 154.90,253.00
             154.90,253.00 148.67,269.00 148.67,269.00
             145.21,279.28 141.78,286.91 143.00,298.00
             152.60,295.97 163.41,281.67 169.35,274.00
             188.07,249.81 196.03,239.94 218.00,218.00
             234.01,202.02 258.49,183.06 278.00,171.45
             278.00,171.45 318.00,150.31 318.00,150.31
             322.60,147.38 329.92,142.19 334.00,138.70
             334.00,138.70 342.00,131.39 342.00,131.39
             342.00,131.39 354.00,123.65 354.00,123.65
             358.76,120.38 365.69,114.73 370.00,110.83
             387.29,95.21 407.71,65.56 417.00,44.00 Z
           M 460.00,55.00
           C 460.61,59.50 456.29,65.90 454.25,70.00
             447.94,82.62 440.48,94.64 432.12,106.00
             408.44,138.15 380.39,164.16 349.00,188.58
             349.00,188.58 317.00,211.66 317.00,211.66
             311.24,215.57 304.55,218.63 300.00,224.00
             300.00,224.00 323.00,224.00 323.00,224.00
             327.55,224.06 330.68,224.53 335.00,226.09
             364.58,236.74 363.04,271.57 363.00,297.00
             362.97,319.12 356.19,330.41 338.00,342.98
             335.33,344.82 326.71,350.98 324.00,351.35
             320.68,351.80 310.06,343.36 306.00,341.26
             295.05,335.60 280.40,331.15 268.00,331.00
             268.00,331.00 251.00,331.00 251.00,331.00
             236.75,331.17 219.44,336.01 206.00,340.66
             176.45,350.88 145.15,368.61 120.00,387.12
             105.24,397.98 86.48,412.70 74.09,426.00
             61.13,439.90 49.18,454.53 38.14,470.00
             31.49,479.32 24.18,492.41 15.00,499.00
             51.96,411.84 130.54,345.08 221.00,319.00
             221.00,319.00 248.00,312.11 248.00,312.11
             248.00,312.11 257.00,312.11 257.00,312.11
             257.00,312.11 267.00,311.00 267.00,311.00
             267.00,311.00 293.00,311.00 293.00,311.00
             299.50,311.08 314.21,312.92 319.99,315.53
             322.53,316.67 324.71,318.44 327.00,320.00
             327.00,320.00 328.72,307.00 328.72,307.00
             330.30,294.62 330.92,279.67 325.65,268.00
             322.13,260.21 315.54,254.08 307.00,252.47
             307.00,252.47 294.00,251.68 294.00,251.68
             287.32,250.59 280.89,248.34 274.00,248.34
             259.20,248.34 244.34,253.76 232.00,261.70
             232.00,261.70 215.00,274.00 215.00,274.00
             220.95,265.65 229.71,257.29 237.00,250.00
             252.50,234.50 271.37,218.03 290.00,206.42
             290.00,206.42 338.00,178.92 338.00,178.92
             363.57,162.12 387.43,140.57 409.00,119.00
             427.22,100.78 447.80,77.79 460.00,55.00 Z
           M 424.00,364.00
           C 419.73,356.57 413.22,349.06 406.00,344.39
             399.52,340.19 389.58,337.61 384.18,333.21
             377.82,328.02 374.63,316.97 374.21,309.00
             374.21,309.00 375.83,292.00 375.83,292.00
             375.83,292.00 378.09,263.00 378.09,263.00
             378.09,263.00 379.00,251.00 379.00,251.00
             379.03,234.38 376.62,212.94 387.04,199.00
             387.04,199.00 401.48,182.00 401.48,182.00
             410.35,170.73 417.28,157.17 434.00,158.04
             443.66,158.55 447.95,166.19 453.40,173.00
             455.54,175.67 462.57,183.48 463.31,186.00
             463.31,186.00 461.04,204.00 461.04,204.00
             461.04,204.00 460.01,218.00 460.01,218.00
             460.01,218.00 460.83,227.00 460.83,227.00
             460.83,227.00 462.00,244.00 462.00,244.00
             452.55,236.56 450.93,225.15 449.83,214.00
             449.54,211.05 449.12,210.18 449.32,207.00
             449.63,201.93 450.05,202.05 447.98,197.00
             445.82,191.72 440.25,181.82 434.00,181.14
             429.36,180.64 425.26,185.58 422.90,189.00
             416.67,198.02 412.02,212.06 412.00,223.00
             412.00,223.00 412.00,256.00 412.00,256.00
             412.00,256.00 412.88,272.00 412.88,272.00
             412.88,272.00 412.88,300.00 412.88,300.00
             412.99,306.41 411.11,317.70 412.88,323.00
             414.70,330.19 425.22,342.25 431.00,346.81
             436.24,350.94 440.80,346.85 446.00,344.25
             456.19,339.15 469.90,333.47 481.00,331.01
             488.60,329.33 500.37,327.09 508.00,327.00
             539.70,326.63 573.69,338.68 592.00,366.00
             592.00,366.00 581.00,367.45 581.00,367.45
             564.96,370.65 544.02,379.82 529.00,386.69
             529.00,386.69 510.00,395.69 510.00,395.69
             500.79,399.84 501.19,398.24 491.00,404.86
             478.65,412.90 466.06,426.71 456.59,438.00
             450.33,445.46 442.74,454.57 438.00,463.00
             432.49,460.40 430.35,457.14 426.00,453.09
             426.00,453.09 406.00,435.59 406.00,435.59
             386.61,419.32 363.04,402.88 340.00,392.31
             322.23,384.15 302.71,377.91 283.00,378.00
             283.00,378.00 260.00,379.91 260.00,379.91
             211.00,383.34 166.14,400.54 126.00,428.72
             113.43,437.54 101.10,447.42 90.00,458.04
             90.00,458.04 69.00,479.00 69.00,479.00
             72.98,470.88 80.83,461.83 86.85,455.00
             106.53,432.65 131.43,415.04 158.00,401.75
             184.15,388.68 211.49,378.69 240.00,372.12
             252.12,369.33 264.50,366.02 277.00,366.00
             277.00,366.00 289.00,366.00 289.00,366.00
             289.00,366.00 299.00,366.91 299.00,366.91
             299.00,366.91 318.00,368.28 318.00,368.28
             360.98,373.78 407.84,391.12 439.00,422.00
             441.96,412.72 454.24,402.40 462.00,396.63
             473.99,387.71 495.22,376.00 509.00,369.86
             509.00,369.86 540.00,357.00 540.00,357.00
             533.39,353.77 528.18,349.68 521.00,347.09
             500.54,339.72 480.20,342.13 460.00,349.08
             460.00,349.08 424.00,364.00 424.00,364.00 Z
           M 907.00,251.00
           C 907.00,251.00 908.00,251.00 908.00,251.00
             908.00,251.00 907.00,252.00 907.00,252.00
             907.00,252.00 907.00,251.00 907.00,251.00 Z
           M 444.00,252.00
           C 449.86,255.12 450.26,261.06 452.00,267.00
             458.33,264.28 469.51,257.71 476.17,258.33
             486.89,259.32 490.59,274.19 484.35,281.67
             479.42,287.57 461.63,291.36 454.00,292.00
             455.14,300.67 454.16,309.54 451.84,318.00
             451.84,318.00 449.64,325.00 449.64,325.00
             449.64,325.00 449.09,331.77 449.09,331.77
             447.91,335.11 438.12,336.88 435.75,334.40
             433.14,331.66 436.09,325.41 436.74,322.00
             436.74,322.00 439.17,299.00 439.17,299.00
             439.17,299.00 441.00,288.00 441.00,288.00
             432.60,289.32 427.43,293.42 420.00,297.00
             425.84,285.66 436.46,279.12 438.98,274.72
             441.07,271.06 439.77,261.94 444.00,252.00 Z
           M 504.00,252.00
           C 504.00,252.00 505.00,272.00 505.00,272.00
             509.74,268.44 516.82,264.53 523.00,265.37
             532.59,266.66 542.31,280.49 538.15,289.91
             533.66,300.05 516.08,294.50 511.04,297.17
             501.81,302.07 507.85,312.06 503.49,316.49
             500.16,319.87 492.72,320.31 489.57,313.98
             487.27,309.37 487.63,301.83 489.00,297.00
             489.00,297.00 488.00,296.00 488.00,296.00
             482.66,297.63 463.82,301.37 459.00,300.00
             459.00,300.00 480.00,290.86 480.00,290.86
             480.00,290.86 490.50,285.37 490.50,285.37
             490.50,285.37 495.81,274.00 495.81,274.00
             495.81,274.00 504.00,252.00 504.00,252.00 Z
           M 471.00,274.00
           C 463.65,274.02 455.89,274.00 453.00,282.00
             458.72,281.69 467.80,278.98 471.00,274.00 Z
           M 523.00,284.00
           C 520.07,278.81 516.00,279.06 512.00,283.00
             512.00,283.00 523.00,284.00 523.00,284.00 Z" />
</svg>
