<?xml version="1.0" encoding="UTF-8" standalone="no"?>
<!DOCTYPE svg PUBLIC "-//W3C//DTD SVG 20010904//EN"
              "http://www.w3.org/TR/2001/REC-SVG-20010904/DTD/svg10.dtd">

<svg xmlns="http://www.w3.org/2000/svg"
     width="176.367mm" height="179.541mm"
     viewBox="0 0 500 509">
  <path id="brujah"
        fill="none" stroke="black" stroke-width="1"
        d="M 398.00,145.00
           C 398.00,145.00 407.58,130.00 407.58,130.00
             407.58,130.00 425.58,100.00 425.58,100.00
             425.58,100.00 448.09,61.02 448.09,61.02
             452.77,54.45 454.30,57.70 457.87,54.55
             461.07,51.73 468.32,40.15 470.72,36.00
             481.96,16.50 478.79,25.07 489.57,10.00
             490.92,8.11 494.78,1.16 497.87,2.34
             499.47,3.10 498.64,5.68 497.87,7.00
             497.87,7.00 491.85,18.00 491.85,18.00
             491.85,18.00 484.26,31.00 484.26,31.00
             484.26,31.00 466.00,67.00 466.00,67.00
             466.00,67.00 476.00,56.00 476.00,56.00
             477.53,62.81 473.87,64.54 470.46,70.00
             470.46,70.00 454.00,99.00 454.00,99.00
             454.00,99.00 459.00,96.00 459.00,96.00
             457.28,106.90 441.81,127.50 435.60,138.00
             435.60,138.00 428.50,151.43 428.50,151.43
             427.76,155.80 434.23,163.86 434.87,165.96
             435.77,168.86 433.75,170.53 430.98,169.60
             427.08,168.28 424.40,163.58 423.00,160.00
             423.00,160.00 421.00,160.00 421.00,160.00
             420.40,161.49 419.26,164.03 419.16,165.58
             419.05,167.55 421.57,178.71 422.39,181.00
             423.86,185.16 427.02,190.40 423.00,194.00
             423.00,194.00 424.00,198.00 424.00,198.00
             424.00,198.00 426.00,198.00 426.00,198.00
             426.00,198.00 427.00,190.00 427.00,190.00
             435.14,194.74 435.43,210.94 440.51,215.40
             445.95,220.19 458.06,210.21 462.00,220.00
             456.71,220.95 452.17,220.46 448.00,224.00
             448.00,224.00 476.00,221.46 476.00,221.46
             476.00,221.46 482.00,223.00 482.00,223.00
             482.00,223.00 482.00,227.00 482.00,227.00
             482.00,227.00 465.00,231.42 465.00,231.42
             465.00,231.42 455.00,234.97 455.00,234.97
             452.78,235.77 446.67,235.69 446.94,238.00
             443.78,242.84 442.75,245.44 446.94,250.00
             446.94,250.00 446.94,264.00 446.94,264.00
             446.94,264.00 438.00,299.00 438.00,299.00
             446.07,294.79 442.95,289.91 448.00,284.00
             447.47,294.90 441.69,304.96 437.81,315.00
             437.81,315.00 431.99,331.00 431.99,331.00
             431.99,331.00 426.45,343.00 426.45,343.00
             426.45,343.00 419.91,359.00 419.91,359.00
             419.91,359.00 411.00,373.00 411.00,373.00
             417.87,367.97 422.45,360.20 426.80,353.00
             429.37,348.74 430.64,344.54 435.00,342.00
             432.53,352.56 429.18,356.32 423.63,365.00
             423.63,365.00 419.42,373.00 419.42,373.00
             419.42,373.00 393.72,401.92 393.72,401.92
             387.39,408.35 375.82,411.80 372.77,417.09
             371.72,418.93 371.97,420.04 372.00,422.00
             372.00,422.00 361.00,426.08 361.00,426.08
             361.00,426.08 353.00,431.36 353.00,431.36
             353.00,431.36 338.00,436.45 338.00,436.45
             338.00,436.45 317.00,444.96 317.00,444.96
             317.00,444.96 303.00,447.67 303.00,447.67
             303.00,447.67 288.00,452.28 288.00,452.28
             288.00,452.28 278.21,455.30 278.21,455.30
             278.21,455.30 272.90,463.96 272.90,463.96
             272.90,463.96 265.31,476.46 265.31,476.46
             265.31,476.46 263.00,478.00 263.00,478.00
             263.00,478.00 266.00,463.00 266.00,463.00
             266.00,463.00 256.00,493.00 256.00,493.00
             254.15,497.74 253.87,502.77 248.00,502.00
             247.35,505.83 247.39,506.87 244.00,509.00
             245.49,501.59 248.15,496.60 246.00,489.00
             246.00,489.00 241.00,498.00 241.00,498.00
             238.90,489.98 242.53,488.45 243.13,482.00
             243.44,478.71 241.73,475.30 241.00,472.00
             232.79,471.91 234.04,456.38 229.57,451.21
             225.85,446.90 220.01,446.95 215.00,445.24
             210.23,443.62 199.74,437.70 195.00,435.00
             202.91,445.28 205.86,444.45 211.00,449.00
             202.28,447.63 192.48,441.29 185.00,436.65
             185.00,436.65 178.00,432.59 178.00,432.59
             178.00,432.59 168.00,424.00 168.00,424.00
             155.99,414.41 157.26,419.07 151.09,414.36
             151.09,414.36 136.00,399.09 136.00,399.09
             127.48,391.13 126.96,390.68 121.82,380.00
             119.77,375.75 117.08,373.78 121.00,372.00
             121.00,372.00 119.00,368.00 119.00,368.00
             119.00,368.00 112.00,371.00 112.00,371.00
             112.00,371.00 93.00,329.00 93.00,329.00
             87.00,331.30 84.44,332.51 78.00,331.00
             78.00,331.00 78.00,329.00 78.00,329.00
             85.53,326.01 91.68,326.38 95.00,318.00
             85.21,319.39 84.18,322.05 76.00,324.24
             76.00,324.24 63.00,327.44 63.00,327.44
             63.00,327.44 54.00,330.61 54.00,330.61
             50.48,331.38 49.53,330.60 43.00,332.43
             43.00,332.43 26.00,338.14 26.00,338.14
             19.58,340.01 5.94,346.18 0.00,344.00
             0.00,344.00 9.00,340.09 9.00,340.09
             9.00,340.09 19.00,336.55 19.00,336.55
             19.00,336.55 44.00,327.00 44.00,327.00
             44.00,327.00 43.00,323.00 43.00,323.00
             38.32,324.35 34.00,326.70 32.00,321.00
             32.00,321.00 59.00,313.00 59.00,313.00
             59.00,313.00 57.00,310.00 57.00,310.00
             57.00,310.00 63.00,309.00 63.00,309.00
             55.46,301.06 48.78,314.23 38.00,310.00
             51.95,302.28 60.03,301.88 74.00,297.33
             78.70,295.80 85.03,294.78 85.85,288.98
             86.73,282.72 82.87,281.94 82.72,275.99
             82.50,266.56 87.02,249.35 85.00,242.00
             85.00,242.00 82.00,245.00 82.00,245.00
             82.00,245.00 87.56,226.00 87.56,226.00
             87.56,226.00 88.53,217.00 88.53,217.00
             88.53,217.00 95.45,197.00 95.45,197.00
             95.45,197.00 105.00,177.00 105.00,177.00
             97.66,175.71 100.88,170.95 103.00,166.00
             106.07,158.83 114.39,146.19 120.00,141.00
             118.93,147.95 116.39,156.87 113.00,163.00
             115.73,160.69 124.33,149.98 124.85,146.72
             125.58,142.09 119.51,128.85 117.79,124.00
             117.79,124.00 106.12,81.00 106.12,81.00
             104.51,74.91 99.86,63.86 102.00,58.00
             102.00,58.00 113.00,83.00 113.00,83.00
             112.05,76.82 109.87,70.95 108.02,65.00
             108.02,65.00 103.48,47.00 103.48,47.00
             98.60,32.03 94.00,23.32 94.00,7.00
             97.65,9.79 100.03,20.29 101.66,25.00
             101.66,25.00 109.00,43.00 109.00,43.00
             109.00,43.00 117.00,67.00 117.00,67.00
             117.00,67.00 116.00,56.00 116.00,56.00
             119.56,58.39 120.83,63.12 122.40,67.00
             122.40,67.00 133.00,92.00 133.00,92.00
             133.00,92.00 132.00,78.00 132.00,78.00
             132.00,78.00 150.00,125.00 150.00,125.00
             150.00,125.00 152.00,125.00 152.00,125.00
             152.00,125.00 147.00,104.00 147.00,104.00
             151.92,107.96 154.37,114.00 156.00,120.00
             156.00,120.00 185.00,101.62 185.00,101.62
             190.76,97.89 192.85,94.81 200.00,94.00
             200.00,94.00 196.00,99.00 196.00,99.00
             196.00,99.00 213.00,94.00 213.00,94.00
             213.00,94.00 212.00,91.00 212.00,91.00
             217.01,88.23 226.41,84.26 232.00,83.32
             232.00,83.32 240.00,82.72 240.00,82.72
             245.69,82.04 249.53,80.59 254.00,85.00
             254.00,85.00 250.00,87.00 250.00,87.00
             250.00,87.00 267.00,84.89 267.00,84.89
             267.00,84.89 275.00,86.56 275.00,86.56
             275.00,86.56 313.00,93.63 313.00,93.63
             313.00,93.63 338.00,102.81 338.00,102.81
             338.00,102.81 342.00,102.00 342.00,102.00
             337.97,100.26 333.43,98.79 331.00,95.00
             335.62,95.15 336.00,96.51 340.00,97.77
             342.43,98.53 343.25,98.29 346.00,99.55
             346.00,99.55 380.00,121.00 380.00,121.00
             385.57,124.71 392.00,127.80 395.00,134.00
             383.44,130.75 390.01,134.54 377.00,128.00
             386.62,141.44 388.94,136.98 398.00,145.00 Z
           M 119.00,70.00
           C 119.00,70.00 118.00,70.00 118.00,70.00
             118.00,70.00 119.00,71.00 119.00,71.00
             119.00,71.00 119.00,70.00 119.00,70.00 Z
           M 119.00,72.00
           C 119.00,72.00 118.00,72.00 118.00,72.00
             118.00,72.00 119.00,73.00 119.00,73.00
             119.00,73.00 119.00,72.00 119.00,72.00 Z
           M 239.00,91.00
           C 239.00,91.00 238.00,91.00 238.00,91.00
             238.00,91.00 239.00,92.00 239.00,92.00
             239.00,92.00 239.00,91.00 239.00,91.00 Z
           M 288.00,117.00
           C 288.00,117.00 275.00,117.83 275.00,117.83
             275.00,117.83 249.00,115.10 249.00,115.10
             249.00,115.10 230.00,118.83 230.00,118.83
             221.41,119.65 221.92,116.69 216.96,117.95
             209.08,119.95 196.87,127.75 190.00,132.33
             190.00,132.33 177.00,141.19 177.00,141.19
             177.00,141.19 169.00,145.56 169.00,145.56
             169.00,145.56 160.00,152.00 160.00,152.00
             160.00,152.00 159.00,147.00 159.00,147.00
             159.00,147.00 153.00,151.00 153.00,151.00
             153.00,151.00 166.01,183.00 166.01,183.00
             166.01,183.00 173.30,201.00 173.30,201.00
             173.30,201.00 175.25,209.00 175.25,209.00
             178.85,220.32 180.19,217.32 182.00,231.00
             182.00,231.00 173.00,221.00 173.00,221.00
             173.00,221.00 181.04,239.00 181.04,239.00
             182.62,243.36 181.68,246.19 186.00,249.00
             186.00,249.00 192.41,223.11 192.41,223.11
             192.41,223.11 195.00,220.00 195.00,220.00
             195.00,220.00 192.00,247.00 192.00,247.00
             199.96,245.70 198.07,242.17 202.18,239.63
             204.69,238.07 206.91,239.68 204.70,244.00
             204.70,244.00 202.84,247.00 202.84,247.00
             201.67,249.12 201.56,249.73 201.00,252.00
             201.00,252.00 220.00,237.00 220.00,237.00
             220.00,237.00 208.00,257.00 208.00,257.00
             219.55,256.03 236.38,248.45 247.00,251.00
             247.00,251.00 228.00,263.00 228.00,263.00
             228.00,263.00 249.00,260.46 249.00,260.46
             249.00,260.46 256.00,257.76 256.00,257.76
             256.00,257.76 266.00,255.21 266.00,255.21
             272.78,253.74 287.46,250.39 293.00,247.00
             293.00,247.00 268.00,250.00 268.00,250.00
             268.00,250.00 268.00,248.00 268.00,248.00
             268.00,248.00 310.00,238.23 310.00,238.23
             310.00,238.23 337.00,232.00 337.00,232.00
             337.00,232.00 337.00,225.00 337.00,225.00
             337.00,225.00 339.00,225.00 339.00,225.00
             339.00,225.00 343.00,231.00 343.00,231.00
             342.89,226.20 342.26,221.52 340.53,217.00
             338.38,211.37 335.64,208.38 336.00,202.00
             336.00,202.00 346.00,220.00 346.00,220.00
             346.00,220.00 347.84,203.00 347.84,203.00
             347.84,203.00 350.00,174.00 350.00,174.00
             350.00,174.00 352.03,174.00 352.03,174.00
             352.03,174.00 352.03,199.00 352.03,199.00
             352.03,199.00 355.79,211.96 355.79,211.96
             355.79,211.96 355.79,216.00 355.79,216.00
             361.52,206.30 365.41,196.47 373.00,188.00
             373.00,188.00 374.00,190.00 374.00,190.00
             374.00,190.00 375.00,190.00 375.00,190.00
             376.95,183.19 380.71,179.75 380.08,176.00
             379.22,170.89 368.79,160.75 365.00,157.00
             365.00,157.00 354.02,146.96 354.02,146.96
             354.02,146.96 346.74,138.90 346.74,138.90
             340.99,134.07 320.42,123.68 313.00,121.63
             310.51,120.95 308.53,121.02 306.00,121.00
             309.56,127.11 314.48,126.37 320.00,129.41
             324.11,131.68 325.83,133.97 328.00,138.00
             328.00,138.00 323.00,143.00 323.00,143.00
             313.99,126.64 291.83,140.44 289.00,123.00
             289.00,123.00 304.00,127.00 304.00,127.00
             302.10,118.34 295.21,120.00 288.00,120.00
             288.00,120.00 288.00,117.00 288.00,117.00 Z
           M 388.00,169.00
           C 388.00,169.00 386.00,169.00 386.00,169.00
             386.00,169.00 385.00,173.00 385.00,173.00
             385.00,173.00 388.00,169.00 388.00,169.00 Z
           M 136.00,171.00
           C 131.10,175.16 125.20,184.66 124.00,191.00
             124.00,191.00 125.00,191.00 125.00,191.00
             125.00,191.00 127.00,189.00 127.00,189.00
             126.90,201.40 110.43,216.37 115.00,228.00
             115.00,228.00 118.00,219.00 118.00,219.00
             118.00,219.00 120.00,220.00 120.00,220.00
             120.00,220.00 124.00,209.00 124.00,209.00
             124.00,213.17 124.32,219.11 123.21,223.00
             121.77,228.07 119.17,230.51 117.90,236.00
             115.94,245.19 116.93,259.54 117.90,269.00
             118.32,274.14 117.45,275.53 119.00,281.00
             119.00,281.00 140.41,273.59 140.41,273.59
             140.41,273.59 142.00,271.00 142.00,271.00
             135.65,272.85 127.36,276.48 121.00,276.00
             121.00,276.00 134.99,270.15 134.99,270.15
             134.99,270.15 143.09,264.43 143.09,264.43
             143.09,264.43 154.00,261.00 154.00,261.00
             154.00,261.00 154.00,259.00 154.00,259.00
             152.08,257.35 148.40,254.35 150.13,251.37
             150.57,250.61 151.24,250.22 152.11,250.18
             153.53,250.11 156.56,252.26 158.00,253.00
             158.42,249.67 159.91,246.11 159.42,243.00
             158.12,234.79 149.07,223.43 149.42,213.00
             149.65,206.23 147.94,206.12 146.44,200.00
             143.43,187.77 143.48,181.91 136.00,171.00 Z
           M 404.00,197.00
           C 398.57,201.78 396.32,209.32 394.00,216.00
             394.00,216.00 410.00,213.00 410.00,213.00
             410.00,213.00 404.00,197.00 404.00,197.00 Z
           M 305.00,245.00
           C 305.00,245.00 304.00,245.00 304.00,245.00
             304.00,245.00 305.00,246.00 305.00,246.00
             305.00,246.00 305.00,245.00 305.00,245.00 Z
           M 395.00,333.00
           C 395.79,318.54 412.72,292.36 414.16,280.00
             414.52,276.99 413.87,271.11 413.42,268.00
             413.42,268.00 411.41,254.00 411.41,254.00
             411.08,252.20 410.79,249.40 408.69,248.81
             406.38,248.16 402.71,250.75 400.00,251.51
             397.12,252.32 384.25,253.93 381.00,254.00
             381.00,254.00 381.00,256.00 381.00,256.00
             381.00,256.00 389.00,256.00 389.00,256.00
             389.00,256.00 388.00,262.00 388.00,262.00
             388.00,262.00 378.99,266.06 378.99,266.06
             378.99,266.06 370.02,269.51 370.02,269.51
             370.02,269.51 367.63,283.00 367.63,283.00
             367.63,283.00 366.00,289.00 366.00,289.00
             366.00,289.00 362.00,288.00 362.00,288.00
             362.00,288.00 358.00,291.00 358.00,291.00
             356.74,295.30 343.60,316.81 340.31,322.00
             337.81,325.93 333.01,331.18 334.00,336.00
             334.00,336.00 358.70,302.72 358.70,302.72
             362.60,297.84 361.86,295.07 368.00,292.00
             367.30,298.57 365.33,300.43 362.31,306.00
             362.31,306.00 343.00,336.00 343.00,336.00
             343.89,337.47 344.64,338.08 344.80,340.00
             345.29,345.93 337.62,352.52 333.00,355.00
             332.04,347.60 337.13,344.76 340.00,338.00
             332.98,343.15 334.88,343.86 331.37,347.82
             328.76,350.76 326.83,350.14 324.64,352.38
             322.10,354.97 318.35,368.19 318.00,372.00
             318.00,372.00 326.00,366.00 326.00,366.00
             326.00,366.00 316.15,380.00 316.15,380.00
             316.15,380.00 293.56,415.00 293.56,415.00
             293.56,415.00 290.00,428.00 290.00,428.00
             290.00,428.00 304.00,423.00 304.00,423.00
             304.00,423.00 300.00,420.00 300.00,420.00
             300.00,420.00 310.00,416.02 310.00,416.02
             310.00,416.02 319.00,411.31 319.00,411.31
             319.00,411.31 333.00,405.69 333.00,405.69
             333.00,405.69 346.00,399.02 346.00,399.02
             358.18,393.23 369.06,388.67 372.00,374.00
             372.00,374.00 365.00,376.00 365.00,376.00
             369.85,369.93 374.53,363.54 380.04,358.04
             384.51,353.57 391.20,348.86 394.96,343.91
             400.70,336.34 403.53,326.74 407.00,318.00
             399.87,321.76 400.71,327.64 395.00,333.00 Z
           M 270.00,261.75
           C 270.00,261.75 258.00,261.75 258.00,261.75
             258.00,261.75 231.83,272.97 231.83,272.97
             231.83,272.97 221.00,277.00 221.00,277.00
             221.00,277.00 234.04,275.39 234.04,275.39
             234.04,275.39 241.00,272.10 241.00,272.10
             241.00,272.10 253.00,268.07 253.00,268.07
             253.00,268.07 270.00,261.75 270.00,261.75 Z
           M 270.00,267.00
           C 270.00,267.00 243.00,274.00 243.00,274.00
             243.00,274.00 249.00,277.00 249.00,277.00
             244.16,280.43 235.89,282.11 230.00,283.42
             230.00,283.42 207.00,290.00 207.00,290.00
             207.00,290.00 218.80,321.00 218.80,321.00
             218.80,321.00 227.00,339.00 227.00,339.00
             227.00,339.00 219.00,300.00 219.00,300.00
             224.91,303.44 226.77,311.75 228.37,318.00
             229.65,323.00 232.80,339.43 232.42,344.00
             232.42,344.00 229.38,354.00 229.38,354.00
             228.31,359.70 229.75,358.48 227.00,365.00
             227.00,365.00 230.00,364.00 230.00,364.00
             230.00,364.00 234.33,376.00 234.33,376.00
             234.33,376.00 236.72,386.00 236.72,386.00
             241.38,401.77 244.45,409.74 253.00,424.00
             258.13,419.48 258.81,415.10 261.20,409.00
             261.20,409.00 271.89,382.00 271.89,382.00
             275.57,374.17 282.73,365.76 285.00,358.00
             285.00,358.00 282.00,358.00 282.00,358.00
             287.85,343.38 303.91,313.39 312.44,300.00
             319.45,288.97 326.56,281.55 332.00,269.00
             332.00,269.00 287.00,276.89 287.00,276.89
             287.00,276.89 263.00,282.00 263.00,282.00
             263.00,282.00 275.00,273.00 275.00,273.00
             275.00,273.00 262.00,274.00 262.00,274.00
             262.00,274.00 270.00,267.00 270.00,267.00 Z
           M 359.00,280.00
           C 355.88,282.75 353.41,285.63 354.00,290.00
             354.00,290.00 359.00,280.00 359.00,280.00 Z
           M 353.00,290.00
           C 353.00,290.00 352.00,290.00 352.00,290.00
             352.00,290.00 353.00,291.00 353.00,291.00
             353.00,291.00 353.00,290.00 353.00,290.00 Z
           M 170.00,312.00
           C 159.01,312.24 152.23,316.65 142.00,319.57
             127.66,323.66 130.48,321.15 123.00,322.00
             123.00,322.00 127.00,334.00 127.00,334.00
             127.00,334.00 130.00,332.00 130.00,332.00
             136.76,345.12 144.77,366.25 153.00,377.00
             154.16,376.51 154.78,376.02 156.18,376.13
             159.91,376.41 168.66,385.13 172.00,387.92
             172.00,387.92 186.51,402.01 186.51,402.01
             189.56,403.91 191.32,401.66 195.17,404.45
             203.36,410.36 204.92,414.40 216.00,417.00
             216.00,417.00 200.89,378.00 200.89,378.00
             200.89,378.00 198.28,368.00 198.28,368.00
             192.57,348.76 188.95,333.95 179.00,316.00
             179.00,316.00 177.00,316.00 177.00,316.00
             173.91,323.16 164.26,343.50 159.00,348.00
             159.00,348.00 162.00,339.00 162.00,339.00
             157.51,336.29 159.24,334.13 161.25,330.00
             161.25,330.00 170.00,312.00 170.00,312.00 Z
           M 134.00,313.00
           C 134.00,313.00 133.00,313.00 133.00,313.00
             133.00,313.00 134.00,314.00 134.00,314.00
             134.00,314.00 134.00,313.00 134.00,313.00 Z
           M 333.00,336.00
           C 333.00,336.00 332.00,336.00 332.00,336.00
             332.00,336.00 333.00,337.00 333.00,337.00
             333.00,337.00 333.00,336.00 333.00,336.00 Z
           M 220.00,348.00
           C 220.00,348.00 219.00,348.00 219.00,348.00
             219.00,348.00 220.00,349.00 220.00,349.00
             220.00,349.00 220.00,348.00 220.00,348.00 Z
           M 221.00,350.00
           C 221.00,350.00 220.00,350.00 220.00,350.00
             220.00,350.00 221.00,351.00 221.00,351.00
             221.00,351.00 221.00,350.00 221.00,350.00 Z
           M 289.00,350.00
           C 289.00,350.00 288.00,350.00 288.00,350.00
             288.00,350.00 289.00,351.00 289.00,351.00
             289.00,351.00 289.00,350.00 289.00,350.00 Z
           M 288.00,352.00
           C 288.00,352.00 287.00,352.00 287.00,352.00
             287.00,352.00 288.00,353.00 288.00,353.00
             288.00,353.00 288.00,352.00 288.00,352.00 Z" />
</svg>
