<?xml version="1.0" encoding="UTF-8" standalone="no"?>
<!DOCTYPE svg PUBLIC "-//W3C//DTD SVG 20010904//EN"
              "http://www.w3.org/TR/2001/REC-SVG-20010904/DTD/svg10.dtd">

<svg xmlns="http://www.w3.org/2000/svg"
     width="176.367mm" height="186.596mm"
     viewBox="0 0 500 529">
  <path id="Followers_of_Set"
        fill="none" stroke="black" stroke-width="1"
        d="M 271.00,406.00
           C 269.50,400.73 270.06,395.43 270.00,390.00
             270.00,390.00 269.00,377.00 269.00,377.00
             268.76,356.22 264.78,304.71 260.83,285.00
             259.47,278.24 253.35,272.18 248.00,268.18
             242.37,263.97 236.30,262.50 237.20,253.00
             237.96,245.00 242.97,238.42 247.25,232.00
             251.65,225.41 262.77,205.38 263.24,198.00
             264.10,184.65 255.46,173.58 250.42,162.00
             250.42,162.00 220.05,88.00 220.05,88.00
             220.05,88.00 204.00,42.00 204.00,42.00
             202.13,36.27 197.85,23.62 198.56,18.00
             200.13,5.44 215.34,1.13 226.00,1.00
             226.00,1.00 246.00,0.00 246.00,0.00
             251.57,0.07 258.83,0.99 262.14,6.10
             264.20,9.27 263.31,11.66 263.63,15.00
             263.63,15.00 266.65,29.00 266.65,29.00
             272.88,56.50 277.63,84.05 281.28,112.00
             281.28,112.00 285.72,154.00 285.72,154.00
             286.21,158.18 284.85,166.30 290.06,166.12
             297.75,165.85 305.41,151.17 308.14,145.00
             317.05,124.84 319.58,97.88 321.09,76.00
             321.09,76.00 322.00,66.00 322.00,66.00
             322.00,66.00 322.00,55.00 322.00,55.00
             322.07,43.51 328.82,39.26 339.00,36.03
             355.80,30.69 372.07,33.63 389.00,35.00
             389.00,35.00 389.00,47.00 389.00,47.00
             388.98,61.81 383.86,81.24 378.40,95.00
             365.28,128.06 341.04,160.35 312.00,181.00
             334.17,186.88 358.02,187.05 379.00,197.32
             388.40,201.92 396.37,218.26 405.09,225.73
             410.78,230.60 418.62,229.08 429.00,238.18
             439.80,247.66 458.40,279.36 467.05,293.00
             467.05,293.00 492.66,333.00 492.66,333.00
             495.00,336.59 501.04,343.45 497.63,347.53
             494.24,351.61 485.18,355.16 480.00,356.19
             463.38,359.52 445.43,350.24 433.00,339.86
             422.23,330.86 407.51,317.65 392.00,320.82
             379.61,323.36 374.78,331.49 369.75,342.00
             369.75,342.00 358.44,367.00 358.44,367.00
             355.15,376.04 354.24,384.31 346.70,391.68
             339.79,398.42 335.13,397.55 327.00,399.59
             313.33,403.02 308.78,403.14 295.00,404.09
             295.00,404.09 284.00,405.00 284.00,405.00
             278.63,405.02 276.38,404.69 271.00,406.00 Z
           M 249.00,175.00
           C 260.28,183.16 261.78,195.12 255.33,207.00
             255.33,207.00 243.03,228.00 243.03,228.00
             243.03,228.00 238.88,237.00 238.88,237.00
             235.51,243.77 231.23,251.12 231.75,259.00
             232.42,269.14 241.90,270.89 249.00,275.75
             251.98,277.78 255.41,279.92 256.01,283.73
             259.00,302.59 260.21,321.95 261.04,341.00
             261.04,341.00 262.00,352.00 262.00,352.00
             262.00,352.00 264.00,397.00 264.00,397.00
             264.00,397.00 265.76,418.00 265.76,418.00
             267.46,424.65 272.07,434.06 275.60,440.00
             291.69,467.03 316.32,486.53 345.00,498.85
             354.31,502.85 367.01,507.59 377.00,509.00
             376.98,514.57 376.77,522.61 371.79,526.26
             368.62,528.59 364.61,527.94 361.00,527.42
             361.00,527.42 340.00,523.37 340.00,523.37
             316.13,517.26 289.50,501.80 271.00,485.71
             271.00,485.71 255.00,470.00 255.00,470.00
             247.04,461.94 243.31,456.34 237.31,447.00
             215.90,413.70 207.99,376.84 203.84,338.00
             203.84,338.00 201.91,312.00 201.91,312.00
             201.91,312.00 201.00,302.00 201.00,302.00
             201.00,302.00 201.83,249.00 201.83,249.00
             202.42,242.78 201.33,240.87 203.00,234.00
             203.00,234.00 192.02,241.39 192.02,241.39
             192.02,241.39 191.00,254.00 191.00,254.00
             191.00,254.00 192.97,286.00 192.97,286.00
             192.97,286.00 197.84,336.00 197.84,336.00
             197.84,336.00 210.00,432.00 210.00,432.00
             210.00,432.00 189.00,425.33 189.00,425.33
             189.00,425.33 181.31,421.49 181.31,421.49
             181.31,421.49 178.84,406.00 178.84,406.00
             178.84,406.00 176.00,365.00 176.00,365.00
             176.00,365.00 175.00,352.00 175.00,352.00
             175.00,352.00 174.00,322.00 174.00,322.00
             174.00,322.00 173.00,307.00 173.00,307.00
             173.00,307.00 172.00,265.00 172.00,265.00
             172.00,265.00 171.00,243.00 171.00,243.00
             171.00,243.00 165.00,244.00 165.00,244.00
             165.00,244.00 164.00,259.00 164.00,259.00
             164.00,259.00 164.00,302.00 164.00,302.00
             164.00,302.00 165.00,317.00 165.00,317.00
             165.00,317.00 165.00,336.00 165.00,336.00
             165.00,336.00 166.00,353.00 166.00,353.00
             166.00,353.00 167.00,389.00 167.00,389.00
             167.00,389.00 168.00,404.00 168.00,404.00
             168.00,404.00 166.98,420.61 166.98,420.61
             166.98,420.61 159.00,425.75 159.00,425.75
             159.00,425.75 138.00,435.00 138.00,435.00
             138.00,435.00 137.00,415.00 137.00,415.00
             137.00,415.00 137.00,377.00 137.00,377.00
             137.00,377.00 138.00,362.00 138.00,362.00
             138.00,362.00 138.00,347.00 138.00,347.00
             138.00,347.00 139.00,333.00 139.00,333.00
             139.00,333.00 140.91,302.00 140.91,302.00
             140.91,302.00 143.17,273.00 143.17,273.00
             143.17,273.00 147.00,244.00 147.00,244.00
             144.71,245.27 143.41,245.84 141.84,248.11
             138.55,252.86 135.78,273.44 135.05,280.00
             135.05,280.00 131.09,320.00 131.09,320.00
             131.09,320.00 129.91,344.00 129.91,344.00
             129.91,344.00 128.00,381.00 128.00,381.00
             128.00,381.00 127.00,395.00 127.00,395.00
             127.00,395.00 126.00,428.00 126.00,428.00
             125.97,445.37 119.34,449.24 108.42,462.00
             99.66,472.23 80.32,490.88 70.00,500.17
             70.00,500.17 45.00,522.00 45.00,522.00
             45.00,522.00 57.58,476.00 57.58,476.00
             57.58,476.00 81.42,390.00 81.42,390.00
             81.42,390.00 91.14,355.00 91.14,355.00
             92.72,349.42 95.73,341.64 95.00,336.00
             95.00,336.00 77.42,381.00 77.42,381.00
             65.25,413.00 53.19,445.12 43.58,478.00
             43.58,478.00 34.71,509.00 34.71,509.00
             33.94,511.71 32.54,519.48 30.44,520.98
             28.91,522.04 16.84,521.03 14.00,520.98
             14.00,520.98 0.00,520.00 0.00,520.00
             0.00,520.00 22.00,454.00 22.00,454.00
             41.90,395.58 65.05,338.36 90.14,282.00
             99.64,260.66 115.07,225.99 137.00,215.90
             147.33,211.15 149.96,212.63 160.00,212.26
             160.00,212.26 193.00,209.22 193.00,209.22
             202.30,206.65 219.53,196.14 228.00,190.69
             235.32,185.99 243.19,181.59 249.00,175.00 Z
           M 397.00,245.00
           C 397.00,245.00 375.00,233.93 375.00,233.93
             369.86,230.88 369.49,228.29 360.00,224.45
             350.53,220.62 339.10,219.05 329.00,217.85
             324.58,217.32 311.59,215.69 308.00,217.00
             308.00,217.00 341.00,224.43 341.00,224.43
             341.00,224.43 353.00,228.26 353.00,228.26
             353.00,228.26 366.00,232.00 366.00,232.00
             364.92,233.23 364.54,234.08 362.89,234.91
             362.89,234.91 343.00,234.91 343.00,234.91
             336.72,235.03 314.14,237.63 309.00,240.00
             309.00,240.00 322.00,248.54 322.00,248.54
             335.73,256.90 352.64,261.66 366.00,249.82
             369.35,246.84 370.90,244.91 373.00,241.00
             378.85,242.95 391.70,248.56 397.00,245.00 Z
           M 323.00,242.00
           C 330.98,237.93 339.37,237.13 348.00,239.72
             351.91,240.89 356.88,245.09 355.17,249.75
             354.05,252.79 348.82,253.69 346.00,253.91
             336.82,254.60 327.09,250.56 323.00,242.00 Z" />
</svg>
