<?xml version="1.0" encoding="UTF-8" standalone="no"?>
<!DOCTYPE svg PUBLIC "-//W3C//DTD SVG 20010904//EN"
              "http://www.w3.org/TR/2001/REC-SVG-20010904/DTD/svg10.dtd">

<svg xmlns="http://www.w3.org/2000/svg"
     width="209.877mm" height="188.007mm"
     viewBox="0 0 595 533">
  <path id="Gangrel"
        fill="none" stroke="black" stroke-width="1"
        d="M 221.00,1.00
           C 229.77,1.93 252.26,14.38 261.00,19.00
             262.90,12.18 257.96,14.09 254.00,7.00
             262.61,8.97 270.15,13.83 278.00,17.75
             296.42,26.96 312.94,39.36 327.83,53.58
             327.83,53.58 340.04,66.72 340.04,66.72
             350.19,76.07 361.01,83.65 372.00,91.89
             378.79,96.99 383.34,101.48 391.00,105.69
             405.48,113.64 421.24,117.63 437.00,122.14
             444.18,124.20 454.24,126.81 457.82,134.00
             459.92,138.20 457.05,149.20 457.00,155.00
             479.25,155.00 491.93,155.87 514.00,159.27
             514.00,159.27 540.00,164.44 540.00,164.44
             544.14,164.77 545.71,163.07 549.00,162.63
             551.74,162.26 554.27,163.35 557.00,163.37
             566.26,163.42 574.09,161.83 583.00,159.75
             586.13,159.02 590.84,158.67 593.01,161.65
             594.31,163.43 594.08,167.87 593.82,170.00
             593.20,175.10 588.45,187.20 586.10,192.00
             586.10,192.00 574.02,211.00 574.02,211.00
             574.06,210.86 573.37,224.48 572.11,230.00
             570.42,237.44 564.14,255.50 560.68,262.00
             560.68,262.00 554.00,273.00 554.00,273.00
             549.27,272.24 542.05,272.98 538.39,276.43
             536.32,278.38 534.15,283.26 532.22,286.00
             527.02,293.38 516.40,307.14 508.00,310.00
             509.25,307.11 512.73,300.61 512.91,298.00
             513.10,295.33 511.67,293.60 512.17,288.00
             512.46,284.67 514.06,279.32 510.57,277.19
             507.49,275.02 500.48,278.20 494.00,277.19
             490.03,276.82 480.53,274.22 477.18,276.04
             474.44,277.53 469.08,286.89 467.00,290.00
             460.64,299.49 455.06,306.78 444.00,311.00
             444.00,311.00 447.88,292.00 447.88,292.00
             447.88,292.00 446.41,287.00 446.41,287.00
             446.41,287.00 445.00,273.00 445.00,273.00
             436.48,272.28 420.16,268.32 412.00,265.32
             407.83,263.78 395.06,259.25 391.04,260.06
             387.79,260.71 383.56,266.44 381.43,269.00
             381.43,269.00 361.72,296.00 361.72,296.00
             359.72,298.87 354.47,305.22 356.13,308.79
             357.35,311.42 363.36,313.93 366.00,315.25
             374.18,319.32 381.24,322.11 389.00,327.36
             402.06,336.18 403.46,342.90 411.90,354.00
             416.58,360.16 422.05,365.12 428.00,370.00
             428.00,370.00 440.33,357.00 440.33,357.00
             444.41,351.82 445.20,347.13 452.09,346.00
             450.67,353.29 448.38,367.17 452.09,373.89
             454.30,377.66 459.07,378.75 463.00,379.55
             471.97,381.39 481.85,384.21 489.98,378.35
             496.56,373.60 501.89,354.92 506.00,347.00
             516.47,355.70 509.83,369.85 510.00,383.00
             510.13,392.68 513.89,393.34 514.05,397.99
             514.15,400.76 511.97,403.43 510.95,406.09
             507.65,414.63 506.19,421.28 496.00,424.07
             488.85,426.03 482.93,423.28 476.00,422.30
             468.34,421.21 465.60,423.39 462.00,423.47
             458.75,423.55 456.85,421.96 453.00,422.23
             446.12,422.70 439.18,429.37 432.00,427.13
             428.58,426.07 416.26,417.08 412.00,414.42
             399.88,406.88 398.27,407.52 386.00,403.00
             385.40,405.46 384.90,407.42 385.22,410.00
             386.52,420.21 401.76,435.99 406.00,446.00
             406.00,446.00 402.00,446.00 402.00,446.00
             402.00,446.00 407.00,454.00 407.00,454.00
             388.34,448.11 378.62,427.20 372.54,421.27
             369.46,418.28 366.72,418.56 361.00,414.00
             362.50,446.58 393.29,457.85 407.00,477.00
             407.00,477.00 389.00,470.00 389.00,470.00
             389.00,470.00 407.68,485.87 407.68,485.87
             407.68,485.87 412.32,490.83 412.32,490.83
             416.06,494.61 421.26,496.93 426.00,499.24
             428.15,500.29 439.94,503.33 437.83,506.42
             436.87,507.84 434.42,507.40 433.00,507.25
             427.91,506.73 424.10,505.24 419.00,506.00
             419.00,506.00 440.00,518.19 440.00,518.19
             440.00,518.19 456.00,525.00 456.00,525.00
             446.64,529.34 442.62,524.96 434.00,522.10
             434.00,522.10 419.00,519.52 419.00,519.52
             419.00,519.52 401.00,513.00 401.00,513.00
             403.55,517.82 406.42,518.39 411.00,521.00
             411.00,521.00 411.00,523.00 411.00,523.00
             400.59,524.66 391.69,518.25 387.00,517.41
             383.47,516.77 382.13,517.94 379.00,518.51
             373.05,519.60 371.38,517.29 368.00,524.00
             374.38,525.28 394.15,530.04 399.00,533.00
             389.15,533.00 387.22,532.09 378.00,530.46
             378.00,530.46 363.00,528.43 363.00,528.43
             363.00,528.43 352.00,527.67 352.00,527.67
             352.00,527.67 341.00,524.15 341.00,524.15
             341.00,524.15 320.00,518.57 320.00,518.57
             320.00,518.57 306.00,513.67 306.00,513.67
             297.55,510.85 285.40,507.68 278.00,503.56
             268.73,498.40 260.50,491.46 253.00,484.00
             233.70,464.79 224.91,449.39 222.91,422.00
             222.53,416.79 221.87,416.28 222.01,410.00
             222.35,395.35 226.11,377.57 231.60,364.00
             231.60,364.00 240.00,347.00 240.00,347.00
             240.00,347.00 197.00,372.74 197.00,372.74
             172.94,385.16 131.15,401.34 105.00,408.86
             105.00,408.86 74.00,417.88 74.00,417.88
             69.17,418.99 63.79,420.88 59.00,419.00
             59.00,419.00 75.00,412.55 75.00,412.55
             75.00,412.55 92.00,404.00 92.00,404.00
             92.00,404.00 82.00,404.00 82.00,404.00
             82.00,404.00 103.00,394.00 103.00,394.00
             93.44,394.09 95.51,395.46 88.00,397.39
             83.94,398.44 82.96,397.52 77.00,399.35
             72.31,400.79 66.92,403.39 62.00,402.00
             62.00,402.00 91.00,388.00 91.00,388.00
             91.00,388.00 83.00,388.00 83.00,388.00
             83.00,388.00 95.00,382.00 95.00,382.00
             95.00,382.00 30.00,405.00 30.00,405.00
             23.76,407.08 7.89,413.18 2.00,412.00
             2.00,412.00 22.00,403.60 22.00,403.60
             22.00,403.60 35.00,397.00 35.00,397.00
             35.00,397.00 31.00,397.00 31.00,397.00
             31.00,397.00 57.00,384.00 57.00,384.00
             52.57,385.44 43.21,388.53 39.00,387.00
             39.00,387.00 71.00,371.00 71.00,371.00
             64.89,372.77 56.10,375.42 50.00,373.00
             50.00,373.00 69.00,362.58 69.00,362.58
             69.00,362.58 78.28,356.88 78.28,356.88
             78.28,356.88 91.00,351.74 91.00,351.74
             91.00,351.74 134.00,328.19 134.00,328.19
             134.00,328.19 164.00,306.67 164.00,306.67
             164.00,306.67 175.00,299.75 175.00,299.75
             175.00,299.75 217.00,265.27 217.00,265.27
             217.00,265.27 244.00,242.42 244.00,242.42
             244.00,242.42 258.00,230.00 258.00,230.00
             258.00,230.00 200.00,269.66 200.00,269.66
             200.00,269.66 167.00,290.14 167.00,290.14
             167.00,290.14 144.00,302.45 144.00,302.45
             144.00,302.45 130.00,311.58 130.00,311.58
             130.00,311.58 100.00,329.28 100.00,329.28
             100.00,329.28 66.00,349.42 66.00,349.42
             66.00,349.42 48.00,360.00 48.00,360.00
             48.00,360.00 62.00,346.00 62.00,346.00
             57.33,347.63 52.95,350.44 48.00,349.00
             48.00,349.00 56.00,344.00 56.00,344.00
             56.00,344.00 54.00,340.00 54.00,340.00
             54.00,340.00 58.00,336.00 58.00,336.00
             58.00,336.00 28.00,356.00 28.00,356.00
             32.94,345.79 47.21,341.48 53.00,328.00
             53.00,328.00 20.00,352.00 20.00,352.00
             20.00,352.00 43.00,328.00 43.00,328.00
             43.00,328.00 38.00,330.00 38.00,330.00
             40.30,325.94 45.42,322.32 49.00,319.07
             49.00,319.07 70.91,298.00 70.91,298.00
             92.64,274.68 112.50,249.19 132.00,224.00
             132.00,224.00 123.91,229.80 123.91,229.80
             120.89,231.22 118.93,229.93 116.09,231.69
             113.01,233.59 111.41,237.86 107.91,240.27
             104.02,242.94 102.59,240.71 93.00,248.29
             86.49,253.42 76.71,263.46 68.00,263.00
             68.00,263.00 75.00,253.00 75.00,253.00
             79.89,249.50 88.46,242.31 91.00,237.00
             91.00,237.00 83.83,243.39 83.83,243.39
             83.83,243.39 65.09,253.62 65.09,253.62
             65.09,253.62 54.00,259.00 54.00,259.00
             59.74,250.98 72.25,240.46 80.00,233.72
             94.64,220.99 111.41,206.49 123.00,191.00
             110.41,193.99 103.45,204.82 92.00,207.00
             92.00,207.00 101.25,194.00 101.25,194.00
             101.25,194.00 111.34,178.00 111.34,178.00
             113.46,174.76 117.64,170.05 116.71,166.00
             116.71,166.00 112.59,156.00 112.59,156.00
             112.59,156.00 102.28,120.00 102.28,120.00
             102.28,120.00 96.50,102.00 96.50,102.00
             95.30,96.93 93.06,80.13 93.11,75.00
             93.11,75.00 93.11,61.00 93.11,61.00
             91.83,56.89 87.90,55.14 85.00,49.00
             85.00,49.00 93.00,52.00 93.00,52.00
             91.98,43.17 86.25,41.36 81.00,35.00
             86.63,34.74 88.56,36.90 93.00,40.00
             93.00,40.00 95.00,22.00 95.00,22.00
             101.26,28.26 96.29,31.34 102.00,40.00
             102.00,40.00 103.00,31.00 103.00,31.00
             110.48,35.47 104.72,41.38 113.04,46.65
             113.04,46.65 138.00,56.87 138.00,56.87
             138.00,56.87 158.00,66.57 158.00,66.57
             158.00,66.57 196.00,81.01 196.00,81.01
             202.19,83.59 208.60,87.76 214.00,91.76
             216.74,93.79 219.67,96.93 223.00,97.67
             228.59,98.92 239.58,94.22 245.00,92.34
             249.21,90.89 253.55,89.62 258.00,89.17
             260.33,88.93 263.84,89.21 265.82,87.98
             269.02,85.98 267.80,82.91 268.33,80.00
             269.25,74.95 272.70,69.57 271.60,64.10
             270.43,58.31 261.13,58.89 257.00,52.00
             257.00,52.00 264.00,52.00 264.00,52.00
             264.00,52.00 262.00,48.00 262.00,48.00
             262.00,48.00 263.00,47.00 263.00,47.00
             263.00,47.00 266.00,48.00 266.00,48.00
             259.74,41.31 252.11,41.47 248.00,33.00
             248.00,33.00 251.00,32.00 251.00,32.00
             251.00,32.00 249.00,28.00 249.00,28.00
             249.00,28.00 268.00,31.00 268.00,31.00
             268.00,31.00 244.00,14.68 244.00,14.68
             244.00,14.68 221.00,1.00 221.00,1.00 Z
           M 265.00,52.00
           C 265.00,52.00 264.00,52.00 264.00,52.00
             264.00,52.00 265.00,53.00 265.00,53.00
             265.00,53.00 265.00,52.00 265.00,52.00 Z
           M 382.00,166.00
           C 368.74,147.48 350.21,147.47 330.00,152.63
             325.23,153.85 318.08,155.50 314.00,158.00
             321.31,161.79 323.85,162.31 331.00,167.66
             334.16,170.03 340.28,175.56 344.00,176.14
             347.55,176.70 353.48,172.88 357.00,171.45
             365.61,167.96 372.69,166.03 382.00,166.00 Z
           M 518.00,285.00
           C 518.00,285.00 516.00,285.00 516.00,285.00
             516.00,285.00 515.00,292.00 515.00,292.00
             518.06,289.87 517.79,288.57 518.00,285.00 Z
           M 515.00,295.00
           C 515.00,295.00 514.00,295.00 514.00,295.00
             514.00,295.00 515.00,296.00 515.00,296.00
             515.00,296.00 515.00,295.00 515.00,295.00 Z
           M 63.00,345.00
           C 63.00,345.00 62.00,345.00 62.00,345.00
             62.00,345.00 63.00,346.00 63.00,346.00
             63.00,346.00 63.00,345.00 63.00,345.00 Z" />
</svg>
