<?xml version="1.0" encoding="UTF-8" standalone="no"?>
<!DOCTYPE svg PUBLIC "-//W3C//DTD SVG 20010904//EN"
              "http://www.w3.org/TR/2001/REC-SVG-20010904/DTD/svg10.dtd">

<svg xmlns="http://www.w3.org/2000/svg"
     width="7.08333in" height="6.94444in"
     viewBox="0 0 510 500">
  <path id="Giovanni"
        fill="none" stroke="black" stroke-width="1"
        d="M 503.00,498.00
           C 503.00,498.00 482.00,499.00 482.00,499.00
             482.00,499.00 324.00,499.00 324.00,499.00
             324.00,499.00 237.00,499.00 237.00,499.00
             237.00,499.00 222.00,498.00 222.00,498.00
             222.00,498.00 178.00,498.00 178.00,498.00
             178.00,498.00 161.00,499.00 161.00,499.00
             161.00,499.00 117.00,499.00 117.00,499.00
             117.00,499.00 106.00,498.34 106.00,498.34
             106.00,498.34 95.00,499.00 95.00,499.00
             95.00,499.00 88.00,499.00 88.00,499.00
             88.00,499.00 73.00,498.00 73.00,498.00
             73.00,498.00 46.00,498.00 46.00,498.00
             46.00,498.00 31.00,497.00 31.00,497.00
             31.00,497.00 12.00,497.00 12.00,497.00
             10.05,497.00 6.29,497.26 4.74,496.01
             2.15,493.93 2.01,484.26 2.00,481.00
             2.00,481.00 2.00,169.00 2.00,169.00
             2.00,169.00 2.00,123.00 2.00,123.00
             2.00,123.00 1.12,106.00 1.12,106.00
             1.12,106.00 1.12,66.00 1.12,66.00
             1.12,66.00 1.12,56.00 1.12,56.00
             1.12,56.00 1.12,10.00 1.12,10.00
             1.06,1.26 2.76,1.02 11.00,1.00
             11.00,1.00 238.00,1.00 238.00,1.00
             238.00,1.00 339.00,1.00 339.00,1.00
             339.00,1.00 354.00,0.00 354.00,0.00
             354.00,0.00 440.00,0.00 440.00,0.00
             440.00,0.00 460.00,1.00 460.00,1.00
             460.00,1.00 483.00,1.00 483.00,1.00
             483.00,1.00 501.00,2.00 501.00,2.00
             509.13,2.06 508.98,3.27 509.00,11.00
             509.00,11.00 509.00,70.00 509.00,70.00
             509.00,70.00 508.00,87.00 508.00,87.00
             508.00,87.00 508.00,109.00 508.00,109.00
             508.00,109.00 507.00,126.00 507.00,126.00
             507.00,126.00 507.00,227.00 507.00,227.00
             507.00,227.00 506.00,242.00 506.00,242.00
             506.00,242.00 506.00,277.00 506.00,277.00
             506.00,277.00 505.00,294.00 505.00,294.00
             505.00,294.00 505.00,327.00 505.00,327.00
             505.00,327.00 504.00,344.00 504.00,344.00
             504.00,344.00 504.00,399.00 504.00,399.00
             504.00,399.00 503.05,411.00 503.05,411.00
             503.05,411.00 503.05,424.00 503.05,424.00
             503.05,424.00 503.99,437.00 503.99,437.00
             503.99,437.00 503.00,454.00 503.00,454.00
             503.00,454.00 504.00,468.00 504.00,468.00
             504.00,468.00 503.00,498.00 503.00,498.00 Z
           M 505.00,6.00
           C 505.00,6.00 488.00,5.00 488.00,5.00
             488.00,5.00 395.00,5.00 395.00,5.00
             395.00,5.00 380.00,4.00 380.00,4.00
             380.00,4.00 355.00,4.00 355.00,4.00
             355.00,4.00 344.00,4.66 344.00,4.66
             344.00,4.66 333.00,4.00 333.00,4.00
             333.00,4.00 253.00,4.00 253.00,4.00
             253.00,4.00 238.00,5.00 238.00,5.00
             238.00,5.00 111.00,5.00 111.00,5.00
             111.00,5.00 96.00,6.00 96.00,6.00
             96.00,6.00 5.00,6.00 5.00,6.00
             5.00,6.00 5.00,108.00 5.00,108.00
             5.00,108.00 6.00,123.00 6.00,123.00
             6.00,123.00 6.00,149.00 6.00,149.00
             6.00,149.00 5.00,164.00 5.00,164.00
             5.00,164.00 5.72,213.00 5.72,213.00
             5.72,213.00 8.00,228.00 8.00,228.00
             8.00,228.00 12.81,214.00 12.81,214.00
             12.81,214.00 12.81,194.00 12.81,194.00
             12.81,194.00 14.00,175.00 14.00,175.00
             14.00,175.00 14.00,64.00 14.00,64.00
             14.00,64.00 14.00,26.00 14.00,26.00
             14.05,22.09 14.21,18.21 17.28,15.31
             20.62,12.15 27.59,12.95 32.00,13.00
             32.00,13.00 46.00,14.00 46.00,14.00
             46.00,14.00 95.00,14.00 95.00,14.00
             95.00,14.00 121.00,14.00 121.00,14.00
             121.00,14.00 136.00,13.00 136.00,13.00
             136.00,13.00 219.00,13.00 219.00,13.00
             219.00,13.00 235.00,13.00 235.00,13.00
             235.00,13.00 247.00,13.82 247.00,13.82
             247.00,13.82 258.00,13.00 258.00,13.00
             258.00,13.00 424.00,13.00 424.00,13.00
             424.00,13.00 439.00,14.00 439.00,14.00
             439.00,14.00 466.00,14.00 466.00,14.00
             466.00,14.00 487.00,15.00 487.00,15.00
             495.15,15.15 494.99,17.78 495.00,25.00
             495.00,25.00 495.00,79.00 495.00,79.00
             495.00,79.00 494.00,96.00 494.00,96.00
             494.00,96.00 493.00,116.00 493.00,116.00
             493.00,116.00 493.00,138.00 493.00,138.00
             493.11,146.91 497.98,156.14 497.97,167.00
             497.97,175.93 494.55,179.19 493.32,185.00
             491.43,193.93 492.43,196.75 492.14,205.00
             492.14,205.00 492.14,215.00 492.14,215.00
             492.14,215.00 492.14,259.00 492.14,259.00
             492.14,259.00 491.00,276.00 491.00,276.00
             491.00,276.00 491.00,328.00 491.00,328.00
             491.00,328.00 489.88,343.00 489.88,343.00
             489.88,343.00 489.88,403.00 489.88,403.00
             489.88,403.00 489.88,427.00 489.88,427.00
             489.88,427.00 489.88,439.00 489.88,439.00
             489.88,439.00 489.00,453.00 489.00,453.00
             489.00,453.00 489.00,470.00 489.00,470.00
             489.00,473.23 489.67,479.93 487.40,482.30
             484.00,485.87 472.83,485.05 468.00,485.00
             468.00,485.00 457.00,484.08 457.00,484.08
             457.00,484.08 444.00,485.00 444.00,485.00
             444.00,485.00 276.00,485.00 276.00,485.00
             276.00,485.00 261.00,484.00 261.00,484.00
             261.00,484.00 114.00,484.00 114.00,484.00
             114.00,484.00 64.00,484.00 64.00,484.00
             64.00,484.00 52.00,484.95 52.00,484.95
             52.00,484.95 33.00,484.95 33.00,484.95
             33.00,484.95 24.01,484.18 24.01,484.18
             14.81,483.38 14.02,481.23 14.00,472.00
             14.00,472.00 14.00,349.00 14.00,349.00
             14.00,349.00 13.00,334.00 13.00,334.00
             12.97,316.74 15.08,292.47 7.00,277.00
             7.00,277.00 6.09,294.00 6.09,294.00
             6.09,294.00 6.68,305.00 6.68,305.00
             6.68,305.00 6.00,313.00 6.00,313.00
             6.00,313.00 6.00,366.00 6.00,366.00
             6.00,366.00 6.96,380.00 6.96,380.00
             6.96,380.00 6.01,392.00 6.01,392.00
             6.01,392.00 6.01,467.00 6.01,467.00
             5.99,472.22 3.74,485.94 6.01,489.79
             8.08,493.25 12.35,493.88 16.00,493.98
             16.00,493.98 32.00,493.01 32.00,493.01
             32.00,493.01 47.00,494.00 47.00,494.00
             47.00,494.00 271.00,494.00 271.00,494.00
             271.00,494.00 286.00,495.00 286.00,495.00
             286.00,495.00 398.00,495.00 398.00,495.00
             398.00,495.00 413.00,494.00 413.00,494.00
             413.00,494.00 478.00,494.00 478.00,494.00
             482.27,494.00 495.62,495.23 497.98,491.69
             499.21,489.84 499.00,486.19 499.00,484.00
             499.00,484.00 499.00,357.00 499.00,357.00
             499.00,357.00 500.00,342.00 500.00,342.00
             500.00,342.00 500.00,317.00 500.00,317.00
             500.00,317.00 501.00,300.00 501.00,300.00
             501.00,300.00 501.00,258.00 501.00,258.00
             501.00,258.00 502.00,241.00 502.00,241.00
             502.00,241.00 502.00,191.00 502.00,191.00
             502.00,191.00 503.00,176.00 503.00,176.00
             503.00,176.00 503.00,121.00 503.00,121.00
             503.00,121.00 504.00,106.00 504.00,106.00
             504.00,106.00 504.00,93.00 504.00,93.00
             504.00,93.00 505.04,77.00 505.04,77.00
             505.04,77.00 505.04,66.00 505.04,66.00
             505.04,66.00 506.00,55.00 506.00,55.00
             506.00,55.00 506.00,35.00 506.00,35.00
             506.00,35.00 505.00,22.00 505.00,22.00
             505.00,22.00 505.00,6.00 505.00,6.00 Z
           M 483.00,18.00
           C 483.00,18.00 296.00,18.00 296.00,18.00
             296.00,18.00 271.00,18.00 271.00,18.00
             271.00,18.00 252.00,17.00 252.00,17.00
             252.00,17.00 242.00,17.95 242.00,17.95
             242.00,17.95 230.00,17.95 230.00,17.95
             230.00,17.95 214.00,17.00 214.00,17.00
             214.00,17.00 201.00,18.00 201.00,18.00
             201.00,18.00 83.00,18.00 83.00,18.00
             83.00,18.00 49.00,18.00 49.00,18.00
             49.00,18.00 32.00,19.00 32.00,19.00
             32.00,19.00 201.00,19.00 201.00,19.00
             201.00,19.00 212.00,19.66 212.00,19.66
             212.00,19.66 222.00,19.00 222.00,19.00
             222.00,19.00 226.00,19.00 226.00,19.00
             226.00,19.00 241.00,20.00 241.00,20.00
             241.00,20.00 269.00,20.00 269.00,20.00
             269.00,20.00 281.00,19.18 281.00,19.18
             281.00,19.18 293.00,20.00 293.00,20.00
             293.00,20.00 373.00,20.00 373.00,20.00
             373.00,20.00 387.00,20.96 387.00,20.96
             387.00,20.96 400.00,20.00 400.00,20.00
             400.00,20.00 459.00,20.00 459.00,20.00
             465.49,20.00 477.72,21.42 483.00,18.00 Z
           M 29.00,18.00
           C 29.00,18.00 20.00,18.00 20.00,18.00
             20.00,18.00 19.00,38.00 19.00,38.00
             19.00,38.00 19.00,109.00 19.00,109.00
             19.00,109.00 19.00,134.00 19.00,134.00
             19.00,134.00 20.00,148.00 20.00,148.00
             20.00,148.00 20.00,57.00 20.00,57.00
             20.00,57.00 21.00,42.00 21.00,42.00
             21.01,37.80 19.96,23.36 22.60,20.74
             23.91,19.43 27.13,18.81 29.00,18.00 Z
           M 487.00,19.00
           C 487.00,19.00 490.00,23.00 490.00,23.00
             490.00,23.00 487.00,19.00 487.00,19.00 Z
           M 204.00,24.00
           C 204.00,24.00 178.00,23.00 178.00,23.00
             178.00,23.00 164.00,24.00 164.00,24.00
             164.00,24.00 186.00,24.00 186.00,24.00
             186.00,24.00 204.00,24.00 204.00,24.00 Z
           M 46.00,35.00
           C 46.00,35.00 49.98,33.38 49.98,33.38
             53.59,31.73 56.76,27.95 51.66,25.57
             49.26,24.45 37.18,23.98 34.00,24.00
             32.19,24.01 29.13,23.86 27.63,24.98
             26.12,26.12 26.22,28.46 26.07,30.17
             26.07,30.17 26.07,45.00 26.07,45.00
             26.00,47.21 25.46,54.83 29.85,52.83
             32.38,51.68 33.29,48.41 34.00,46.00
             39.43,48.87 38.26,51.40 42.12,52.57
             46.76,53.97 55.05,51.02 53.34,45.00
             52.67,42.64 47.80,37.39 46.00,35.00 Z
           M 96.00,24.00
           C 89.55,24.00 68.73,23.12 64.00,25.00
             70.45,25.00 91.27,25.88 96.00,24.00 Z
           M 59.00,47.00
           C 62.26,52.26 72.10,55.51 78.00,56.79
             95.81,60.64 111.04,58.96 127.00,49.85
             132.69,46.60 141.21,41.96 142.59,35.00
             144.55,25.17 132.13,21.30 123.02,26.41
             120.25,27.96 116.66,31.19 117.84,34.77
             119.56,39.95 127.64,37.56 131.00,36.00
             131.00,36.00 128.00,29.00 128.00,29.00
             132.61,28.82 138.65,31.32 135.31,36.91
             133.73,39.56 128.94,42.47 126.00,43.35
             114.70,46.76 99.84,39.73 89.00,37.13
             84.12,35.96 76.24,34.58 72.74,39.22
             66.90,46.98 79.72,48.98 82.40,46.96
             84.13,45.66 83.93,42.92 84.00,41.00
             94.31,43.22 91.57,51.45 83.00,52.79
             75.10,54.02 66.36,49.55 59.00,47.00 Z
           M 311.00,24.00
           C 311.00,24.00 286.00,25.00 286.00,25.00
             286.00,25.00 311.00,24.00 311.00,24.00 Z
           M 405.00,28.00
           C 397.95,27.67 396.73,31.45 393.04,30.99
             388.83,30.46 387.66,24.26 381.00,25.65
             374.43,27.03 371.87,32.74 375.45,34.19
             376.94,35.08 382.06,34.16 384.00,34.19
             377.45,47.72 359.21,45.45 347.00,43.00
             351.46,39.32 354.02,38.92 355.00,33.00
             349.32,33.00 344.59,33.10 339.00,34.51
             334.35,35.69 332.01,38.02 327.00,37.52
             327.00,37.52 305.00,33.42 305.00,33.42
             293.21,31.30 267.57,28.02 256.00,28.00
             256.00,28.00 204.00,29.17 204.00,29.17
             204.00,29.17 195.00,30.73 195.00,30.73
             165.16,35.33 141.74,44.17 116.00,60.06
             99.84,70.05 81.25,84.44 68.01,98.00
             68.01,98.00 46.00,123.00 46.00,123.00
             46.00,123.00 51.31,110.00 51.31,110.00
             56.20,96.56 60.08,69.11 49.00,58.00
             49.52,69.25 51.83,67.53 47.00,79.00
             47.00,79.00 45.00,79.00 45.00,79.00
             44.24,75.87 44.17,69.44 42.40,67.51
             40.16,65.07 32.17,63.24 33.18,74.00
             34.19,84.76 44.36,101.71 43.67,110.00
             43.29,114.55 41.13,120.59 37.67,123.68
             33.26,127.63 29.87,125.07 29.00,119.97
             30.70,120.36 32.82,121.08 34.40,119.97
             37.15,117.96 35.87,109.76 31.88,108.74
             28.56,107.90 26.71,111.40 25.94,114.00
             23.83,121.19 27.17,133.72 37.00,130.11
             39.51,129.19 41.03,127.69 43.00,126.00
             42.33,131.32 40.22,133.38 37.78,138.00
             34.00,145.16 29.93,152.33 27.33,160.00
             25.58,165.18 24.85,169.58 19.00,171.00
             19.00,171.00 20.00,190.00 20.00,190.00
             21.79,180.12 34.30,153.53 39.46,144.00
             72.12,83.75 125.66,47.80 192.00,34.55
             205.14,31.93 218.57,30.14 232.00,30.00
             255.02,29.77 271.31,30.88 294.00,35.45
             319.11,40.50 338.54,48.31 365.00,48.00
             380.50,47.81 395.92,40.68 405.00,28.00 Z
           M 416.00,25.00
           C 410.36,27.82 408.59,33.55 403.98,37.91
             397.08,44.45 388.18,48.33 379.00,50.50
             366.86,53.37 341.19,52.38 329.00,49.57
             329.00,49.57 312.00,44.48 312.00,44.48
             292.26,39.40 276.36,36.31 256.00,34.91
             256.00,34.91 246.00,34.00 246.00,34.00
             192.61,33.38 144.38,47.16 101.00,78.85
             92.01,85.41 80.53,94.76 73.17,103.00
             49.75,129.23 37.69,155.62 25.58,188.00
             25.58,188.00 12.98,227.00 12.98,227.00
             11.53,231.69 7.20,243.97 7.18,248.00
             7.12,259.86 14.27,284.57 18.58,296.00
             33.07,334.42 57.91,375.67 89.00,402.71
             118.59,428.44 165.91,448.05 205.00,451.83
             205.00,451.83 239.00,453.00 239.00,453.00
             257.29,452.97 281.67,448.90 299.00,443.00
             313.51,438.06 332.52,429.11 345.00,420.34
             345.00,420.34 359.00,409.72 359.00,409.72
             360.71,408.26 363.63,405.19 365.96,405.20
             368.63,405.20 374.30,412.38 377.00,414.47
             382.95,419.08 390.49,421.66 398.00,421.54
             421.59,421.17 429.84,411.48 441.00,392.00
             456.26,365.36 459.35,337.06 459.00,307.00
             458.65,277.29 445.77,235.07 428.41,211.00
             407.94,182.64 377.89,165.20 345.00,154.98
             333.42,151.38 318.07,147.02 306.00,147.00
             306.00,147.00 297.00,147.00 297.00,147.00
             275.41,147.26 248.48,155.68 229.00,164.71
             207.60,174.62 187.76,187.67 169.00,201.87
             164.75,205.09 152.03,213.43 150.65,218.00
             149.77,220.90 151.90,225.39 153.22,228.00
             153.22,228.00 167.86,252.00 167.86,252.00
             181.41,276.29 192.89,302.03 210.21,324.00
             216.91,332.49 226.98,343.74 237.00,347.99
             259.11,357.34 289.04,354.22 301.22,331.00
             302.87,327.85 305.21,322.50 305.64,319.00
             305.95,316.48 305.37,313.53 305.00,311.00
             304.34,306.55 302.99,301.72 300.35,298.00
             291.48,285.48 272.92,282.78 260.01,290.36
             251.34,295.47 251.15,305.23 244.00,311.00
             244.00,311.00 232.22,295.00 232.22,295.00
             227.78,287.40 223.56,267.77 224.18,259.00
             225.43,241.43 230.59,224.47 242.29,211.00
             253.70,197.86 268.58,190.41 286.00,189.74
             300.11,189.21 313.13,191.76 325.00,199.75
             330.39,203.38 333.47,206.46 338.00,211.00
             358.49,231.56 363.13,249.05 365.09,277.00
             365.09,277.00 366.00,292.00 366.00,292.00
             366.00,292.00 365.07,302.00 365.07,302.00
             362.14,333.75 350.79,357.69 327.00,379.17
             327.00,379.17 320.00,385.53 320.00,385.53
             316.50,388.18 310.95,390.65 307.00,392.79
             307.00,392.79 298.00,397.90 298.00,397.90
             267.12,411.06 227.46,409.60 197.00,396.14
             153.59,376.95 126.68,334.39 117.60,289.00
             116.17,281.85 114.09,268.07 114.00,261.00
             113.61,227.76 114.10,202.02 128.31,171.00
             141.87,141.39 161.13,118.91 188.00,100.58
             199.28,92.88 214.67,84.49 228.00,81.24
             259.40,73.58 291.24,79.33 320.00,93.26
             347.86,106.75 375.40,129.07 398.00,150.09
             398.00,150.09 411.00,162.04 411.00,162.04
             422.00,172.56 432.67,183.90 449.00,184.91
             460.98,185.64 474.55,177.40 476.67,165.00
             477.49,160.21 475.65,152.39 473.65,148.00
             471.00,142.20 463.62,135.53 457.00,135.15
             450.45,134.77 445.15,140.53 438.64,131.96
             434.31,126.26 428.99,108.42 427.13,101.00
             420.87,76.07 418.07,50.55 416.00,25.00 Z
           M 158.00,28.00
           C 158.00,28.00 149.00,27.00 149.00,27.00
             150.15,33.80 153.44,35.60 160.00,33.00
             160.00,33.00 153.00,32.00 153.00,32.00
             153.00,32.00 158.00,28.00 158.00,28.00 Z
           M 477.00,44.00
           C 468.51,37.78 467.03,29.68 458.00,27.58
             455.20,26.86 452.79,27.10 450.00,27.58
             447.24,28.14 444.53,28.80 442.33,30.65
             437.13,35.00 434.79,46.46 435.04,53.00
             435.61,67.74 439.26,90.96 443.66,105.00
             446.15,112.94 448.73,120.28 453.92,126.96
             460.25,135.12 463.95,132.30 471.00,136.48
             480.22,141.95 488.33,154.24 489.45,165.00
             489.82,168.61 488.55,172.71 487.12,176.00
             478.76,195.26 456.88,197.54 440.00,188.68
             414.88,175.50 394.36,152.10 372.00,134.89
             351.00,118.72 327.84,104.67 302.00,97.88
             287.80,94.16 276.44,93.43 262.00,92.74
             262.00,92.74 254.00,92.74 254.00,92.74
             229.90,94.57 206.48,106.30 188.00,121.42
             172.20,134.35 155.62,151.92 145.89,170.00
             123.38,211.79 123.19,268.58 137.67,313.00
             148.77,347.04 162.34,373.66 196.00,390.24
             202.26,393.33 213.12,397.38 220.00,398.00
             221.70,388.44 219.08,385.10 210.00,381.00
             208.77,391.60 199.89,389.90 193.00,385.30
             190.38,383.55 187.37,380.39 185.29,378.00
             177.48,369.04 170.94,359.19 170.09,347.00
             169.21,334.43 173.77,334.67 171.00,325.97
             166.44,326.95 158.93,332.36 158.84,325.97
             158.80,322.39 162.82,317.49 165.09,315.00
             170.48,309.09 178.24,302.00 176.85,293.06
             175.75,285.96 167.61,291.44 165.44,286.69
             164.02,284.34 166.02,281.66 165.44,277.00
             165.06,268.76 162.86,261.43 157.49,255.04
             152.76,249.42 145.62,246.09 144.00,256.00
             150.95,256.18 153.17,257.69 157.89,263.00
             160.21,265.61 162.15,267.48 159.00,270.00
             160.92,278.51 161.84,278.96 159.52,288.00
             158.20,293.17 154.53,299.74 156.00,305.00
             156.00,305.00 165.00,296.00 165.00,296.00
             164.84,301.74 162.21,302.98 159.90,308.00
             157.79,312.58 155.82,320.98 156.18,326.00
             156.51,330.56 158.21,340.76 159.70,345.00
             161.72,350.76 164.87,355.95 166.00,362.00
             152.26,346.89 149.97,333.53 150.00,314.00
             150.00,314.00 155.00,270.00 155.00,270.00
             155.00,270.00 151.00,269.00 151.00,269.00
             149.63,275.40 147.47,277.08 141.00,277.00
             142.52,286.69 149.80,295.37 140.00,303.00
             137.09,292.77 134.06,291.63 134.00,279.00
             133.95,269.01 134.00,263.03 135.28,253.00
             135.28,253.00 138.00,236.00 138.00,236.00
             138.00,236.00 134.00,236.00 134.00,236.00
             134.42,226.88 135.71,213.26 141.39,206.00
             149.57,195.54 163.69,190.20 167.00,177.00
             167.00,177.00 153.00,179.00 153.00,179.00
             153.25,177.54 153.18,176.70 154.02,175.32
             156.80,170.77 167.64,166.14 173.00,167.44
             177.33,168.50 178.99,171.90 184.00,172.77
             188.10,173.49 196.46,171.60 201.00,171.00
             201.00,171.00 199.00,160.00 199.00,160.00
             211.59,167.50 218.00,158.93 228.00,152.00
             223.66,143.89 213.22,146.76 207.00,151.00
             204.89,144.87 206.86,145.54 209.00,139.00
             205.32,139.00 197.15,138.68 194.00,139.65
             194.00,139.65 186.00,143.30 186.00,143.30
             184.03,143.61 181.97,142.79 181.17,140.85
             179.94,137.89 182.87,135.44 185.02,133.96
             190.66,130.10 196.18,128.08 203.00,128.00
             207.15,127.96 209.95,127.86 214.00,129.04
             216.22,129.69 220.80,131.74 222.85,131.48
             228.32,130.79 223.71,121.90 228.26,122.16
             232.73,122.41 235.33,130.46 237.49,132.69
             240.03,135.30 242.88,134.76 246.00,136.00
             250.21,137.68 254.71,142.23 257.94,141.91
             264.35,141.26 262.54,129.08 262.00,125.00
             267.75,126.08 272.65,129.57 276.00,129.24
             280.41,128.81 283.17,125.13 280.67,121.00
             280.67,121.00 277.00,116.00 277.00,116.00
             281.87,114.69 285.31,114.11 287.00,109.00
             277.08,108.66 275.71,103.18 271.00,102.99
             266.39,102.79 264.35,108.98 257.00,107.77
             253.39,107.18 249.22,104.16 252.49,100.43
             256.59,95.72 269.37,96.92 275.00,97.73
             291.48,100.09 321.97,109.62 335.00,119.68
             339.11,122.85 341.74,125.71 344.64,130.00
             345.73,131.60 348.18,136.09 349.61,136.95
             354.46,139.87 354.06,129.28 361.00,133.09
             361.00,133.09 379.00,147.55 379.00,147.55
             379.00,147.55 421.00,181.60 421.00,181.60
             432.49,190.78 445.42,200.50 461.00,199.33
             469.67,198.68 478.84,195.58 484.79,188.96
             495.77,176.72 494.89,153.53 484.25,141.29
             471.27,126.36 455.35,132.58 455.87,112.83
             456.20,100.53 457.44,91.71 472.00,91.00
             471.86,80.17 469.01,84.20 463.55,77.81
             461.45,75.35 460.21,71.97 459.00,69.00
             459.00,69.00 457.00,69.00 457.00,69.00
             457.00,69.00 448.00,88.00 448.00,88.00
             448.00,88.00 446.00,88.00 446.00,88.00
             443.72,75.50 438.73,57.08 442.75,45.00
             444.45,39.88 450.42,30.99 456.76,35.75
             458.19,36.83 459.81,39.47 457.58,40.79
             456.21,41.38 453.71,40.51 452.11,40.79
             449.15,41.66 447.76,45.21 447.69,48.00
             447.54,54.20 453.29,57.84 459.00,56.60
             464.30,55.46 465.97,51.75 469.09,49.58
             469.09,49.58 477.00,46.00 477.00,46.00
             477.00,46.00 477.00,44.00 477.00,44.00 Z
           M 108.00,28.95
           C 98.10,27.23 87.94,27.88 78.00,28.95
             74.25,29.19 71.63,28.56 68.00,29.96
             68.00,29.96 83.00,29.96 83.00,29.96
             83.00,29.96 96.00,28.95 96.00,28.95
             96.00,28.95 108.00,28.95 108.00,28.95 Z
           M 178.00,28.00
           C 178.00,28.00 160.00,29.00 160.00,29.00
             165.88,29.00 173.09,30.82 178.00,28.00 Z
           M 335.00,28.00
           C 335.00,28.00 312.00,29.00 312.00,29.00
             312.00,29.00 335.00,28.00 335.00,28.00 Z
           M 33.05,28.72
           C 40.82,29.28 39.87,37.85 35.86,38.96
             29.36,40.76 25.61,31.62 33.05,28.72 Z
           M 490.00,31.00
           C 488.24,35.44 489.01,44.89 489.00,50.00
             489.00,50.00 488.00,67.00 488.00,67.00
             488.00,67.00 487.00,113.00 487.00,113.00
             486.95,117.95 485.86,130.12 488.00,134.00
             488.00,134.00 488.00,113.00 488.00,113.00
             488.00,113.00 489.00,98.00 489.00,98.00
             489.00,98.00 489.00,81.00 489.00,81.00
             489.00,81.00 490.00,64.00 490.00,64.00
             490.00,64.00 490.00,31.00 490.00,31.00 Z
           M 366.00,32.00
           C 366.00,32.00 363.00,34.00 363.00,34.00
             363.00,34.00 366.00,35.00 366.00,35.00
             366.00,35.00 366.00,32.00 366.00,32.00 Z
           M 108.00,33.00
           C 104.02,33.01 102.32,32.55 99.00,35.00
             99.00,35.00 108.00,35.00 108.00,35.00
             108.00,35.00 108.00,33.00 108.00,33.00 Z
           M 368.00,38.00
           C 368.00,38.00 361.00,40.00 361.00,40.00
             361.00,40.00 368.00,38.00 368.00,38.00 Z
           M 482.00,39.00
           C 482.00,39.00 481.00,39.00 481.00,39.00
             481.00,39.00 482.00,40.00 482.00,40.00
             482.00,40.00 482.00,39.00 482.00,39.00 Z
           M 373.00,380.00
           C 367.96,390.26 356.07,399.37 347.00,406.23
             321.03,425.88 277.69,440.61 245.00,441.00
             245.00,441.00 216.00,441.00 216.00,441.00
             203.51,440.98 176.07,436.40 164.00,432.79
             106.74,415.70 67.20,370.61 40.74,319.00
             33.38,304.62 26.78,289.44 21.98,274.00
             20.75,270.05 17.44,259.62 17.21,256.00
             16.97,252.16 18.71,246.89 19.58,243.00
             19.58,243.00 27.58,214.00 27.58,214.00
             38.10,178.20 58.97,136.58 84.17,109.00
             84.17,109.00 102.00,92.17 102.00,92.17
             119.44,76.42 138.99,67.34 161.00,60.00
             182.96,52.67 194.31,48.71 218.00,47.00
             218.00,47.00 226.00,47.00 226.00,47.00
             226.00,47.00 235.00,46.02 235.00,46.02
             235.00,46.02 251.00,47.00 251.00,47.00
             263.61,47.02 279.31,49.48 292.00,51.28
             313.50,54.33 341.21,64.23 361.00,64.00
             368.83,63.91 383.72,61.47 391.00,58.68
             393.54,57.71 401.12,53.84 403.44,55.15
             405.20,56.15 405.92,60.14 406.35,62.00
             406.35,62.00 410.37,80.00 410.37,80.00
             410.37,80.00 422.68,123.00 422.68,123.00
             426.08,132.29 426.34,135.93 432.81,144.00
             434.79,146.47 437.64,150.41 441.00,150.80
             445.14,151.27 455.69,143.46 462.57,152.06
             463.59,153.33 464.14,154.47 464.66,156.00
             468.86,168.47 458.62,173.24 448.00,172.99
             434.09,172.65 425.33,161.77 416.00,153.09
             416.00,153.09 399.00,138.72 399.00,138.72
             399.00,138.72 373.00,115.44 373.00,115.44
             355.81,101.01 337.54,87.57 317.00,78.31
             287.34,64.93 249.02,61.48 218.00,72.08
             202.31,77.44 190.71,83.66 177.09,93.05
             162.64,103.01 151.10,116.06 140.63,130.00
             101.30,182.35 90.65,250.96 111.33,313.00
             117.41,331.23 126.24,348.99 138.37,364.00
             142.99,369.71 158.03,384.07 164.00,388.91
             174.93,397.77 187.02,403.99 200.00,409.20
             216.26,415.72 232.56,418.20 250.00,418.00
             250.00,418.00 267.00,416.28 267.00,416.28
             275.03,415.29 281.05,414.84 289.00,412.57
             317.72,404.38 344.85,382.91 359.66,357.00
             366.87,344.41 372.16,326.33 374.57,312.00
             374.57,312.00 376.96,283.00 376.96,283.00
             375.65,241.79 354.59,195.35 313.00,181.36
             302.50,177.82 294.82,177.88 284.00,178.00
             248.31,178.42 222.78,208.12 215.42,241.00
             213.45,249.84 213.90,258.98 214.00,268.00
             214.16,281.63 220.09,297.41 228.51,308.00
             230.87,310.97 234.12,314.23 237.00,316.70
             240.48,319.68 252.07,328.82 256.76,325.06
             260.01,322.46 257.08,319.48 258.90,312.00
             259.71,308.67 261.05,304.87 263.53,302.42
             268.66,297.35 278.87,297.00 284.99,300.41
             296.88,307.05 296.62,321.36 288.24,330.67
             282.59,336.95 265.66,343.44 257.00,342.91
             244.48,342.13 230.55,332.31 222.75,323.00
             214.59,313.25 208.57,301.93 202.14,291.00
             202.14,291.00 180.72,255.00 180.72,255.00
             180.72,255.00 167.25,230.00 167.25,230.00
             165.54,226.54 163.24,223.08 165.75,219.43
             167.80,216.45 176.69,210.14 180.00,207.58
             191.64,198.56 204.06,190.27 217.00,183.23
             241.74,169.79 269.48,159.34 298.00,159.00
             323.58,158.70 350.63,164.61 373.00,177.33
             414.78,201.09 446.44,255.92 447.00,304.00
             447.00,304.00 447.97,316.00 447.97,316.00
             447.97,316.00 447.09,325.00 447.09,325.00
             445.37,350.08 442.53,374.31 426.49,395.00
             424.27,397.86 419.95,402.89 417.05,404.93
             407.64,411.55 391.78,412.87 383.30,403.90
             374.94,395.05 377.41,388.22 373.00,380.00 Z
           M 480.00,55.00
           C 480.00,55.00 472.00,56.00 472.00,56.00
             472.00,56.00 480.00,55.00 480.00,55.00 Z
           M 232.00,56.28
           C 232.00,56.28 219.00,57.17 219.00,57.17
             219.00,57.17 203.00,59.27 203.00,59.27
             187.29,61.70 169.77,66.59 155.00,72.45
             100.21,94.19 71.14,138.01 48.72,190.00
             42.54,204.32 36.96,220.03 32.58,235.00
             31.18,239.76 27.60,249.45 27.60,254.00
             27.60,258.00 31.14,268.60 32.42,273.00
             36.98,288.58 46.60,310.86 54.58,325.00
             74.74,360.76 101.79,394.47 138.00,415.13
             151.96,423.09 172.27,430.05 188.00,433.58
             198.80,435.99 209.92,437.94 221.00,438.00
             221.00,438.00 233.00,438.92 233.00,438.92
             233.00,438.92 248.00,438.00 248.00,438.00
             264.02,437.81 299.64,429.00 314.00,422.02
             314.00,422.02 340.00,405.70 340.00,405.70
             348.28,399.75 357.25,389.30 365.00,382.09
             367.45,379.81 373.77,374.11 377.00,373.74
             382.00,373.15 385.30,378.90 386.32,383.00
             388.49,391.77 387.97,402.80 400.00,404.58
             408.53,405.85 421.29,393.44 425.64,387.00
             438.15,368.47 440.75,344.77 441.00,323.00
             441.00,323.00 441.91,310.00 441.91,310.00
             441.34,299.97 440.54,289.88 438.55,280.00
             432.75,251.14 415.41,218.50 393.00,199.30
             379.97,188.13 369.62,182.58 354.00,176.14
             340.98,170.77 325.12,167.02 311.00,167.00
             311.00,167.00 300.00,167.00 300.00,167.00
             267.58,167.05 227.34,186.14 201.00,204.12
             201.00,204.12 180.00,219.09 180.00,219.09
             178.00,220.72 174.10,223.72 173.13,226.04
             171.78,229.25 174.34,233.23 175.86,236.00
             175.86,236.00 189.31,258.00 189.31,258.00
             189.31,258.00 202.04,281.00 202.04,281.00
             202.04,281.00 222.67,316.00 222.67,316.00
             229.79,326.49 241.76,337.00 255.00,337.91
             264.91,338.59 280.44,334.90 286.00,325.99
             293.23,314.38 282.35,305.39 276.00,306.66
             274.58,306.95 273.20,307.64 272.06,308.51
             267.41,312.04 267.29,316.97 269.36,322.00
             270.40,324.54 273.01,327.95 271.70,330.72
             270.06,334.18 264.20,334.00 261.00,333.77
             258.54,334.00 256.44,333.99 254.00,333.77
             249.39,332.66 244.96,330.40 241.00,327.94
             226.46,318.90 222.80,309.82 215.75,295.00
             211.85,286.81 206.65,268.94 207.32,260.00
             207.74,254.39 207.95,248.48 209.24,243.00
             217.56,207.55 245.32,176.96 283.00,174.74
             283.00,174.74 291.00,174.74 291.00,174.74
             325.44,176.46 356.03,195.78 372.83,226.00
             383.59,245.36 388.03,269.05 388.00,291.00
             387.96,314.31 383.10,338.28 372.11,359.00
             346.20,407.85 289.19,430.91 236.00,425.83
             220.37,424.34 203.10,420.75 189.00,413.75
             170.35,404.49 164.69,399.69 150.00,385.00
             144.29,379.29 138.62,373.46 133.75,367.00
             80.38,296.30 84.08,182.71 144.29,117.04
             144.29,117.04 154.00,107.99 154.00,107.99
             179.52,83.08 200.38,70.11 236.00,64.58
             241.19,63.77 257.36,61.98 262.00,62.32
             279.75,63.65 295.17,65.62 312.00,72.06
             340.28,82.89 371.60,108.01 394.00,128.17
             394.00,128.17 434.00,163.78 434.00,163.78
             439.73,167.48 445.81,172.19 452.98,170.06
             459.52,168.12 460.97,161.30 457.67,158.62
             453.02,154.83 449.80,162.60 445.00,161.38
             443.03,160.88 438.64,157.15 437.00,155.71
             429.40,149.02 424.46,141.02 420.11,132.00
             413.14,117.58 410.45,101.44 406.74,86.00
             405.84,82.26 404.24,71.04 401.44,68.83
             398.66,66.63 389.43,70.05 386.00,70.87
             374.77,73.54 361.57,73.13 350.00,73.00
             334.57,72.82 319.83,67.40 305.00,63.88
             291.30,60.64 277.01,58.50 263.00,57.04
             263.00,57.04 254.00,57.04 254.00,57.04
             246.32,56.39 239.82,55.56 232.00,56.28 Z
           M 35.00,60.00
           C 31.47,59.19 31.09,59.05 28.00,61.00
             28.00,61.00 35.00,60.00 35.00,60.00 Z
           M 72.00,61.00
           C 72.00,61.00 64.00,61.00 64.00,61.00
             64.00,61.00 72.00,61.00 72.00,61.00 Z
           M 479.00,60.00
           C 479.00,60.00 469.00,61.00 469.00,61.00
             473.39,61.75 474.99,62.31 479.00,60.00 Z
           M 64.00,61.00
           C 64.00,61.00 63.00,61.00 63.00,61.00
             63.00,61.00 64.00,62.00 64.00,62.00
             64.00,62.00 64.00,61.00 64.00,61.00 Z
           M 454.00,65.00
           C 454.00,65.00 450.00,66.00 450.00,66.00
             450.00,66.00 454.00,65.00 454.00,65.00 Z
           M 28.00,65.00
           C 28.00,65.00 27.00,65.00 27.00,65.00
             27.00,65.00 28.00,66.00 28.00,66.00
             28.00,66.00 28.00,65.00 28.00,65.00 Z
           M 96.00,66.00
           C 91.31,65.17 89.32,64.50 85.00,67.00
             89.20,67.83 92.04,67.69 96.00,66.00 Z
           M 482.00,66.00
           C 476.81,64.53 470.19,64.53 465.00,66.00
             467.13,74.10 472.08,74.19 479.00,71.00
             479.00,71.00 469.00,70.00 469.00,70.00
             474.15,64.92 475.90,68.42 482.00,66.00 Z
           M 71.11,68.47
           C 64.82,71.42 68.66,78.97 73.03,78.21
             79.31,77.10 80.66,68.00 71.11,68.47 Z
           M 87.00,72.00
           C 87.00,72.00 86.00,72.00 86.00,72.00
             86.00,72.00 87.00,73.00 87.00,73.00
             87.00,73.00 87.00,72.00 87.00,72.00 Z
           M 476.00,76.00
           C 476.00,76.00 475.00,76.00 475.00,76.00
             475.00,76.00 476.00,77.00 476.00,77.00
             476.00,77.00 476.00,76.00 476.00,76.00 Z
           M 72.00,83.00
           C 72.00,83.00 64.00,85.00 64.00,85.00
             64.00,85.00 72.00,85.00 72.00,85.00
             72.00,85.00 72.00,83.00 72.00,83.00 Z
           M 32.00,88.00
           C 32.00,88.00 27.00,88.00 27.00,88.00
             27.00,88.00 27.00,90.00 27.00,90.00
             27.00,90.00 32.00,90.00 32.00,90.00
             32.00,90.00 32.00,88.00 32.00,88.00 Z
           M 68.00,89.00
           C 68.00,89.00 63.00,91.00 63.00,91.00
             63.00,91.00 68.00,89.00 68.00,89.00 Z
           M 35.00,95.00
           C 35.00,95.00 27.00,95.00 27.00,95.00
             30.36,96.94 31.75,97.29 35.00,95.00 Z
           M 36.00,101.00
           C 32.23,100.11 31.38,100.05 28.00,102.00
             31.79,102.98 32.66,103.15 36.00,101.00 Z
           M 480.00,100.00
           C 480.00,100.00 466.00,100.00 466.00,100.00
             466.00,100.00 466.00,102.00 466.00,102.00
             470.99,102.00 475.68,102.79 480.00,100.00 Z
           M 241.00,100.00
           C 241.00,100.00 242.00,106.00 242.00,106.00
             238.92,103.84 239.51,103.22 241.00,100.00 Z
           M 230.00,102.00
           C 230.00,102.00 232.00,106.00 232.00,106.00
             232.00,106.00 230.00,102.00 230.00,102.00 Z
           M 478.00,106.00
           C 478.00,106.00 465.00,107.00 465.00,107.00
             469.98,108.20 473.28,108.18 478.00,106.00 Z
           M 476.00,112.00
           C 471.61,110.93 468.83,110.18 465.00,113.00
             465.00,113.00 476.00,112.00 476.00,112.00 Z
           M 192.00,122.00
           C 194.84,116.66 201.37,114.93 207.00,113.83
             219.91,110.76 237.26,110.32 250.00,113.83
             250.00,113.83 249.00,125.00 249.00,125.00
             238.69,124.39 241.93,117.33 229.00,115.22
             215.91,113.08 204.41,120.08 192.00,122.00 Z
           M 255.00,115.00
           C 259.98,116.02 263.29,116.36 266.00,121.00
             261.15,119.58 257.73,119.60 255.00,115.00 Z
           M 476.00,116.00
           C 476.00,116.00 466.00,118.00 466.00,118.00
             466.00,118.00 476.00,118.00 476.00,118.00
             476.00,118.00 476.00,116.00 476.00,116.00 Z
           M 310.00,117.00
           C 305.92,121.09 304.70,127.10 299.98,127.35
             296.32,127.54 293.32,123.60 290.04,124.45
             287.02,125.23 285.43,129.43 282.79,131.25
             279.88,133.26 276.27,132.25 273.00,132.00
             275.91,136.36 285.03,136.76 290.00,136.56
             302.42,136.07 313.47,131.32 310.00,117.00 Z
           M 324.00,129.00
           C 327.25,131.30 331.15,135.20 334.98,135.95
             339.31,136.79 341.50,133.99 339.53,130.01
             336.99,124.87 325.58,117.45 320.74,123.31
             317.42,127.33 319.29,133.45 322.23,137.00
             327.93,143.88 335.76,147.09 344.00,149.83
             360.22,155.23 372.99,159.83 388.00,168.43
             421.43,187.56 452.91,222.79 466.58,259.00
             473.53,277.42 475.78,297.40 476.00,317.00
             476.00,317.00 475.09,330.00 475.09,330.00
             473.45,352.55 471.23,369.55 460.36,390.00
             451.78,406.15 435.68,425.35 417.00,429.33
             412.86,430.22 408.24,430.05 404.00,430.00
             397.13,429.92 390.20,428.05 384.00,425.11
             380.90,423.64 376.12,419.60 373.00,420.23
             370.90,420.66 364.19,425.88 362.00,427.41
             355.61,431.89 348.87,435.98 342.00,439.69
             321.87,450.58 301.29,457.51 279.00,462.34
             265.27,465.31 251.03,466.98 237.00,467.00
             237.00,467.00 222.00,467.91 222.00,467.91
             195.90,466.43 169.57,460.23 146.00,448.74
             120.85,436.48 99.67,419.68 80.00,400.00
             63.12,383.11 47.79,362.54 35.60,342.00
             35.60,342.00 19.00,311.00 19.00,311.00
             19.00,311.00 19.00,423.00 19.00,423.00
             19.00,423.00 19.00,478.00 19.00,478.00
             19.00,478.00 37.00,479.00 37.00,479.00
             37.00,479.00 52.00,480.00 52.00,480.00
             52.00,480.00 298.00,480.00 298.00,480.00
             298.00,480.00 377.00,480.00 377.00,480.00
             377.00,480.00 392.00,479.00 392.00,479.00
             392.00,479.00 418.00,478.00 418.00,478.00
             418.00,478.00 372.00,478.00 372.00,478.00
             372.00,478.00 359.00,478.92 359.00,478.92
             359.00,478.92 342.00,478.00 342.00,478.00
             342.00,478.00 285.00,478.00 285.00,478.00
             285.00,478.00 269.00,477.13 269.00,477.13
             269.00,477.13 238.00,477.13 238.00,477.13
             238.00,477.13 203.05,477.13 203.05,477.13
             199.70,476.95 199.44,474.78 196.91,473.69
             195.42,473.06 190.85,473.08 189.00,472.96
             183.66,472.48 178.16,470.95 173.00,472.96
             173.00,472.96 180.00,474.00 180.00,474.00
             180.00,474.00 180.00,476.00 180.00,476.00
             168.37,478.87 132.00,478.02 118.00,478.00
             118.00,478.00 82.00,478.00 82.00,478.00
             82.00,478.00 69.00,477.02 69.00,477.02
             69.00,477.02 45.00,477.02 45.00,477.02
             45.00,477.02 22.00,476.00 22.00,476.00
             22.00,476.00 21.00,456.00 21.00,456.00
             21.00,456.00 21.00,439.00 21.00,439.00
             21.00,439.00 20.00,422.00 20.00,422.00
             20.00,422.00 20.00,376.00 20.00,376.00
             20.00,376.00 21.00,359.00 21.00,359.00
             21.00,359.00 21.00,341.00 21.00,341.00
             21.00,341.00 22.00,326.00 22.00,326.00
             26.67,330.37 29.19,336.57 32.45,342.00
             32.45,342.00 49.88,369.00 49.88,369.00
             71.40,400.18 100.05,431.52 135.00,447.69
             190.39,473.32 251.64,479.05 310.00,459.67
             322.59,455.49 338.06,449.40 349.00,441.95
             354.15,438.45 368.39,427.23 374.00,427.00
             377.42,426.86 382.65,430.65 386.00,432.21
             391.67,434.83 396.80,435.90 403.00,435.99
             412.57,436.12 425.16,432.91 434.00,436.90
             439.41,439.34 444.56,443.77 440.29,449.94
             439.22,451.48 437.78,452.77 435.98,453.36
             431.61,454.80 427.12,451.18 423.00,450.39
             417.10,449.26 416.77,454.72 411.83,453.45
             405.27,451.76 384.56,437.62 370.00,438.13
             364.11,438.34 355.40,442.40 353.01,448.04
             351.98,450.45 351.96,453.41 352.02,456.00
             352.07,458.41 352.23,460.72 353.23,462.96
             356.66,470.67 373.42,470.58 374.43,461.00
             374.96,455.89 371.20,451.79 366.01,453.74
             362.40,455.10 361.17,457.61 360.00,461.00
             355.31,456.27 355.53,450.79 362.04,447.80
             367.38,445.44 372.61,446.02 378.00,447.80
             394.12,452.91 407.39,469.24 424.00,470.82
             428.75,471.28 434.03,469.85 437.96,467.15
             440.20,465.61 442.60,462.38 445.09,462.45
             448.00,462.52 450.25,466.23 458.00,467.53
             464.49,468.63 468.38,465.89 466.35,459.00
             464.54,452.82 459.35,448.03 457.00,442.00
             463.17,441.50 470.28,441.13 474.43,435.90
             478.91,430.24 478.08,414.68 469.96,412.43
             460.91,409.93 454.59,419.54 460.31,424.26
             462.62,426.17 466.18,425.97 469.00,426.00
             463.77,436.78 452.51,432.44 443.00,430.92
             441.17,430.63 434.03,430.53 433.62,428.65
             433.29,427.10 435.03,425.92 436.08,425.17
             436.08,425.17 446.00,417.83 446.00,417.83
             456.96,407.92 464.42,394.71 469.58,381.00
             481.15,350.25 479.57,310.97 474.25,279.00
             470.30,255.31 465.39,236.14 449.83,217.00
             433.12,196.45 402.85,171.36 379.00,159.60
             379.00,159.60 364.00,153.80 364.00,153.80
             354.21,149.95 344.13,146.71 335.00,141.40
             328.73,137.75 325.10,136.82 324.00,129.00 Z
           M 481.00,122.00
           C 476.70,120.99 468.09,121.38 464.00,123.00
             468.53,124.56 476.52,123.78 481.00,122.00 Z
           M 175.00,143.00
           C 175.00,143.00 178.00,147.00 178.00,147.00
             178.00,147.00 175.00,143.00 175.00,143.00 Z
           M 168.00,148.00
           C 168.00,148.00 170.00,148.00 170.00,148.00
             170.00,148.00 171.00,151.00 171.00,151.00
             171.00,151.00 168.00,148.00 168.00,148.00 Z
           M 183.00,158.00
           C 186.14,149.50 194.89,151.67 202.00,152.00
             202.00,152.00 202.00,154.00 202.00,154.00
             202.00,154.00 192.00,156.00 192.00,156.00
             192.00,156.00 193.00,163.00 193.00,163.00
             193.00,163.00 183.00,158.00 183.00,158.00 Z
           M 159.00,166.00
           C 162.09,161.89 166.05,158.65 171.00,156.97
             172.75,156.38 178.93,155.89 176.83,159.50
             176.02,160.89 173.43,161.53 172.00,162.02
             166.94,163.75 164.42,165.43 159.00,166.00 Z
           M 147.00,176.00
           C 151.29,181.60 150.14,188.30 142.00,188.00
             142.00,188.00 147.00,176.00 147.00,176.00 Z
           M 487.00,195.00
           C 487.00,195.00 486.00,195.00 486.00,195.00
             486.00,195.00 487.00,196.00 487.00,196.00
             487.00,196.00 487.00,195.00 487.00,195.00 Z
           M 488.00,196.00
           C 488.00,196.00 486.00,204.00 486.00,204.00
             486.00,204.00 486.00,226.00 486.00,226.00
             486.00,226.00 487.00,238.00 487.00,238.00
             487.00,238.00 488.91,208.00 488.91,208.00
             488.91,208.00 488.00,196.00 488.00,196.00 Z
           M 321.00,378.00
           C 331.33,371.68 341.69,355.80 347.22,345.00
             361.21,317.69 364.41,284.71 357.65,255.00
             352.15,230.82 341.61,212.48 317.00,203.70
             311.87,201.87 304.44,200.40 299.00,200.09
             293.25,199.77 284.51,201.86 279.00,203.67
             250.86,212.94 237.94,230.03 234.84,259.00
             234.39,263.14 233.86,264.47 234.04,269.00
             234.39,278.15 237.57,295.13 246.00,300.00
             246.59,292.20 243.07,288.07 241.45,280.00
             238.85,267.10 239.30,252.93 245.27,241.00
             251.30,228.95 269.30,212.15 284.00,214.21
             291.64,215.29 295.91,222.09 302.98,221.90
             313.06,221.63 302.95,210.73 309.16,209.20
             312.07,208.48 317.52,210.98 320.00,212.48
             327.63,217.08 335.95,226.21 338.10,235.00
             339.40,240.33 338.31,244.75 340.00,249.00
             342.64,234.24 338.62,232.81 335.00,220.00
             347.33,229.28 348.03,246.79 337.90,258.00
             335.73,260.40 330.58,266.08 327.13,265.84
             324.99,265.68 324.04,263.68 321.74,262.50
             319.22,261.20 314.82,261.07 312.17,255.98
             309.64,251.10 311.77,243.15 318.00,242.52
             320.27,242.30 323.87,244.10 326.00,245.00
             329.75,231.64 314.75,227.84 310.01,229.60
             305.55,231.26 302.00,237.90 300.00,242.00
             296.52,238.73 297.02,238.16 299.00,234.00
             292.40,227.40 288.02,219.66 278.00,222.00
             278.00,222.00 288.00,244.00 288.00,244.00
             288.00,244.00 275.00,244.00 275.00,244.00
             275.00,244.00 276.00,247.00 276.00,247.00
             276.00,247.00 272.00,247.00 272.00,247.00
             275.60,254.16 278.32,251.48 282.37,255.51
             285.15,258.28 285.69,262.91 291.09,267.24
             301.58,275.63 309.13,271.36 320.00,274.00
             320.00,274.00 320.00,276.00 320.00,276.00
             320.00,276.00 300.00,282.00 300.00,282.00
             301.54,287.13 304.67,289.58 310.00,290.48
             313.12,291.01 315.48,290.09 317.72,291.69
             320.82,293.89 321.67,302.90 323.00,307.00
             332.57,304.06 329.11,296.41 340.00,301.00
             340.01,281.09 346.29,279.08 348.80,268.00
             350.30,261.39 347.42,258.33 350.00,248.00
             354.29,252.54 355.00,259.97 355.87,266.00
             357.98,280.74 358.27,305.08 345.82,315.69
             339.15,321.36 333.51,313.47 328.13,316.22
             322.74,318.97 325.39,325.38 322.52,328.57
             319.14,332.32 314.84,329.44 309.00,335.00
             317.41,334.28 316.37,336.93 322.00,338.16
             324.66,338.97 328.03,338.05 331.00,338.16
             326.01,342.80 325.24,340.55 320.17,342.95
             317.81,344.06 316.91,345.56 313.96,345.05
             310.15,344.40 307.22,340.40 304.13,341.33
             299.25,342.81 299.01,352.93 299.00,357.00
             305.45,354.86 306.10,348.61 312.00,348.04
             317.42,347.51 321.32,354.29 327.00,351.78
             332.50,349.35 331.85,344.90 342.20,341.00
             342.50,343.15 343.02,344.76 342.20,347.00
             340.83,352.63 329.31,361.48 324.00,363.83
             324.00,363.83 314.31,367.42 314.31,367.42
             310.77,369.73 313.11,373.13 310.40,376.79
             306.66,381.86 295.24,385.76 289.00,385.66
             283.13,385.56 278.65,382.26 279.43,376.00
             279.82,373.46 281.77,368.98 279.43,367.02
             278.30,366.13 276.34,366.05 275.00,366.03
             271.90,366.00 269.86,366.37 267.46,368.43
             265.82,369.84 264.07,372.75 261.83,373.09
             259.46,373.45 257.27,371.13 254.00,370.03
             250.01,368.68 247.70,369.47 244.00,371.00
             245.26,374.99 249.11,380.36 248.47,383.98
             246.88,392.96 237.59,389.20 234.14,383.98
             231.41,379.81 230.61,373.86 231.18,369.00
             231.45,366.75 232.76,363.14 232.22,361.17
             231.27,357.72 224.38,354.27 220.00,349.00
             220.00,349.00 213.00,356.00 213.00,356.00
             211.63,350.00 209.26,341.46 205.00,337.00
             205.00,337.00 205.00,341.00 205.00,341.00
             205.00,341.00 197.00,337.00 197.00,337.00
             198.41,341.58 200.48,342.52 200.93,345.04
             201.43,347.82 199.49,350.42 198.68,353.00
             196.69,359.37 199.32,361.87 189.00,362.00
             189.47,370.54 193.44,381.73 204.00,379.00
             204.00,379.00 200.00,371.00 200.00,371.00
             200.00,371.00 201.00,370.00 201.00,370.00
             201.00,370.00 207.00,373.00 207.00,373.00
             205.07,364.78 202.59,363.98 204.00,355.00
             204.00,355.00 213.00,373.00 213.00,373.00
             213.00,373.00 216.00,370.00 216.00,370.00
             216.00,370.00 219.00,363.00 219.00,363.00
             221.44,369.36 222.80,380.90 225.70,384.91
             229.01,389.49 233.99,390.90 239.00,392.69
             245.15,394.89 254.41,398.17 260.74,394.70
             262.31,393.84 263.69,392.23 265.00,391.00
             265.00,391.00 265.00,397.00 265.00,397.00
             265.00,397.00 270.00,396.00 270.00,396.00
             270.00,396.00 271.00,389.00 271.00,389.00
             271.00,389.00 273.00,389.00 273.00,389.00
             273.00,389.00 274.00,398.00 274.00,398.00
             283.31,392.55 275.12,389.01 272.09,383.00
             270.59,379.77 271.21,377.29 272.09,374.00
             272.09,374.00 274.00,374.00 274.00,374.00
             274.72,376.85 275.29,381.47 277.01,383.70
             279.44,386.86 287.57,387.34 292.00,389.00
             292.00,389.00 291.00,395.00 291.00,395.00
             291.00,395.00 298.00,391.00 298.00,391.00
             298.00,391.00 295.00,387.00 295.00,387.00
             295.00,387.00 300.00,391.00 300.00,391.00
             305.76,390.39 312.03,387.37 314.83,381.99
             317.36,377.12 314.59,376.62 320.00,372.00
             320.00,372.00 321.00,378.00 321.00,378.00 Z
           M 478.00,201.00
           C 478.00,201.00 476.00,201.00 476.00,201.00
             476.00,201.00 472.73,204.98 472.73,204.98
             472.73,204.98 450.00,207.06 450.00,207.06
             459.39,209.75 460.21,207.24 466.00,207.06
             471.71,207.12 470.50,208.80 478.00,207.06
             478.00,207.06 478.00,201.00 478.00,201.00 Z
           M 300.00,212.00
           C 294.63,208.33 295.61,204.10 302.00,203.00
             302.00,203.00 300.00,212.00 300.00,212.00 Z
           M 477.00,210.97
           C 477.00,210.97 467.00,210.97 467.00,210.97
             461.57,210.48 459.52,208.53 454.00,210.97
             459.98,212.97 471.39,213.91 477.00,210.97 Z
           M 476.00,216.00
           C 476.00,216.00 459.00,217.00 459.00,217.00
             464.48,218.33 470.97,218.92 476.00,216.00 Z
           M 473.00,227.00
           C 473.00,227.00 465.00,228.00 465.00,228.00
             465.00,228.00 473.00,227.00 473.00,227.00 Z
           M 476.00,232.00
           C 476.00,232.00 469.00,232.00 469.00,232.00
             469.00,232.00 469.00,234.00 469.00,234.00
             469.00,234.00 476.00,234.00 476.00,234.00
             476.00,234.00 476.00,232.00 476.00,232.00 Z
           M 478.00,238.00
           C 478.00,238.00 471.00,237.00 471.00,237.00
             472.64,240.95 474.99,240.21 478.00,238.00 Z
           M 271.00,238.00
           C 257.73,238.65 250.10,248.95 251.19,262.00
             251.19,262.00 253.49,272.00 253.49,272.00
             253.49,272.00 254.14,277.94 254.14,277.94
             254.46,279.67 255.02,281.37 257.13,281.37
             262.73,281.37 263.19,271.72 267.34,268.78
             271.72,265.66 279.30,271.84 279.19,262.00
             279.19,262.00 279.19,259.00 279.19,259.00
             272.24,260.64 265.13,260.64 261.01,253.96
             259.88,252.12 259.28,250.17 259.75,248.02
             261.26,241.21 267.29,243.85 272.00,242.00
             272.00,242.00 271.00,238.00 271.00,238.00 Z
           M 477.00,243.00
           C 477.00,243.00 475.00,243.00 475.00,243.00
             475.00,243.00 474.00,246.00 474.00,246.00
             474.00,246.00 477.00,243.00 477.00,243.00 Z
           M 486.00,249.00
           C 484.24,253.44 485.00,264.72 485.00,270.00
             485.00,270.00 485.00,294.00 485.00,294.00
             485.00,294.00 484.00,311.00 484.00,311.00
             484.00,311.00 484.00,346.00 484.00,346.00
             484.00,346.00 483.00,363.00 483.00,363.00
             483.00,363.00 483.00,416.00 483.00,416.00
             483.00,416.00 483.00,464.00 483.00,464.00
             482.98,467.32 483.04,472.97 480.44,475.40
             477.28,478.36 471.50,475.82 466.00,478.00
             466.00,478.00 484.00,478.00 484.00,478.00
             484.00,478.00 484.00,370.00 484.00,370.00
             484.00,370.00 485.00,355.00 485.00,355.00
             485.00,355.00 485.00,332.00 485.00,332.00
             485.00,332.00 486.00,315.00 486.00,315.00
             486.00,315.00 486.00,286.00 486.00,286.00
             486.00,286.00 486.97,272.00 486.97,272.00
             486.97,272.00 486.00,258.00 486.00,258.00
             486.00,258.00 486.00,249.00 486.00,249.00 Z
           M 299.00,250.00
           C 299.00,250.00 301.00,250.00 301.00,250.00
             306.13,261.64 306.01,264.96 320.00,265.00
             319.13,266.12 319.20,266.45 317.71,267.13
             314.36,268.65 300.58,268.27 297.29,266.49
             295.73,265.65 295.85,265.28 295.00,264.00
             295.00,264.00 300.00,263.00 300.00,263.00
             300.00,263.00 299.00,250.00 299.00,250.00 Z
           M 339.00,264.00
           C 339.00,264.00 342.00,267.00 342.00,267.00
             342.00,267.00 339.00,264.00 339.00,264.00 Z
           M 334.00,272.00
           C 338.04,271.46 338.31,272.10 339.00,276.00
             335.47,275.39 335.34,275.33 334.00,272.00 Z
           M 329.00,277.00
           C 334.32,277.43 335.57,278.68 336.00,284.00
             331.18,282.77 330.09,281.89 329.00,277.00 Z
           M 324.00,284.00
           C 327.60,285.85 327.83,286.13 329.00,290.00
             325.11,288.67 325.04,287.87 324.00,284.00 Z
           M 140.00,309.00
           C 143.16,308.58 143.16,308.35 145.00,311.00
             145.00,311.00 140.00,309.00 140.00,309.00 Z
           M 346.00,325.00
           C 346.00,325.00 350.00,325.00 350.00,325.00
             350.00,325.00 350.00,328.00 350.00,328.00
             350.00,328.00 346.00,328.00 346.00,328.00
             346.00,328.00 346.00,325.00 346.00,325.00 Z
           M 193.00,328.00
           C 189.40,328.49 185.99,328.84 183.11,331.31
             177.72,335.92 176.58,345.66 182.22,350.57
             186.29,354.11 191.91,352.65 192.42,348.88
             193.14,343.65 184.43,341.14 186.40,336.18
             188.32,331.37 194.48,336.77 193.00,328.00 Z
           M 341.00,336.00
           C 343.06,330.14 346.30,332.43 348.00,337.00
             348.00,337.00 341.00,336.00 341.00,336.00 Z
           M 48.00,442.00
           C 55.44,437.67 57.90,423.07 58.00,415.00
             58.19,398.04 58.20,384.25 45.91,371.00
             43.70,368.61 40.04,364.70 37.00,363.60
             27.35,360.11 24.94,370.97 26.23,378.00
             26.75,380.88 28.61,384.34 32.00,384.26
             35.91,384.16 39.75,378.77 33.00,373.00
             33.00,373.00 31.00,375.00 31.00,375.00
             31.00,375.00 30.00,375.00 30.00,375.00
             31.57,367.86 36.14,367.76 40.61,373.06
             43.70,376.72 44.16,380.39 43.96,385.00
             43.50,395.53 33.54,407.47 33.04,420.00
             32.88,424.04 33.30,428.46 35.97,431.72
             38.86,435.26 43.56,434.79 45.91,430.87
             47.93,427.22 46.53,421.00 45.91,417.00
             45.91,417.00 39.00,420.00 39.00,420.00
             40.62,410.12 49.06,412.26 51.48,420.00
             53.55,426.61 50.11,435.67 48.00,442.00 Z
           M 477.00,385.00
           C 477.00,385.00 476.00,385.00 476.00,385.00
             476.00,385.00 477.00,386.00 477.00,386.00
             477.00,386.00 477.00,385.00 477.00,385.00 Z
           M 215.00,388.00
           C 215.00,388.00 217.00,388.00 217.00,388.00
             217.95,392.55 217.32,393.40 213.00,395.00
             213.00,395.00 215.00,388.00 215.00,388.00 Z
           M 253.00,394.00
           C 253.69,389.86 253.96,389.29 258.00,388.00
             256.49,391.60 256.47,392.10 253.00,394.00 Z
           M 34.00,390.00
           C 34.00,390.00 29.00,391.00 29.00,391.00
             29.00,391.00 34.00,390.00 34.00,390.00 Z
           M 285.00,392.00
           C 285.00,392.00 284.00,392.00 284.00,392.00
             284.00,392.00 285.00,393.00 285.00,393.00
             285.00,393.00 285.00,392.00 285.00,392.00 Z
           M 235.00,400.00
           C 233.99,396.72 230.72,391.86 226.60,394.03
             225.37,394.68 222.99,397.80 222.00,399.00
             222.00,399.00 235.00,400.00 235.00,400.00 Z
           M 35.00,395.00
           C 35.00,395.00 27.00,395.00 27.00,395.00
             27.00,395.00 27.00,397.00 27.00,397.00
             27.00,397.00 35.00,397.00 35.00,397.00
             35.00,397.00 35.00,395.00 35.00,395.00 Z
           M 475.00,397.00
           C 475.00,397.00 469.00,399.00 469.00,399.00
             469.00,399.00 475.00,399.00 475.00,399.00
             475.00,399.00 475.00,397.00 475.00,397.00 Z
           M 259.00,400.00
           C 259.00,400.00 240.00,398.00 240.00,398.00
             240.00,398.13 239.44,399.83 240.71,400.98
             243.55,403.56 255.97,401.96 259.00,400.00 Z
           M 33.00,401.00
           C 33.00,401.00 27.00,401.00 27.00,401.00
             27.00,401.00 27.00,403.00 27.00,403.00
             27.00,403.00 33.00,403.00 33.00,403.00
             33.00,403.00 33.00,401.00 33.00,401.00 Z
           M 70.00,402.00
           C 70.00,402.00 65.00,403.00 65.00,403.00
             65.00,403.00 70.00,402.00 70.00,402.00 Z
           M 475.00,403.00
           C 475.00,403.00 466.00,403.00 466.00,403.00
             466.00,403.00 466.00,405.00 466.00,405.00
             466.00,405.00 475.00,405.00 475.00,405.00
             475.00,405.00 475.00,403.00 475.00,403.00 Z
           M 71.00,413.00
           C 71.00,413.00 65.00,416.00 65.00,416.00
             65.00,416.00 71.00,413.00 71.00,413.00 Z
           M 80.00,414.00
           C 80.00,414.00 79.00,414.00 79.00,414.00
             79.00,414.00 80.00,415.00 80.00,415.00
             80.00,415.00 80.00,414.00 80.00,414.00 Z
           M 73.04,419.47
           C 63.57,423.40 67.78,433.97 74.91,432.48
             80.40,431.33 84.70,418.92 73.04,419.47 Z
           M 88.00,420.00
           C 88.00,420.00 87.00,420.00 87.00,420.00
             87.00,420.00 88.00,421.00 88.00,421.00
             88.00,421.00 88.00,420.00 88.00,420.00 Z
           M 93.00,425.00
           C 93.00,425.00 88.00,428.00 88.00,428.00
             88.00,428.00 93.00,425.00 93.00,425.00 Z
           M 28.00,431.00
           C 27.48,433.33 27.88,433.17 30.00,434.00
             30.00,434.00 30.00,432.00 30.00,432.00
             30.00,432.00 28.00,431.00 28.00,431.00 Z
           M 101.00,432.00
           C 93.96,431.68 90.34,429.49 84.00,434.00
             89.63,434.00 95.97,434.92 101.00,432.00 Z
           M 381.00,434.00
           C 381.00,434.00 375.00,433.00 375.00,433.00
             375.00,433.00 375.00,435.00 375.00,435.00
             375.00,435.00 381.00,434.00 381.00,434.00 Z
           M 36.00,437.00
           C 36.00,437.00 29.00,438.00 29.00,438.00
             29.00,438.00 36.00,439.00 36.00,439.00
             36.00,439.00 36.00,437.00 36.00,437.00 Z
           M 72.00,438.00
           C 72.00,438.00 61.00,438.00 61.00,438.00
             61.00,438.00 61.00,440.00 61.00,440.00
             65.44,440.00 68.31,440.72 72.00,438.00 Z
           M 135.00,469.00
           C 134.80,466.86 134.72,464.26 133.15,462.60
             130.57,459.88 123.93,461.10 122.66,465.11
             121.38,469.11 125.55,472.64 129.00,473.57
             134.92,475.17 149.70,471.84 143.43,459.01
             140.78,453.59 134.19,450.32 129.00,447.76
             113.84,440.28 91.17,438.35 75.00,443.35
             68.61,445.32 60.86,447.15 57.00,453.00
             64.00,452.27 73.38,447.09 80.00,448.55
             82.24,449.04 87.61,451.41 85.85,454.56
             84.57,456.83 81.53,454.11 79.83,453.59
             74.59,451.98 67.27,456.82 68.84,461.81
             70.66,467.56 79.72,465.89 84.00,464.87
             97.95,461.53 111.41,453.40 126.00,454.84
             135.44,455.77 145.17,463.56 135.00,469.00 Z
           M 398.00,440.00
           C 398.00,440.00 397.00,440.00 397.00,440.00
             397.00,440.00 398.00,441.00 398.00,441.00
             398.00,441.00 398.00,440.00 398.00,440.00 Z
           M 403.00,441.00
           C 403.00,441.00 398.00,442.00 398.00,442.00
             398.00,442.00 403.00,441.00 403.00,441.00 Z
           M 430.00,441.00
           C 430.00,441.00 407.00,442.00 407.00,442.00
             414.56,442.00 423.41,444.36 430.00,441.00 Z
           M 29.00,443.00
           C 22.49,451.52 25.55,463.17 26.00,473.00
             34.23,473.00 43.61,474.48 51.00,471.00
             51.00,471.00 44.00,463.00 44.00,463.00
             56.45,456.22 51.31,448.29 46.91,447.36
             42.39,446.40 37.24,450.37 34.00,453.00
             34.00,453.00 29.00,443.00 29.00,443.00 Z
           M 475.00,446.00
           C 475.00,446.00 469.00,446.00 469.00,446.00
             469.00,446.00 469.00,448.00 469.00,448.00
             469.00,448.00 475.00,446.00 475.00,446.00 Z
           M 31.27,456.04
           C 40.30,453.19 42.23,464.93 36.85,467.79
             30.75,471.03 24.13,462.85 31.27,456.04 Z
           M 345.00,459.00
           C 342.26,454.91 338.84,455.77 335.00,458.00
             335.00,458.00 345.00,459.00 345.00,459.00 Z
           M 384.00,457.00
           C 384.00,457.00 383.00,457.00 383.00,457.00
             383.00,457.00 384.00,458.00 384.00,458.00
             384.00,458.00 384.00,457.00 384.00,457.00 Z
           M 63.00,461.00
           C 59.34,461.05 57.52,460.34 56.00,464.00
             56.00,464.00 63.00,463.00 63.00,463.00
             63.00,463.00 63.00,461.00 63.00,461.00 Z
           M 115.00,462.00
           C 115.00,462.00 107.00,463.00 107.00,463.00
             110.78,463.83 111.66,464.12 115.00,462.00 Z
           M 329.00,462.00
           C 329.00,462.00 323.00,463.00 323.00,463.00
             323.00,463.00 329.00,462.00 329.00,462.00 Z
           M 346.00,463.00
           C 346.00,463.00 340.00,463.00 340.00,463.00
             340.00,463.00 346.00,463.00 346.00,463.00 Z
           M 393.00,463.00
           C 393.00,463.00 389.00,463.00 389.00,463.00
             389.00,463.00 389.00,468.00 389.00,468.00
             389.00,468.00 394.00,468.00 394.00,468.00
             394.00,468.00 393.00,463.00 393.00,463.00 Z
           M 66.00,469.00
           C 64.11,466.89 63.61,467.04 61.00,468.00
             61.00,468.00 66.00,469.00 66.00,469.00 Z
           M 334.00,467.00
           C 334.00,467.00 304.00,468.00 304.00,468.00
             300.54,473.99 293.95,470.64 288.00,473.00
             288.00,473.00 311.00,472.00 311.00,472.00
             311.00,472.00 306.00,471.00 306.00,471.00
             317.73,466.11 327.66,469.52 334.00,467.00 Z
           M 339.00,468.00
           C 339.00,468.00 334.00,469.00 334.00,469.00
             334.00,469.00 339.00,468.00 339.00,468.00 Z
           M 89.00,472.00
           C 82.62,472.00 63.87,471.07 59.00,473.00
             65.38,473.00 84.13,473.93 89.00,472.00 Z
           M 118.00,472.00
           C 118.00,472.00 106.00,473.00 106.00,473.00
             106.00,473.00 118.00,474.00 118.00,474.00
             118.00,474.00 118.00,472.00 118.00,472.00 Z
           M 360.00,473.00
           C 356.00,472.12 346.79,472.50 343.00,474.00
             343.00,474.00 360.00,473.00 360.00,473.00 Z
           M 398.00,473.00
           C 390.99,472.68 381.28,470.35 375.00,474.00
             375.00,474.00 398.00,473.00 398.00,473.00 Z
           M 466.00,478.00
           C 466.00,478.00 441.00,478.00 441.00,478.00
             441.00,478.00 427.00,479.00 427.00,479.00
             427.00,479.00 452.00,479.00 452.00,479.00
             452.00,479.00 466.00,478.00 466.00,478.00 Z" />
</svg>
