<?xml version="1.0" encoding="UTF-8" standalone="no"?>
<!DOCTYPE svg PUBLIC "-//W3C//DTD SVG 20010904//EN"
              "http://www.w3.org/TR/2001/REC-SVG-20010904/DTD/svg10.dtd">

<svg xmlns="http://www.w3.org/2000/svg"
     width="197.178mm" height="176.367mm"
     viewBox="0 0 559 500">
  <path id="LaSombra"
        fill="none" stroke="black" stroke-width="1"
        d="M 269.01,0.00
           C 269.01,0.00 286.00,1.00 286.00,1.00
             286.00,6.66 284.79,19.50 288.65,23.57
             293.08,28.25 299.64,23.01 305.69,27.28
             309.16,29.72 308.00,39.00 308.00,43.00
             295.81,43.00 288.66,43.52 289.01,58.00
             289.43,75.03 302.19,67.97 313.00,77.21
             324.63,87.15 326.00,98.74 326.00,113.00
             343.92,113.00 376.92,120.61 395.00,125.13
             413.02,129.63 459.89,142.16 475.00,149.32
             486.79,154.91 503.95,166.64 512.83,176.04
             538.22,202.89 552.94,242.06 553.00,279.00
             553.00,279.00 553.00,292.00 553.00,292.00
             553.00,294.57 552.48,301.10 553.00,303.00
             554.12,306.99 560.47,313.37 558.10,320.00
             554.58,329.82 543.68,328.49 537.00,333.43
             527.79,340.23 515.60,358.54 510.37,369.00
             510.37,369.00 501.00,391.00 501.00,391.00
             500.18,393.04 498.02,397.34 498.51,399.42
             498.92,401.17 502.36,405.31 503.57,407.00
             508.01,413.20 516.11,426.14 513.11,434.00
             506.68,450.83 485.92,432.02 480.65,448.00
             480.65,448.00 479.49,454.00 479.49,454.00
             478.36,459.29 476.48,463.31 481.15,467.73
             485.31,471.66 493.06,471.55 496.83,479.00
             500.59,486.46 493.97,495.50 487.00,498.03
             483.53,499.29 478.72,499.04 475.00,499.00
             465.32,498.88 456.35,494.23 447.00,491.89
             447.00,491.89 401.00,483.27 401.00,483.27
             401.00,483.27 312.00,473.83 312.00,473.83
             312.00,473.83 290.00,471.83 290.00,471.83
             290.00,471.83 273.00,470.04 273.00,470.04
             273.00,470.04 251.00,471.00 251.00,471.00
             235.54,471.08 202.12,476.06 186.00,478.75
             186.00,478.75 132.00,489.88 132.00,489.88
             132.00,489.88 103.00,496.74 103.00,496.74
             93.13,498.58 76.56,500.69 68.04,494.35
             63.40,490.90 60.35,484.39 63.89,479.09
             68.84,471.69 77.09,473.93 81.26,467.89
             83.46,464.71 83.10,460.58 82.33,457.00
             80.88,450.20 77.37,443.09 70.00,441.39
             64.44,440.11 47.36,443.61 46.30,431.00
             45.70,423.83 52.52,413.53 56.63,408.00
             60.27,403.10 63.90,400.43 62.26,394.00
             57.18,374.02 38.54,351.13 24.00,337.02
             14.38,327.68 2.98,327.08 0.89,318.00
             -0.58,311.55 5.48,308.21 6.89,304.91
             7.52,303.19 7.06,295.34 6.89,293.00
             6.89,293.00 6.01,283.00 6.01,283.00
             5.88,277.30 6.34,276.21 7.00,271.00
             7.00,271.00 7.00,263.00 7.00,263.00
             8.04,253.92 9.93,244.76 12.43,236.00
             24.40,194.05 54.59,161.36 94.00,143.31
             117.00,132.78 145.09,126.77 170.00,122.59
             185.27,120.02 213.10,116.00 228.00,116.00
             228.67,101.33 232.81,83.40 246.00,74.97
             253.43,70.22 262.34,73.06 267.26,65.90
             271.04,60.40 269.34,48.48 262.98,45.17
             260.81,44.05 249.96,43.14 247.00,43.00
             247.00,43.00 245.00,28.00 245.00,28.00
             245.00,28.00 258.00,26.00 258.00,26.00
             258.00,26.00 265.87,26.00 265.87,26.00
             265.87,26.00 269.01,21.96 269.01,21.96
             269.01,21.96 269.01,0.00 269.01,0.00 Z
           M 258.00,330.00
           C 252.86,330.66 248.94,331.49 246.02,325.98
             244.41,322.94 245.69,320.59 242.69,317.96
             240.18,315.77 229.28,312.00 230.74,304.00
             231.73,298.61 237.39,294.43 238.89,291.00
             240.38,287.62 238.36,285.47 241.51,281.02
             246.85,273.47 248.98,278.38 249.00,267.00
             249.00,267.00 249.00,239.00 249.00,239.00
             249.00,239.00 250.00,222.00 250.00,222.00
             250.00,222.00 250.00,177.00 250.00,177.00
             250.00,177.00 251.00,159.00 251.00,159.00
             250.96,157.05 251.10,154.37 249.40,153.02
             247.81,151.77 243.99,152.00 242.00,152.00
             242.00,152.00 232.00,152.00 232.00,152.00
             225.32,152.08 218.04,153.95 212.00,156.78
             205.87,159.66 203.09,161.56 198.00,166.05
             194.78,168.89 191.37,171.58 188.76,175.01
             177.54,189.73 175.74,210.18 174.96,228.00
             174.96,228.00 174.04,240.00 174.04,240.00
             174.04,240.00 175.00,257.00 175.00,257.00
             175.04,260.35 176.32,274.25 177.70,276.71
             179.87,280.57 184.07,277.54 190.98,281.41
             198.29,285.51 196.56,290.75 201.14,294.57
             205.79,298.44 208.72,294.66 212.72,298.33
             216.98,302.22 216.65,309.55 213.35,313.90
             211.56,316.26 209.44,317.46 207.00,319.00
             209.62,336.10 188.41,327.72 193.14,347.00
             193.63,349.00 194.11,350.27 195.43,351.90
             203.73,362.16 227.07,359.14 239.00,359.00
             244.78,358.93 249.59,358.32 253.79,353.89
             260.90,346.39 258.72,338.95 258.00,330.00 Z
           M 382.00,279.00
           C 383.17,272.47 384.92,259.42 385.00,253.00
             385.27,229.95 386.05,197.95 373.04,178.00
             370.18,173.62 364.83,169.08 360.83,165.55
             355.91,161.21 353.08,159.03 347.00,156.43
             333.61,150.70 323.08,152.00 309.00,152.00
             309.00,152.00 309.00,181.00 309.00,181.00
             309.00,181.00 310.00,198.00 310.00,198.00
             310.00,198.00 310.00,244.00 310.00,244.00
             310.00,244.00 311.00,259.00 311.00,259.00
             311.04,262.43 310.40,271.92 311.99,274.49
             313.38,276.71 316.93,278.31 318.83,282.01
             320.50,285.27 319.46,287.75 321.01,291.00
             323.11,295.40 328.65,299.37 329.02,304.58
             329.54,311.97 319.40,316.14 317.31,317.96
             314.38,320.53 315.46,322.93 313.83,325.96
             310.93,331.30 307.07,330.62 302.00,330.00
             299.60,339.88 300.15,353.06 311.00,357.52
             315.98,359.56 322.61,358.99 328.00,359.00
             328.00,359.00 340.00,359.82 340.00,359.82
             346.76,359.82 358.89,357.80 363.68,352.67
             367.94,347.91 368.39,338.91 363.68,334.22
             357.67,328.01 350.98,331.16 353.00,319.00
             341.13,312.61 342.55,301.33 347.34,297.75
             351.08,294.96 354.19,298.27 358.86,294.43
             362.41,291.49 361.55,288.73 364.43,285.04
             369.04,279.15 375.20,279.02 382.00,279.00 Z
           M 143.00,169.00
           C 133.92,169.44 119.21,175.59 111.00,179.76
             86.53,192.16 67.06,211.06 59.43,238.00
             56.26,249.18 55.87,258.53 56.00,270.00
             56.06,274.64 58.29,292.00 60.01,295.78
             61.81,299.74 66.08,298.95 70.96,302.64
             75.18,305.83 75.21,308.58 78.27,311.04
             82.01,314.04 91.27,316.55 95.26,323.01
             99.05,329.17 92.80,331.51 91.80,336.00
             91.10,339.17 93.74,341.98 92.90,347.00
             91.92,352.86 87.65,355.04 87.19,360.00
             86.97,362.38 87.78,364.90 88.84,367.00
             93.99,377.16 104.35,376.11 114.00,376.00
             121.83,375.90 133.08,374.55 134.62,365.00
             135.30,360.80 133.07,355.10 132.00,350.97
             129.59,351.31 126.35,352.11 124.13,350.97
             120.12,348.83 120.68,343.99 119.02,341.61
             117.43,339.32 114.42,338.68 111.48,333.96
             105.68,324.65 107.50,312.45 120.00,311.00
             119.31,307.95 117.84,304.03 118.46,301.00
             119.29,297.00 121.87,295.99 121.66,291.00
             121.66,291.00 120.28,282.00 120.28,282.00
             120.28,282.00 118.91,264.00 118.91,264.00
             118.91,264.00 118.34,258.00 118.34,258.00
             118.34,258.00 118.96,251.00 118.96,251.00
             120.38,218.19 127.78,197.81 143.00,169.00 Z
           M 469.00,335.00
           C 467.74,333.99 466.47,333.08 465.43,331.82
             456.59,321.02 479.22,312.93 481.59,311.01
             484.36,308.76 484.92,305.13 490.00,301.70
             495.28,298.14 498.54,300.48 500.38,293.00
             508.54,259.93 502.57,224.87 477.83,200.17
             469.24,191.59 454.21,181.81 443.00,177.00
             435.10,173.62 425.58,169.72 417.00,169.00
             417.00,169.00 422.68,180.00 422.68,180.00
             427.29,189.69 431.21,199.71 434.28,210.00
             443.11,239.64 442.65,264.96 437.00,295.00
             443.76,300.79 441.95,303.57 439.00,311.00
             457.00,312.06 453.23,336.15 439.00,341.00
             438.90,350.81 437.49,352.22 428.00,351.00
             425.81,356.69 423.16,364.21 427.01,369.81
             429.45,373.37 433.01,374.35 437.00,375.08
             445.31,376.58 460.35,377.69 466.95,371.78
             470.39,368.69 473.77,362.72 472.03,358.00
             470.95,355.07 467.46,351.70 466.57,347.00
             465.79,342.88 467.95,338.91 469.00,335.00 Z" />
</svg>
