<?xml version="1.0" encoding="UTF-8" standalone="no"?>
<!DOCTYPE svg PUBLIC "-//W3C//DTD SVG 20010904//EN"
              "http://www.w3.org/TR/2001/REC-SVG-20010904/DTD/svg10.dtd">

<svg xmlns="http://www.w3.org/2000/svg"
     width="6.94444in" height="7.44444in"
     viewBox="0 0 500 536">
  <path id="Malkavian"
        fill="none" stroke="black" stroke-width="1"
        d="M 267.00,10.00
           C 267.00,10.00 263.04,33.00 263.04,33.00
             262.92,36.04 263.12,39.06 263.93,42.00
             269.16,60.99 288.77,53.70 301.00,47.22
             309.41,42.76 310.33,40.58 317.00,35.78
             317.00,35.78 338.00,23.31 338.00,23.31
             338.00,23.31 362.00,12.81 362.00,12.81
             376.91,7.05 409.30,-0.49 425.00,0.51
             448.87,2.03 473.77,8.27 488.28,29.00
             513.91,65.62 491.56,108.37 474.25,143.00
             474.25,143.00 462.75,166.00 462.75,166.00
             454.24,183.02 448.77,193.14 449.00,213.00
             449.03,215.43 449.06,217.64 449.80,220.00
             455.33,237.63 477.27,225.10 487.00,219.19
             490.00,217.37 491.67,216.27 495.00,215.00
             488.64,230.91 486.09,230.26 475.13,243.00
             475.13,243.00 445.13,278.00 445.13,278.00
             445.13,278.00 426.57,301.00 426.57,301.00
             426.57,301.00 388.09,344.00 388.09,344.00
             379.30,353.43 361.24,372.98 352.00,380.68
             352.00,380.68 332.00,395.00 332.00,395.00
             313.55,407.35 290.84,420.26 268.00,420.00
             259.16,419.90 256.68,417.73 249.00,416.12
             226.11,411.30 213.06,407.45 196.01,390.00
             191.54,385.42 187.74,380.48 184.43,375.00
             183.23,373.01 181.51,370.47 182.29,368.04
             183.71,363.68 195.74,358.17 200.00,360.06
             202.78,361.30 210.75,369.82 214.00,372.56
             227.55,384.00 242.45,395.56 261.00,395.99
             278.21,396.38 284.73,390.23 299.00,383.86
             310.41,378.76 323.64,372.10 332.96,363.70
             336.84,360.21 337.94,357.69 341.18,354.00
             341.18,354.00 352.00,343.00 352.00,343.00
             369.30,325.70 385.96,308.01 401.39,289.00
             412.07,275.83 427.46,254.88 433.00,239.00
             433.00,239.00 429.00,237.00 429.00,237.00
             424.64,248.81 405.02,272.74 396.41,283.00
             375.61,307.78 342.99,342.88 317.00,361.42
             302.72,371.61 280.88,382.79 263.00,383.00
             239.90,383.26 213.13,365.68 200.52,347.00
             197.85,343.05 194.20,336.42 192.46,332.00
             191.01,328.29 190.59,324.46 187.61,321.53
             182.99,316.99 174.32,317.13 168.00,315.00
             158.75,311.88 148.31,305.76 140.00,300.58
             134.58,297.19 126.73,292.11 126.49,285.00
             126.14,275.05 138.59,274.41 146.44,264.83
             149.95,260.55 149.55,256.64 151.83,252.00
             154.00,247.61 164.06,234.76 167.61,231.39
             171.03,228.14 177.67,225.61 182.00,223.13
             188.72,219.29 197.68,212.70 202.83,207.00
             205.25,204.31 208.26,200.47 209.35,197.00
             210.42,193.60 209.52,191.68 211.84,187.00
             215.57,179.47 223.39,172.90 230.00,167.90
             233.90,164.95 240.78,159.23 245.89,162.03
             252.86,165.84 249.33,177.99 249.51,181.00
             249.69,184.10 251.55,187.11 255.02,186.88
             258.18,186.68 261.66,183.21 264.00,181.28
             268.36,177.70 274.08,174.11 279.00,171.28
             281.02,170.12 284.67,167.72 287.00,168.01
             290.35,168.43 299.50,178.58 303.00,181.38
             304.80,182.82 307.42,185.17 309.91,184.55
             312.00,184.03 319.04,175.98 320.83,174.00
             320.83,174.00 346.00,146.00 346.00,146.00
             348.23,143.56 354.26,135.58 357.17,135.15
             360.54,134.66 364.25,138.73 366.19,141.04
             370.13,145.71 377.62,159.82 383.00,160.96
             385.98,161.60 397.52,157.77 401.00,156.66
             401.00,156.66 447.00,139.00 447.00,139.00
             442.08,160.57 420.75,189.89 416.63,200.00
             411.29,213.08 411.78,224.25 424.99,232.00
             418.20,219.99 418.69,208.27 424.99,196.00
             424.99,196.00 434.72,180.00 434.72,180.00
             444.96,162.01 469.09,115.43 474.97,97.00
             478.35,86.42 479.47,79.94 480.71,69.00
             481.21,64.67 480.59,62.21 480.00,58.00
             476.45,32.89 455.26,19.04 431.00,19.00
             431.00,19.00 420.00,19.00 420.00,19.00
             412.98,19.09 401.00,21.83 394.00,23.63
             384.72,26.01 379.08,26.54 370.00,30.43
             351.19,38.47 317.96,59.28 299.00,70.28
             299.00,70.28 287.00,78.00 287.00,78.00
             275.55,83.73 272.07,78.54 263.00,72.81
             259.67,70.71 253.97,65.92 250.00,67.81
             248.03,68.75 236.25,79.79 234.00,82.00
             234.00,82.00 207.00,108.00 207.00,108.00
             179.12,135.88 152.24,165.08 130.33,198.00
             118.77,215.38 107.76,235.64 108.00,257.00
             108.19,273.38 116.71,287.70 128.00,299.00
             132.16,303.15 134.23,304.89 139.00,308.28
             141.03,309.72 144.52,311.67 145.22,314.18
             145.87,316.52 144.19,319.91 143.22,322.00
             143.22,322.00 136.00,337.00 136.00,337.00
             125.79,330.53 113.77,319.32 106.08,310.00
             99.94,302.54 93.29,292.95 89.60,284.00
             85.34,273.65 81.80,260.27 82.51,249.00
             83.10,239.80 84.06,231.81 87.08,223.00
             96.40,195.83 126.73,161.71 145.85,140.00
             145.85,140.00 189.28,92.17 189.28,92.17
             189.28,92.17 200.00,83.54 200.00,83.54
             200.00,83.54 214.00,71.00 214.00,71.00
             226.06,58.99 237.16,46.28 247.80,33.00
             252.43,27.22 261.96,13.94 267.00,10.00 Z
           M 255.00,75.00
           C 258.25,77.59 261.13,79.88 265.00,81.53
             284.67,89.95 300.95,78.51 318.00,70.26
             318.00,70.26 345.00,56.55 345.00,56.55
             345.00,56.55 359.00,47.03 359.00,47.03
             359.00,47.03 371.00,41.72 371.00,41.72
             390.37,33.37 409.68,26.75 431.00,27.00
             451.40,27.24 473.73,43.30 474.00,65.00
             474.15,77.94 473.85,76.12 470.20,88.00
             468.78,92.65 469.03,93.18 466.74,98.00
             458.12,116.12 454.19,112.75 450.00,135.00
             436.02,136.85 422.37,140.21 409.00,144.67
             405.93,145.69 391.87,151.13 390.00,150.87
             387.01,150.46 384.14,147.07 382.00,145.09
             382.00,145.09 374.00,137.96 374.00,137.96
             369.02,133.20 362.64,124.67 355.00,125.42
             347.09,126.19 340.78,134.91 336.79,141.00
             331.21,149.50 326.99,155.45 318.00,160.61
             314.46,162.65 310.29,166.43 306.01,165.53
             301.73,164.62 296.55,156.89 288.00,157.50
             279.38,158.12 275.90,169.62 264.00,166.18
             258.73,164.66 253.88,158.81 250.00,155.00
             248.02,153.07 245.04,149.61 242.00,149.90
             239.87,150.10 236.72,152.82 235.00,154.12
             231.34,156.88 224.39,162.36 220.00,163.27
             215.91,164.12 208.34,160.59 204.00,159.48
             204.00,159.48 195.00,157.64 195.00,157.64
             189.34,157.08 182.42,157.44 182.15,157.64
             181.34,157.27 180.62,157.10 180.13,156.36
             178.81,154.37 181.03,151.47 182.23,150.00
             182.23,150.00 195.72,136.00 195.72,136.00
             195.72,136.00 217.96,113.00 217.96,113.00
             217.96,113.00 236.00,94.00 236.00,94.00
             242.33,87.64 247.66,80.26 255.00,75.00 Z
           M 173.00,164.40
           C 177.77,164.08 182.14,166.61 187.00,166.91
             193.01,167.28 197.12,165.17 199.96,165.89
             202.06,166.42 203.53,168.00 204.22,170.02
             205.92,175.01 200.38,180.56 199.63,186.00
             198.88,191.49 203.54,194.31 197.77,200.96
             192.49,207.05 185.77,208.16 179.00,211.32
             171.69,214.74 159.69,223.05 154.44,229.04
             151.98,231.84 149.24,235.31 148.39,239.00
             147.61,242.41 148.55,246.19 146.98,248.73
             144.85,252.16 140.25,251.73 135.51,257.10
             132.62,260.39 128.92,267.71 124.01,267.92
             117.29,268.20 115.80,254.80 116.09,250.00
             116.97,235.78 131.54,206.89 140.67,196.09
             140.67,196.09 155.00,182.00 155.00,182.00
             159.56,177.44 168.28,166.93 173.00,164.40 Z
           M 128.00,364.00
           C 128.00,364.00 141.60,342.00 141.60,342.00
             143.67,338.56 152.01,323.53 154.39,322.02
             156.21,320.87 158.91,321.01 161.00,321.00
             170.57,320.94 181.90,319.53 186.48,330.00
             188.41,334.41 187.66,335.85 188.47,340.00
             189.02,342.85 191.49,347.60 190.71,349.83
             189.99,351.87 186.71,354.08 185.00,355.37
             185.00,355.37 170.00,367.17 170.00,367.17
             165.76,370.98 162.62,374.61 159.00,378.94
             157.50,380.74 155.77,382.91 153.09,382.26
             148.79,381.20 148.42,373.67 144.61,370.60
             142.15,368.61 138.87,369.23 136.00,368.35
             133.14,367.49 130.49,365.62 128.00,364.00 Z
           M 118.00,372.46
           C 128.48,371.11 141.16,377.06 145.47,387.00
             147.27,391.15 147.05,395.57 147.00,400.00
             146.94,404.61 145.21,414.85 139.90,416.27
             137.62,416.88 135.39,415.52 134.16,413.66
             132.08,410.53 133.47,406.03 125.96,399.30
             118.17,392.31 105.23,387.78 103.43,386.19
             99.23,382.46 102.51,379.31 106.02,377.07
             107.60,376.06 109.26,375.18 111.00,374.47
             113.32,373.53 115.57,373.00 118.00,372.46 Z
           M 97.00,392.00
           C 109.58,396.20 125.30,404.79 128.00,419.00
             119.76,422.68 108.48,430.77 102.00,437.04
             99.31,439.65 93.71,447.96 90.90,448.46
             85.96,449.35 76.34,437.66 73.06,434.00
             71.14,431.86 69.37,430.05 70.46,427.00
             72.95,420.06 84.79,414.48 89.70,409.68
             96.50,403.01 94.82,399.59 97.00,392.00 Z
           M 61.00,433.69
           C 67.75,433.34 73.24,440.58 78.00,444.72
             86.12,451.78 90.25,452.71 89.99,464.00
             89.54,483.24 68.35,515.40 47.00,513.90
             38.73,513.33 32.73,507.98 27.58,502.00
             17.27,490.01 13.88,482.83 17.42,467.00
             18.37,462.78 19.97,457.72 22.35,454.10
             25.02,450.05 29.82,448.34 34.00,446.25
             34.00,446.25 61.00,433.69 61.00,433.69 Z
           M 38.00,520.00
           C 35.26,524.69 33.43,526.83 29.00,530.07
             24.65,533.26 18.55,536.42 13.00,535.80
             3.47,534.73 -1.40,522.41 0.76,514.00
             1.75,510.13 7.03,498.02 12.04,499.34
             14.42,499.96 19.05,505.10 21.00,506.96
             26.05,511.78 32.21,516.10 38.00,520.00 Z" />
</svg>
