<?xml version="1.0" encoding="UTF-8" standalone="no"?>
<!DOCTYPE svg PUBLIC "-//W3C//DTD SVG 20010904//EN"
              "http://www.w3.org/TR/2001/REC-SVG-20010904/DTD/svg10.dtd">

<svg xmlns="http://www.w3.org/2000/svg"
     width="176.367mm" height="215.52mm"
     viewBox="0 0 500 611">
  <path id="Nosferatu"
        fill="none" stroke="black" stroke-width="1"
        d="M 150.00,0.00
           C 176.81,1.23 212.84,12.00 234.00,28.67
             252.31,43.09 279.62,77.92 303.00,96.33
             303.00,96.33 322.00,109.42 322.00,109.42
             333.09,117.43 345.06,126.59 358.00,131.31
             366.98,134.58 375.48,136.26 385.00,137.10
             385.00,137.10 394.00,137.10 394.00,137.10
             394.00,137.10 443.00,145.58 443.00,145.58
             453.71,147.51 476.10,150.36 485.00,154.81
             490.51,157.57 496.28,161.89 498.20,168.00
             502.88,182.94 487.61,200.32 478.00,210.00
             478.00,210.00 466.00,221.04 466.00,221.04
             444.31,241.78 422.36,264.56 409.32,292.00
             402.22,306.94 395.16,331.52 389.67,348.00
             387.50,354.51 382.31,369.63 379.05,375.00
             376.78,378.74 372.98,384.95 369.96,387.83
             353.44,403.51 324.06,411.80 308.42,429.04
             284.00,455.96 275.06,477.34 254.57,506.00
             230.90,539.13 218.38,551.11 187.00,576.61
             168.71,591.47 140.73,611.92 116.00,610.96
             109.67,610.71 98.35,608.30 93.10,604.79
             89.96,602.68 85.42,595.60 81.96,592.00
             75.39,585.15 67.49,579.61 59.00,575.37
             48.95,570.35 38.01,567.55 27.00,565.61
             20.80,564.52 13.62,565.22 8.04,561.77
             0.57,557.15 0.91,548.67 1.00,541.00
             1.16,527.42 5.40,521.56 10.69,510.00
             10.69,510.00 16.98,493.00 16.98,493.00
             20.26,482.42 23.95,467.01 24.00,456.00
             24.00,456.00 23.00,436.00 23.00,436.00
             22.95,401.89 22.55,367.93 25.83,334.00
             27.59,315.89 29.60,291.31 37.81,275.00
             37.81,275.00 56.31,245.00 56.31,245.00
             56.31,245.00 91.42,194.00 91.42,194.00
             91.42,194.00 106.42,175.00 106.42,175.00
             106.42,175.00 117.10,162.00 117.10,162.00
             128.25,145.99 139.99,120.35 147.20,102.00
             155.81,80.11 165.13,47.39 160.33,24.00
             157.91,12.17 155.59,10.00 150.00,0.00 Z
           M 130.00,169.00
           C 130.00,169.00 149.00,160.01 149.00,160.01
             163.88,153.82 174.19,150.80 190.00,147.80
             214.06,143.24 230.95,147.41 255.00,136.11
             264.32,131.73 275.11,123.82 280.53,115.00
             282.70,111.48 285.27,105.35 283.40,101.12
             281.43,96.89 275.06,99.02 272.10,101.12
             268.84,103.19 266.60,107.83 263.82,111.00
             258.86,116.63 253.62,120.34 247.00,123.74
             233.17,130.85 217.34,134.65 202.00,136.72
             202.00,136.72 182.00,138.81 182.00,138.81
             164.19,142.34 140.67,154.11 130.00,169.00 Z
           M 393.00,161.00
           C 374.30,169.67 367.77,199.16 367.04,218.00
             366.76,225.27 372.91,245.74 374.58,255.00
             374.58,255.00 377.87,273.00 377.87,273.00
             378.54,277.69 378.59,282.85 381.00,287.00
             386.13,267.64 380.96,262.34 378.27,245.00
             376.61,234.23 376.98,225.76 377.00,215.00
             377.02,202.66 380.83,193.84 386.25,183.00
             390.01,175.46 395.46,169.75 393.00,161.00 Z
           M 297.00,166.00
           C 290.58,167.93 289.94,171.93 284.00,175.90
             276.18,181.12 265.41,184.09 256.00,183.49
             230.99,181.90 229.51,176.73 215.00,174.28
             197.64,171.36 166.69,171.01 151.01,179.49
             146.77,181.79 137.34,191.04 133.00,194.85
             128.28,198.98 124.87,200.84 121.00,206.00
             121.00,206.00 138.00,197.86 138.00,197.86
             152.73,191.35 173.85,184.19 190.00,184.00
             199.13,183.90 206.10,184.10 215.00,186.77
             215.00,186.77 230.00,192.58 230.00,192.58
             238.41,195.74 252.04,198.89 261.00,199.00
             274.88,199.16 287.77,196.57 294.62,183.00
             297.97,176.37 298.27,173.11 297.00,166.00 Z
           M 342.00,350.00
           C 356.39,339.47 359.19,323.57 359.00,307.00
             358.77,287.37 352.27,268.94 342.57,252.00
             336.21,240.89 324.62,228.31 324.04,215.00
             323.77,208.82 324.86,205.26 328.09,200.00
             329.85,197.13 333.32,192.84 330.97,189.33
             328.00,184.88 320.53,190.74 318.04,193.10
             310.71,200.05 305.73,211.90 308.64,222.00
             310.60,228.83 316.07,233.63 320.33,239.00
             325.69,245.75 333.59,257.44 337.69,265.00
             344.84,278.19 349.17,292.95 349.00,308.00
             348.84,321.75 345.01,336.62 342.00,350.00 Z
           M 211.00,240.00
           C 205.43,240.86 199.67,243.29 194.00,242.81
             194.00,242.81 174.00,237.01 174.00,237.01
             157.90,233.51 141.95,234.13 127.00,241.61
             121.32,244.45 114.97,248.24 112.00,254.00
             125.00,254.00 133.20,256.21 145.00,261.78
             150.74,264.49 160.18,271.30 166.00,270.68
             181.79,269.00 203.19,253.38 211.00,240.00 Z
           M 275.00,272.00
           C 270.08,278.88 267.10,295.47 267.00,304.00
             266.94,309.36 267.21,318.33 269.93,322.99
             272.44,327.28 287.23,338.74 292.24,347.00
             298.68,357.61 299.12,366.46 303.00,377.00
             309.48,369.80 310.01,361.18 310.00,352.00
             309.95,320.67 285.58,302.31 275.00,272.00 Z
           M 71.00,296.00
           C 58.47,304.97 42.71,325.73 44.09,342.00
             45.06,353.45 60.02,365.31 68.20,354.89
             78.86,341.33 65.76,336.01 64.18,323.00
             62.70,310.78 67.23,306.30 71.00,296.00 Z
           M 192.00,323.00
           C 192.00,323.00 191.00,323.00 191.00,323.00
             191.00,323.00 192.00,324.00 192.00,324.00
             192.00,324.00 192.00,323.00 192.00,323.00 Z
           M 190.00,326.00
           C 190.00,326.00 161.57,361.00 161.57,361.00
             157.11,366.22 151.59,372.75 145.00,375.00
             143.56,364.09 143.37,352.77 146.00,342.00
             135.21,340.46 116.61,351.24 108.00,357.43
             96.49,365.70 86.64,376.24 78.75,388.00
             68.25,403.64 52.66,438.64 46.67,457.00
             43.45,466.86 40.60,478.73 39.07,489.00
             38.46,493.70 37.20,498.47 39.07,503.00
             39.07,503.00 51.66,464.00 51.66,464.00
             56.84,449.07 66.62,421.04 74.04,408.00
             77.08,402.66 92.47,383.96 97.09,379.00
             103.82,371.77 113.92,361.73 122.00,356.22
             124.56,354.47 130.04,351.02 133.23,352.45
             138.37,354.76 136.93,367.41 137.92,373.00
             139.87,384.03 142.98,380.80 143.00,393.00
             143.02,404.75 142.39,412.21 144.61,424.00
             145.40,428.19 146.22,433.64 149.28,436.77
             156.54,444.25 164.67,435.57 171.00,431.61
             188.80,420.50 207.13,409.19 226.00,400.00
             226.78,416.58 218.47,451.18 212.58,467.00
             212.58,467.00 202.00,493.00 202.00,493.00
             208.20,487.87 213.25,479.75 217.66,473.00
             231.89,451.20 239.30,429.08 239.00,403.00
             238.96,399.52 238.15,388.82 236.15,386.31
             230.49,379.24 222.85,392.60 217.99,396.06
             214.08,398.84 209.98,399.68 208.43,393.98
             207.04,388.84 211.54,380.85 213.58,376.00
             217.42,366.82 221.96,352.70 224.37,343.00
             225.49,338.52 227.48,332.45 226.00,328.00
             216.03,346.63 210.98,352.41 204.86,374.00
             204.86,374.00 201.30,388.00 201.30,388.00
             200.16,395.74 201.85,398.75 195.90,404.97
             188.47,412.73 177.69,420.38 167.00,422.39
             163.11,423.12 158.54,423.94 155.11,421.43
             153.55,420.29 152.44,418.78 151.74,417.00
             151.74,417.00 148.01,396.00 148.01,396.00
             147.70,382.01 154.05,382.41 162.11,372.00
             169.36,362.64 186.89,336.66 190.00,326.00 Z
           M 134.00,543.00
           C 147.81,533.11 171.11,504.96 177.65,489.00
             181.24,480.97 183.84,468.51 177.65,461.21
             172.22,455.24 167.51,458.61 161.00,457.70
             154.81,456.84 148.15,453.72 143.00,450.25
             133.36,443.77 124.87,432.74 121.91,430.93
             119.59,429.52 116.66,429.15 114.00,429.04
             78.95,427.61 67.92,473.04 62.80,500.00
             62.80,500.00 60.00,517.00 60.00,517.00
             64.73,514.42 68.84,508.91 73.00,505.17
             81.99,497.08 94.56,488.12 107.00,487.18
             110.60,486.91 114.63,487.85 118.00,489.09
             120.90,490.16 123.56,491.63 126.00,493.53
             143.26,506.97 136.49,525.35 134.00,543.00 Z
           M 202.00,493.00
           C 202.00,493.00 201.00,493.00 201.00,493.00
             201.00,493.00 202.00,494.00 202.00,494.00
             202.00,494.00 202.00,493.00 202.00,493.00 Z
           M 107.00,551.00
           C 109.65,546.89 111.55,544.05 111.90,539.00
             112.82,525.86 104.82,523.88 94.00,524.00
             84.12,524.12 73.33,529.87 69.00,539.00
             79.35,537.41 91.73,531.26 100.66,540.33
             104.21,543.93 103.91,547.16 107.00,551.00 Z
           M 69.00,539.00
           C 69.00,539.00 68.00,539.00 68.00,539.00
             68.00,539.00 69.00,540.00 69.00,540.00
             69.00,540.00 69.00,539.00 69.00,539.00 Z" />
</svg>
