<?xml version="1.0" encoding="UTF-8" standalone="no"?>
<!DOCTYPE svg PUBLIC "-//W3C//DTD SVG 20010904//EN"
              "http://www.w3.org/TR/2001/REC-SVG-20010904/DTD/svg10.dtd">

<svg xmlns="http://www.w3.org/2000/svg"
     width="176.367mm" height="194.004mm"
     viewBox="0 0 500 550">
  <path id="Ravnos"
        fill="none" stroke="black" stroke-width="1"
        d="M 164.00,85.00
           C 164.00,85.00 191.99,57.00 191.99,57.00
             191.99,57.00 201.04,47.00 201.04,47.00
             201.04,47.00 226.00,22.00 226.00,22.00
             226.00,22.00 242.00,6.00 242.00,6.00
             242.00,6.00 249.00,1.20 249.00,1.20
             249.00,1.20 256.00,6.00 256.00,6.00
             256.00,6.00 271.00,20.28 271.00,20.28
             271.00,20.28 285.00,33.91 285.00,33.91
             285.00,33.91 318.00,65.00 318.00,65.00
             318.00,65.00 339.00,86.00 339.00,86.00
             330.24,89.84 326.71,89.89 318.00,96.04
             312.61,99.85 306.37,106.07 303.38,112.00
             296.68,125.26 300.98,150.10 301.00,165.00
             301.00,165.00 301.00,189.00 301.00,189.00
             301.02,191.35 300.81,194.61 302.60,196.40
             304.52,198.32 308.46,197.99 311.00,198.00
             311.00,198.00 350.00,198.00 350.00,198.00
             350.00,198.00 368.00,198.00 368.00,198.00
             384.15,197.92 397.90,189.49 406.56,176.00
             410.80,169.41 411.81,166.34 414.00,159.00
             414.00,159.00 458.00,202.00 458.00,202.00
             458.00,202.00 500.00,245.00 500.00,245.00
             500.00,245.00 446.00,298.00 446.00,298.00
             446.00,298.00 428.00,315.04 428.00,315.04
             428.00,315.04 414.00,327.00 414.00,327.00
             408.24,312.61 400.62,298.11 386.00,290.98
             377.16,286.67 365.71,288.00 356.00,288.00
             356.00,288.00 299.00,288.00 299.00,288.00
             299.00,288.00 299.00,324.00 299.00,324.00
             299.00,324.00 300.00,341.00 300.00,341.00
             300.00,341.00 300.00,452.00 300.00,452.00
             300.00,452.00 300.59,469.00 300.59,469.00
             300.59,469.00 287.85,492.00 287.85,492.00
             287.85,492.00 255.00,549.00 255.00,549.00
             255.00,549.00 253.00,549.00 253.00,549.00
             253.00,549.00 220.20,493.00 220.20,493.00
             220.20,493.00 206.65,469.00 206.65,469.00
             206.65,469.00 206.00,461.00 206.00,461.00
             206.00,461.00 206.00,398.00 206.00,398.00
             206.00,398.00 205.00,381.00 205.00,381.00
             205.00,381.00 205.00,311.00 205.00,311.00
             205.00,311.00 204.00,296.00 204.00,296.00
             204.00,296.00 204.00,288.16 204.00,288.16
             204.00,288.16 142.00,288.16 142.00,288.16
             134.86,287.91 129.06,285.67 122.00,288.16
             107.81,294.11 95.84,313.45 90.00,327.00
             80.94,322.91 68.81,308.37 61.00,301.09
             61.00,301.09 18.00,260.00 18.00,260.00
             18.00,260.00 0.00,242.00 0.00,242.00
             0.00,242.00 42.00,201.91 42.00,201.91
             42.00,201.91 62.00,182.83 62.00,182.83
             62.00,182.83 89.00,158.00 89.00,158.00
             94.72,172.29 103.22,188.98 118.00,195.65
             128.12,200.22 139.41,197.02 150.00,197.00
             150.00,197.00 205.00,197.00 205.00,197.00
             205.00,197.00 205.00,180.00 205.00,180.00
             205.00,180.00 204.00,164.00 204.00,164.00
             204.00,164.00 204.00,140.00 204.00,140.00
             204.00,128.04 205.85,118.46 198.90,108.00
             190.79,95.81 176.77,90.63 164.00,85.00 Z" />
</svg>
