<?xml version="1.0" encoding="UTF-8" standalone="no"?>
<!DOCTYPE svg PUBLIC "-//W3C//DTD SVG 20010904//EN"
              "http://www.w3.org/TR/2001/REC-SVG-20010904/DTD/svg10.dtd">

<svg xmlns="http://www.w3.org/2000/svg"
     width="239.859mm" height="176.367mm"
     viewBox="0 0 680 500">
  <path id="Toreador"
        fill="none" stroke="black" stroke-width="1"
        d="M 440.00,67.00
           C 448.01,48.41 461.75,30.23 476.00,16.00
             479.64,12.37 490.22,2.08 495.00,1.06
             499.30,0.15 511.12,8.45 515.00,11.00
             528.22,19.72 542.39,29.05 551.84,42.00
             556.19,47.96 559.97,54.47 558.00,62.00
             529.20,53.65 494.32,50.30 465.00,57.24
             452.64,60.16 449.37,63.56 440.00,67.00 Z
           M 318.00,31.00
           C 337.65,31.00 332.27,28.82 347.00,24.88
             356.63,22.31 367.03,20.89 377.00,21.00
             382.04,21.06 396.33,22.76 401.00,24.22
             412.12,27.69 413.20,30.94 427.00,31.00
             442.40,31.07 442.39,28.10 454.00,26.00
             448.89,35.52 439.53,41.57 431.00,47.74
             431.00,47.74 408.00,66.17 408.00,66.17
             395.90,77.04 379.85,92.62 370.75,106.00
             358.01,124.70 348.04,152.22 348.00,175.00
             348.00,175.00 348.00,183.00 348.00,183.00
             348.02,195.92 351.66,196.56 351.96,205.00
             352.03,207.09 352.04,211.62 349.61,212.51
             346.46,213.67 342.44,206.18 341.00,204.00
             334.84,194.64 329.08,183.58 325.34,173.00
             320.90,160.42 316.16,144.39 316.00,131.00
             316.00,131.00 316.00,120.00 316.00,120.00
             316.00,120.00 314.00,93.00 314.00,93.00
             313.97,74.08 315.53,49.75 318.00,31.00 Z
           M 461.00,117.00
           C 462.36,100.76 473.30,86.73 485.00,76.17
             487.78,73.66 495.17,66.31 499.00,67.32
             500.86,67.81 504.42,71.08 506.00,72.42
             506.00,72.42 519.00,84.00 519.00,84.00
             536.90,101.69 554.42,121.44 555.00,148.00
             549.44,145.37 547.62,142.25 543.00,138.46
             538.85,135.06 531.76,130.42 527.00,127.89
             513.00,120.46 495.76,116.70 480.00,116.04
             480.00,116.04 461.00,117.00 461.00,117.00 Z
           M 448.00,117.00
           C 430.00,117.00 418.10,116.41 406.44,133.00
             401.45,140.09 399.37,146.51 398.15,155.00
             397.81,157.38 397.47,161.37 394.17,161.39
             391.86,161.41 391.25,158.74 390.82,156.98
             389.68,152.25 389.01,144.91 389.00,140.00
             388.97,121.26 394.20,104.46 410.00,92.93
             416.79,87.97 428.04,83.40 436.00,80.42
             436.00,80.42 461.00,72.63 461.00,72.63
             463.19,72.08 468.21,70.29 469.29,73.33
             470.76,77.43 463.40,82.31 460.53,86.00
             454.72,93.45 449.88,107.69 448.00,117.00 Z
           M 524.00,78.00
           C 524.00,78.00 538.00,76.09 538.00,76.09
             544.98,75.69 555.84,78.64 562.00,81.89
             585.22,94.15 596.96,119.45 597.00,145.00
             597.00,145.00 597.00,158.00 597.00,158.00
             596.89,166.68 592.95,186.08 588.00,193.00
             586.52,182.04 583.89,170.67 576.53,162.04
             571.22,155.80 567.45,156.23 565.43,152.73
             565.43,152.73 561.98,140.00 561.98,140.00
             558.94,130.07 555.64,120.19 550.69,111.00
             546.87,103.91 541.55,95.78 535.96,90.00
             532.10,86.01 526.52,82.59 524.00,78.00 Z
           M 583.00,80.00
           C 591.86,86.32 599.17,94.47 607.00,101.96
             618.32,112.78 629.97,123.66 639.71,136.00
             639.71,136.00 647.08,147.00 647.08,147.00
             656.20,160.89 658.86,164.88 666.24,180.00
             670.93,189.58 675.78,203.52 677.74,214.00
             678.27,216.86 679.59,224.39 679.15,226.98
             678.20,232.51 673.13,232.61 669.00,234.70
             669.00,234.70 643.00,248.69 643.00,248.69
             632.10,253.59 629.54,251.10 618.00,258.44
             600.55,269.52 602.95,273.83 593.00,281.24
             576.46,293.56 559.74,295.00 540.00,295.00
             541.53,285.64 544.50,285.65 552.00,281.68
             552.00,281.68 562.00,275.56 562.00,275.56
             572.86,267.90 582.68,256.60 589.14,245.00
             597.00,230.88 598.46,220.29 601.31,205.00
             601.31,205.00 603.83,193.00 603.83,193.00
             603.83,193.00 604.82,175.00 604.82,175.00
             604.82,175.00 604.00,161.00 604.00,161.00
             603.93,145.55 599.12,121.89 594.57,107.00
             590.44,93.53 586.06,88.33 583.00,80.00 Z
           M 441.00,286.00
           C 429.51,285.03 407.37,278.65 398.00,271.96
             391.56,267.35 391.67,264.78 384.00,258.67
             380.66,256.01 367.93,248.02 366.56,245.76
             364.58,242.51 361.52,230.20 360.58,226.00
             354.25,197.72 357.40,182.42 363.34,155.00
             366.24,141.59 367.87,126.56 373.78,114.00
             376.31,108.63 378.55,103.81 384.00,101.00
             383.69,115.20 378.78,114.87 379.00,134.00
             379.00,134.00 379.96,145.00 379.96,145.00
             381.23,174.16 385.01,198.21 397.31,225.00
             404.48,240.61 413.10,254.15 424.58,266.96
             424.58,266.96 439.83,281.30 439.83,281.30
             440.80,282.96 440.79,284.19 441.00,286.00 Z
           M 452.00,118.00
           C 453.09,122.36 449.95,126.95 448.42,131.00
             445.76,138.05 443.90,145.48 443.17,153.00
             440.85,176.92 456.27,204.95 476.00,217.89
             479.40,220.12 483.24,221.50 487.00,223.00
             474.26,207.89 473.19,191.75 474.93,173.00
             475.47,167.12 476.31,157.61 480.00,153.00
             482.33,168.11 494.26,189.97 506.00,199.67
             511.36,204.10 521.90,209.03 529.00,207.65
             535.36,206.42 538.22,200.11 541.15,195.00
             548.88,181.53 555.00,170.91 555.00,155.00
             558.96,155.36 562.61,156.09 565.82,158.65
             573.71,164.94 577.43,185.33 576.35,195.00
             575.55,202.21 568.42,207.40 563.00,211.36
             553.15,218.56 525.44,233.74 514.00,237.00
             514.00,237.00 531.00,211.00 531.00,211.00
             521.79,218.11 508.68,226.40 498.00,231.00
             498.00,231.00 508.00,243.00 508.00,243.00
             500.71,244.65 493.63,246.97 486.00,246.49
             460.97,244.89 440.59,231.49 422.00,215.57
             422.00,215.57 407.00,201.00 407.00,201.00
             404.87,198.87 400.22,194.58 399.11,192.00
             397.68,188.68 400.01,175.03 400.80,171.00
             404.79,150.71 414.84,132.82 434.00,123.37
             440.76,120.04 445.43,120.01 452.00,118.00 Z
           M 465.00,191.00
           C 454.52,174.89 452.78,164.72 453.00,146.00
             453.06,141.06 455.12,128.09 458.08,124.32
             460.82,120.83 467.21,123.25 471.00,123.71
             480.46,124.88 497.16,121.99 503.00,132.00
             481.58,135.88 465.25,155.35 465.00,177.00
             464.96,181.00 466.05,187.84 465.00,191.00 Z
           M 512.00,138.00
           C 512.00,138.00 531.00,139.74 531.00,139.74
             531.00,139.74 554.00,149.00 554.00,149.00
             554.00,149.00 542.32,166.00 542.32,166.00
             536.44,177.07 537.96,191.19 522.00,197.52
             519.00,198.71 517.15,198.85 514.00,199.00
             517.38,184.16 525.95,166.71 520.64,151.00
             518.32,144.15 515.01,143.39 512.00,138.00 Z
           M 532.00,210.00
           C 532.00,210.00 531.00,210.00 531.00,210.00
             531.00,210.00 532.00,211.00 532.00,211.00
             532.00,211.00 532.00,210.00 532.00,210.00 Z
           M 583.00,210.00
           C 585.91,216.32 584.94,222.38 584.00,229.00
             580.11,256.50 557.02,272.67 533.00,282.40
             520.93,287.29 507.83,290.62 495.00,292.75
             491.42,293.35 481.15,294.96 478.00,294.28
             472.93,293.18 459.63,284.53 455.00,281.28
             434.51,266.90 409.35,238.08 407.00,212.00
             411.14,214.96 412.43,216.59 416.00,219.91
             416.00,219.91 425.00,228.01 425.00,228.01
             437.54,240.25 439.91,245.00 457.00,251.54
             468.52,255.95 483.07,257.52 495.00,253.96
             495.00,253.96 511.00,247.00 511.00,247.00
             511.00,247.00 542.00,233.78 542.00,233.78
             555.91,227.21 571.20,219.97 583.00,210.00 Z
           M 353.00,241.00
           C 359.73,244.59 359.92,254.10 360.00,261.00
             360.00,261.00 360.00,291.00 360.00,291.00
             359.97,304.22 355.13,302.86 350.80,313.00
             350.80,313.00 344.22,331.00 344.22,331.00
             338.74,342.40 327.64,358.16 319.58,368.00
             310.33,379.29 295.76,395.61 284.00,403.96
             256.68,423.35 213.36,434.61 180.00,435.00
             180.00,435.00 170.00,436.00 170.00,436.00
             170.00,436.00 161.00,436.00 161.00,436.00
             161.00,436.00 128.00,439.73 128.00,439.73
             106.35,442.82 88.00,446.11 67.00,452.66
             58.07,455.45 54.75,454.82 46.00,459.87
             31.85,468.05 18.47,485.05 12.00,500.00
             2.54,492.87 -0.92,480.41 1.52,469.00
             2.61,463.89 5.74,457.66 8.16,453.00
             10.11,449.27 11.21,446.22 14.13,443.04
             20.37,436.22 32.38,429.62 41.00,426.20
             52.57,421.62 67.55,417.85 80.00,417.21
             80.00,417.21 98.00,418.92 98.00,418.92
             98.00,418.92 119.00,418.92 119.00,418.92
             119.00,418.92 131.00,418.09 131.00,418.09
             144.41,417.17 157.83,415.90 171.00,412.99
             171.00,412.99 181.00,410.24 181.00,410.24
             181.00,410.24 197.00,406.57 197.00,406.57
             220.45,399.88 238.98,391.10 259.00,377.20
             263.86,373.83 267.37,371.96 272.00,367.83
             293.19,348.91 310.84,320.24 323.74,295.00
             323.74,295.00 334.26,271.00 334.26,271.00
             334.26,271.00 353.00,241.00 353.00,241.00 Z
           M 364.00,258.00
           C 365.99,258.00 369.95,257.82 371.68,258.57
             371.68,258.57 386.00,273.83 386.00,273.83
             396.45,283.28 408.73,290.58 422.00,295.30
             441.62,302.28 467.23,302.97 488.00,303.00
             488.00,303.00 505.00,304.00 505.00,304.00
             505.00,304.00 533.00,305.00 533.00,305.00
             533.00,305.00 546.00,306.00 546.00,306.00
             545.99,308.57 546.11,311.54 545.35,314.00
             542.26,324.03 528.64,332.06 520.00,337.00
             494.94,351.32 480.83,353.19 453.00,356.16
             453.00,356.16 424.00,358.84 424.00,358.84
             421.46,359.03 412.83,359.39 411.00,358.84
             406.57,356.99 394.76,341.49 391.37,337.00
             387.79,332.24 383.08,326.18 380.32,321.00
             377.72,316.11 375.18,307.53 373.33,302.00
             369.01,289.02 364.30,271.66 364.00,258.00 Z
           M 350.00,406.00
           C 354.94,406.70 359.09,407.59 362.81,411.21
             369.90,418.11 369.01,427.04 369.00,436.00
             368.99,439.36 369.10,441.68 368.24,445.00
             367.04,449.65 365.03,453.41 361.82,456.99
             353.26,466.52 340.28,468.85 328.00,469.00
             303.02,469.29 287.23,457.03 272.21,438.00
             268.12,432.82 262.03,426.12 260.00,420.00
             268.12,419.99 272.57,419.52 280.00,415.73
             280.00,415.73 291.00,409.00 291.00,409.00
             294.09,429.08 308.64,459.42 332.00,459.99
             342.84,460.25 358.96,457.24 363.52,446.00
             365.59,440.90 364.14,439.58 364.13,435.00
             364.63,430.06 365.70,428.22 364.13,423.00
             360.86,414.24 355.44,412.17 350.00,406.00 Z" />
</svg>
