<?xml version="1.0" encoding="UTF-8" standalone="no"?>
<!DOCTYPE svg PUBLIC "-//W3C//DTD SVG 20010904//EN"
              "http://www.w3.org/TR/2001/REC-SVG-20010904/DTD/svg10.dtd">

<svg xmlns="http://www.w3.org/2000/svg"
     width="177.072mm" height="176.367mm"
     viewBox="0 0 502 500">
  <path id="Tremere"
        fill="none" stroke="black" stroke-width="1"
        d="M 244.00,1.04
           C 244.00,1.04 257.00,1.04 257.00,1.04
             257.00,1.04 269.00,2.00 269.00,2.00
             269.00,2.00 284.00,2.00 284.00,2.00
             284.00,2.00 300.00,3.00 300.00,3.00
             300.00,3.00 351.00,4.00 351.00,4.00
             351.00,4.00 368.00,5.00 368.00,5.00
             368.00,5.00 382.00,5.00 382.00,5.00
             382.00,5.00 398.00,6.00 398.00,6.00
             398.00,6.00 416.00,6.00 416.00,6.00
             416.00,6.00 432.00,7.00 432.00,7.00
             432.00,7.00 450.00,7.00 450.00,7.00
             450.00,7.00 466.00,8.00 466.00,8.00
             466.00,8.00 484.00,8.00 484.00,8.00
             484.00,8.00 502.00,9.00 502.00,9.00
             502.00,9.00 502.00,268.00 502.00,268.00
             502.00,268.00 484.96,251.00 484.96,251.00
             484.96,251.00 456.91,222.00 456.91,222.00
             456.91,222.00 436.01,201.00 436.01,201.00
             436.01,201.00 426.96,191.00 426.96,191.00
             426.96,191.00 398.00,161.00 398.00,161.00
             398.00,161.00 406.57,175.00 406.57,175.00
             413.50,187.10 419.72,200.83 424.31,214.00
             439.99,259.01 439.26,311.20 423.31,356.00
             415.00,379.32 401.70,403.09 385.71,422.00
             321.35,498.10 215.32,521.16 125.00,479.69
             98.07,467.33 75.22,449.62 55.09,428.00
             42.03,413.97 31.30,397.09 22.75,380.00
             -16.70,301.09 -4.17,204.70 55.17,139.00
             73.32,118.90 95.77,101.92 120.00,89.81
             174.49,62.56 238.09,60.19 295.00,81.05
             315.07,88.41 328.18,96.85 346.00,108.00
             346.00,108.00 318.04,79.00 318.04,79.00
             318.04,79.00 309.96,70.00 309.96,70.00
             309.96,70.00 290.04,50.00 290.04,50.00
             290.04,50.00 277.00,36.00 277.00,36.00
             277.00,36.00 244.00,1.04 244.00,1.04 Z
           M 344.00,157.00
           C 335.63,145.32 312.17,130.35 299.00,123.75
             249.24,98.81 188.03,97.80 138.00,122.75
             124.70,129.39 101.51,143.22 93.00,155.00
             93.00,155.00 126.00,155.00 126.00,155.00
             126.00,155.00 141.00,156.00 141.00,156.00
             141.00,156.00 159.00,156.00 159.00,156.00
             159.00,156.00 248.00,156.00 248.00,156.00
             248.00,156.00 263.00,157.00 263.00,157.00
             263.00,157.00 344.00,157.00 344.00,157.00 Z
           M 347.00,108.00
           C 347.00,108.00 346.00,108.00 346.00,108.00
             346.00,108.00 347.00,109.00 347.00,109.00
             347.00,109.00 347.00,108.00 347.00,108.00 Z
           M 348.00,109.00
           C 348.00,109.00 347.00,109.00 347.00,109.00
             347.00,109.00 348.00,110.00 348.00,110.00
             348.00,110.00 348.00,109.00 348.00,109.00 Z
           M 91.00,157.00
           C 83.87,162.11 78.60,169.04 73.37,176.00
             61.78,191.47 52.77,208.67 46.67,227.00
             40.41,245.79 36.77,267.18 37.00,287.00
             37.00,287.00 37.91,297.00 37.91,297.00
             42.02,355.76 74.48,410.08 126.00,439.57
             150.10,453.37 182.03,463.96 210.00,464.00
             210.00,464.00 227.00,464.00 227.00,464.00
             257.10,463.64 290.78,451.03 316.00,435.19
             323.46,430.50 339.25,419.57 343.00,412.00
             343.00,412.00 292.00,412.00 292.00,412.00
             292.00,412.00 275.00,411.00 275.00,411.00
             275.00,411.00 210.00,411.00 210.00,411.00
             210.00,411.00 195.00,410.00 195.00,410.00
             195.00,410.00 129.00,410.00 129.00,410.00
             129.00,410.00 114.00,409.00 114.00,409.00
             114.00,409.00 89.00,409.00 89.00,409.00
             89.00,409.00 89.00,333.00 89.00,333.00
             89.00,333.00 90.00,318.00 90.00,318.00
             90.00,318.00 90.00,214.00 90.00,214.00
             90.00,214.00 91.00,199.00 91.00,199.00
             91.00,199.00 91.00,157.00 91.00,157.00 Z
           M 349.00,162.00
           C 349.00,162.00 348.00,177.00 348.00,177.00
             348.00,177.00 348.00,195.00 348.00,195.00
             348.00,195.00 349.00,209.00 349.00,209.00
             349.00,209.00 349.00,406.00 349.00,406.00
             354.04,403.18 357.87,397.56 361.35,393.00
             370.27,381.32 377.50,368.49 383.28,355.00
             404.22,306.10 402.03,250.45 378.25,203.00
             372.33,191.20 359.27,169.70 349.00,162.00 Z" />
</svg>
