<?xml version="1.0" encoding="UTF-8" standalone="no"?>
<!DOCTYPE svg PUBLIC "-//W3C//DTD SVG 20010904//EN"
              "http://www.w3.org/TR/2001/REC-SVG-20010904/DTD/svg10.dtd">

<svg xmlns="http://www.w3.org/2000/svg"
     width="752.351mm" height="752.351mm"
     viewBox="0 0 2400 2400">
  <path id="Tzimisce"
        fill="none" stroke="black" stroke-width="1"
        d="M 1269.00,48.00
           C 1271.97,52.38 1274.51,64.40 1275.87,70.00
             1281.72,94.10 1281.35,117.38 1267.94,139.00
             1262.42,147.89 1253.30,157.35 1246.00,165.00
             1263.14,159.39 1281.37,155.10 1296.00,143.96
             1307.48,135.23 1310.21,127.45 1318.00,121.00
             1318.00,121.00 1317.04,131.00 1317.04,131.00
             1317.04,131.00 1317.04,139.00 1317.04,139.00
             1317.04,139.00 1316.00,157.00 1316.00,157.00
             1316.00,157.00 1315.09,167.00 1315.09,167.00
             1314.09,181.53 1312.85,195.83 1309.12,210.00
             1305.70,222.96 1300.18,233.78 1295.00,246.00
             1295.00,246.00 1339.00,252.80 1339.00,252.80
             1345.04,254.03 1358.09,256.94 1363.00,259.99
             1369.52,264.05 1379.79,279.22 1384.87,286.00
             1384.87,286.00 1419.00,334.00 1419.00,334.00
             1423.06,340.07 1430.94,350.51 1433.00,357.00
             1422.13,356.01 1406.66,345.41 1392.00,341.90
             1382.37,339.59 1368.53,342.47 1359.00,345.00
             1359.00,345.00 1390.57,392.00 1390.57,392.00
             1416.57,437.35 1435.60,486.58 1449.00,537.00
             1439.56,536.00 1421.33,525.59 1412.00,521.31
             1412.00,521.31 1387.00,509.31 1387.00,509.31
             1387.00,509.31 1333.00,487.05 1333.00,487.05
             1291.98,472.05 1249.84,460.17 1207.00,451.60
             1179.80,446.16 1151.77,441.32 1124.00,441.00
             1124.00,441.00 1109.00,440.00 1109.00,440.00
             1109.00,440.00 1006.00,440.00 1006.00,440.00
             1006.00,440.00 991.00,441.00 991.00,441.00
             991.00,441.00 978.00,441.00 978.00,441.00
             978.00,441.00 963.00,442.00 963.00,442.00
             963.00,442.00 950.00,442.91 950.00,442.91
             950.00,442.91 926.00,444.84 926.00,444.84
             917.46,445.75 907.00,446.06 900.01,451.53
             892.89,457.10 888.17,467.56 885.35,476.00
             885.35,476.00 873.00,532.00 873.00,532.00
             863.39,529.81 844.90,520.73 835.00,516.42
             808.68,504.98 782.49,492.73 755.00,484.28
             742.90,480.57 719.32,473.23 711.08,487.02
             708.40,491.51 707.56,499.73 707.18,505.00
             706.93,508.55 707.66,510.58 707.91,514.00
             709.34,533.49 712.44,541.10 718.66,559.00
             720.05,563.03 725.21,573.97 717.94,574.82
             713.04,575.39 699.67,569.58 695.00,567.24
             668.68,554.07 650.92,525.98 634.00,513.24
             622.32,504.44 606.75,505.98 593.00,503.39
             558.99,496.97 535.71,481.48 509.00,460.20
             503.06,455.47 496.25,450.41 491.02,445.00
             489.53,443.46 485.87,440.02 487.17,437.59
             488.04,435.97 492.31,435.50 494.00,435.29
             494.00,435.29 517.00,434.00 517.00,434.00
             526.44,433.89 538.17,434.97 547.00,431.90
             557.84,428.13 571.62,412.38 580.00,404.00
             558.53,389.10 548.89,376.06 542.63,351.00
             540.01,340.53 539.00,336.97 539.00,326.00
             547.17,328.33 557.18,334.88 565.00,338.89
             573.58,343.30 584.63,347.25 594.00,349.63
             613.76,354.63 632.64,357.03 653.00,357.00
             669.10,356.97 703.49,349.80 720.00,345.88
             735.53,342.20 751.12,338.92 766.00,333.00
             760.80,324.10 752.02,317.74 745.29,310.00
             734.40,297.48 720.28,274.06 712.75,259.00
             707.52,248.53 703.04,241.02 703.00,229.00
             710.94,229.44 714.59,233.05 721.00,237.33
             721.00,237.33 747.00,253.69 747.00,253.69
             764.64,263.23 794.91,274.97 815.00,275.00
             815.00,275.00 828.00,275.00 828.00,275.00
             811.51,257.72 803.59,242.90 794.80,221.00
             789.72,208.34 786.00,198.83 786.00,185.00
             793.61,186.59 799.27,193.20 805.00,198.13
             813.78,205.68 823.05,212.47 833.00,218.40
             862.76,236.10 898.47,247.32 933.00,250.08
             933.00,250.08 945.00,251.00 945.00,251.00
             945.00,251.00 969.00,251.00 969.00,251.00
             988.66,250.97 1019.09,244.85 1038.00,238.98
             1093.58,221.70 1144.25,182.64 1187.00,144.17
             1215.13,118.85 1238.65,93.51 1259.67,62.00
             1259.67,62.00 1269.00,48.00 1269.00,48.00 Z
           M 1349.00,211.00
           C 1358.40,211.43 1374.59,215.64 1384.00,218.12
             1384.00,218.12 1443.00,234.58 1443.00,234.58
             1475.89,244.19 1509.03,254.43 1541.00,266.81
             1582.20,282.77 1622.50,302.00 1662.00,321.75
             1694.07,337.79 1726.24,353.99 1757.00,372.45
             1799.78,398.12 1841.20,428.89 1880.00,460.20
             1939.80,508.45 2000.98,566.34 2049.39,626.00
             2049.39,626.00 2075.88,661.00 2075.88,661.00
             2134.14,740.15 2181.21,827.69 2214.95,920.00
             2234.75,974.19 2249.06,1027.73 2261.42,1084.00
             2270.95,1127.37 2281.01,1187.97 2284.09,1232.00
             2284.09,1232.00 2286.00,1262.00 2286.00,1262.00
             2286.00,1262.00 2287.00,1278.00 2287.00,1278.00
             2287.00,1278.00 2287.00,1335.00 2287.00,1335.00
             2287.00,1335.00 2286.00,1350.00 2286.00,1350.00
             2286.00,1350.00 2284.09,1382.00 2284.09,1382.00
             2280.29,1436.35 2270.58,1490.16 2257.37,1543.00
             2224.89,1672.95 2164.66,1795.76 2081.79,1901.00
             2081.79,1901.00 2036.91,1953.00 2036.91,1953.00
             2036.91,1953.00 2025.09,1965.00 2025.09,1965.00
             2025.09,1965.00 1988.00,2002.96 1988.00,2002.96
             1988.00,2002.96 1979.00,2011.04 1979.00,2011.04
             1979.00,2011.04 1964.00,2025.96 1964.00,2025.96
             1936.20,2052.55 1896.65,2088.52 1866.00,2111.12
             1840.94,2129.60 1814.54,2146.55 1788.00,2162.81
             1693.45,2220.73 1596.75,2263.16 1491.00,2296.02
             1444.63,2310.43 1389.79,2323.96 1342.00,2332.58
             1342.00,2332.58 1284.00,2341.27 1284.00,2341.27
             1256.28,2345.27 1207.64,2352.31 1181.00,2352.00
             1181.00,2352.00 1150.00,2350.00 1150.00,2350.00
             1150.00,2350.00 1121.00,2348.00 1121.00,2348.00
             1121.00,2348.00 1117.00,2348.00 1117.00,2348.00
             1117.00,2348.00 1107.00,2347.09 1107.00,2347.09
             1107.00,2347.09 1060.00,2343.17 1060.00,2343.17
             1016.38,2338.81 972.91,2332.33 930.00,2323.21
             808.31,2297.34 692.88,2254.51 587.00,2188.58
             533.50,2155.26 483.11,2116.87 437.00,2073.91
             437.00,2073.91 424.00,2061.04 424.00,2061.04
             424.00,2061.04 413.00,2051.00 413.00,2051.00
             413.00,2051.00 402.96,2040.00 402.96,2040.00
             402.96,2040.00 357.42,1990.00 357.42,1990.00
             256.97,1871.09 184.63,1728.33 145.12,1578.00
             131.08,1524.61 122.15,1470.89 116.83,1416.00
             116.83,1416.00 114.00,1375.00 114.00,1375.00
             114.00,1375.00 113.00,1358.00 113.00,1358.00
             113.00,1358.00 113.00,1299.00 113.00,1299.00
             113.00,1299.00 114.00,1277.00 114.00,1277.00
             114.00,1277.00 114.91,1267.00 114.91,1267.00
             114.91,1267.00 117.83,1232.00 117.83,1232.00
             121.46,1195.68 127.48,1159.59 135.65,1124.00
             158.97,1022.40 204.91,918.78 264.02,833.00
             286.12,800.95 310.81,770.91 336.83,742.00
             374.99,699.60 406.14,669.08 453.00,636.28
             490.18,610.25 528.47,585.57 567.00,561.58
             567.00,561.58 602.00,541.22 602.00,541.22
             605.20,539.53 613.95,534.19 617.00,533.78
             621.10,533.23 625.95,538.16 629.00,540.60
             629.00,540.60 656.00,561.57 656.00,561.57
             681.32,579.67 710.29,593.95 742.00,594.00
             742.00,594.00 757.00,594.00 757.00,594.00
             757.00,594.00 738.31,556.00 738.31,556.00
             732.08,542.39 720.99,512.89 743.00,508.02
             745.64,507.43 748.29,506.98 751.00,507.10
             754.89,507.27 764.04,508.94 768.00,509.88
             803.73,518.37 840.57,540.85 877.00,553.00
             888.16,556.72 906.88,563.20 917.96,557.43
             927.17,552.64 922.28,537.58 919.66,530.00
             912.94,510.57 901.77,505.18 902.00,485.00
             902.06,480.15 902.46,477.22 905.13,473.00
             906.83,470.32 909.60,467.26 912.00,465.21
             915.72,462.04 918.34,461.22 923.00,460.21
             928.07,459.11 940.72,458.01 946.00,458.00
             946.00,458.00 1021.00,458.00 1021.00,458.00
             1021.00,458.00 1036.00,459.00 1036.00,459.00
             1036.00,459.00 1063.00,460.00 1063.00,460.00
             1063.00,460.00 1073.00,460.91 1073.00,460.91
             1073.00,460.91 1147.00,468.28 1147.00,468.28
             1301.25,488.58 1455.71,547.34 1576.00,647.43
             1576.00,647.43 1611.00,678.04 1611.00,678.04
             1640.93,706.66 1675.65,746.93 1700.88,780.00
             1733.91,823.29 1770.97,874.79 1794.22,924.00
             1794.22,924.00 1810.32,964.00 1810.32,964.00
             1812.69,968.41 1817.50,975.18 1823.00,975.45
             1827.82,975.68 1833.32,970.38 1836.19,966.96
             1845.90,955.39 1850.51,941.91 1856.00,935.00
             1856.00,935.00 1852.00,981.00 1852.00,981.00
             1852.00,981.00 1851.00,994.00 1851.00,994.00
             1851.00,994.00 1851.00,1007.00 1851.00,1007.00
             1851.00,1007.00 1850.00,1022.00 1850.00,1022.00
             1850.00,1022.00 1850.00,1069.00 1850.00,1069.00
             1850.01,1076.92 1851.82,1099.68 1853.75,1107.00
             1853.75,1107.00 1862.31,1129.00 1862.31,1129.00
             1865.90,1139.32 1867.90,1150.23 1869.58,1161.00
             1874.97,1195.75 1874.05,1230.92 1874.00,1266.00
             1874.00,1266.00 1873.00,1281.00 1873.00,1281.00
             1873.00,1281.00 1872.09,1297.00 1872.09,1297.00
             1870.43,1321.20 1868.15,1344.98 1864.42,1369.00
             1861.05,1390.71 1855.15,1422.76 1847.58,1443.00
             1847.58,1443.00 1814.00,1523.00 1814.00,1523.00
             1808.87,1535.06 1799.00,1559.44 1798.15,1572.00
             1797.97,1573.69 1797.96,1577.37 1798.15,1579.00
             1799.23,1585.49 1804.43,1589.84 1811.00,1589.74
             1820.57,1589.60 1828.50,1584.02 1843.00,1584.00
             1843.00,1584.00 1847.00,1584.00 1847.00,1584.00
             1852.18,1584.07 1854.30,1584.11 1858.00,1588.00
             1858.00,1588.00 1816.00,1602.05 1816.00,1602.05
             1798.02,1608.65 1776.02,1621.38 1761.00,1633.21
             1718.23,1666.87 1693.08,1706.19 1655.96,1745.00
             1655.96,1745.00 1638.00,1762.09 1638.00,1762.09
             1603.66,1794.07 1566.03,1822.23 1525.00,1845.14
             1448.24,1887.99 1367.51,1911.99 1281.00,1925.42
             1251.43,1930.01 1221.80,1933.05 1192.00,1935.09
             1192.00,1935.09 1182.00,1936.00 1182.00,1936.00
             1182.00,1936.00 1160.00,1936.00 1160.00,1936.00
             1146.28,1935.98 1124.10,1932.35 1110.00,1930.27
             1110.00,1930.27 1016.00,1912.79 1016.00,1912.79
             1000.12,1909.41 961.21,1898.61 948.00,1898.00
             958.80,1907.13 986.50,1921.49 1000.00,1928.25
             1042.43,1949.46 1083.92,1966.50 1132.00,1968.21
             1138.18,1968.48 1150.43,1965.84 1154.99,1968.21
             1160.18,1970.84 1165.84,1981.73 1168.69,1987.00
             1168.69,1987.00 1193.67,2032.00 1193.67,2032.00
             1212.80,2060.84 1239.22,2093.63 1273.00,2105.30
             1280.81,2108.00 1288.90,2107.93 1297.00,2109.00
             1293.60,2114.29 1285.71,2115.38 1280.00,2116.88
             1280.00,2116.88 1234.00,2126.41 1234.00,2126.41
             1234.00,2126.41 1197.00,2130.09 1197.00,2130.09
             1197.00,2130.09 1185.00,2131.00 1185.00,2131.00
             1185.00,2131.00 1152.00,2131.00 1152.00,2131.00
             1152.00,2131.00 1139.00,2130.04 1139.00,2130.04
             1100.45,2128.36 1062.05,2120.68 1025.00,2110.00
             933.39,2083.59 851.52,2034.86 781.00,1971.17
             763.73,1955.57 747.33,1938.90 732.43,1921.00
             681.34,1859.60 638.84,1774.43 612.66,1699.00
             601.89,1667.97 592.60,1636.88 584.63,1605.00
             584.63,1605.00 575.00,1565.00 575.00,1565.00
             580.61,1569.75 586.59,1580.52 590.68,1587.00
             590.68,1587.00 618.88,1630.00 618.88,1630.00
             630.75,1646.10 643.87,1660.87 658.00,1675.00
             693.57,1710.57 731.37,1735.71 783.00,1738.04
             783.00,1738.04 796.00,1738.96 796.00,1738.96
             806.37,1738.53 820.98,1737.02 831.00,1734.53
             831.00,1734.53 871.00,1722.88 871.00,1722.88
             871.00,1722.88 903.00,1718.11 903.00,1718.11
             928.99,1712.13 954.78,1702.81 979.00,1691.69
             979.00,1691.69 1027.00,1665.26 1027.00,1665.26
             1060.23,1648.11 1095.45,1634.64 1132.00,1626.58
             1144.83,1623.75 1167.14,1620.02 1180.00,1620.00
             1180.00,1620.00 1196.00,1619.32 1196.00,1619.32
             1196.00,1619.32 1208.00,1620.00 1208.00,1620.00
             1226.80,1620.03 1250.74,1626.22 1268.00,1633.58
             1273.73,1636.02 1285.49,1640.51 1290.00,1644.00
             1290.00,1644.00 1257.00,1650.89 1257.00,1650.89
             1240.35,1655.06 1222.46,1662.97 1209.00,1673.67
             1203.98,1677.65 1195.77,1685.90 1191.90,1691.00
             1178.08,1709.17 1170.27,1734.22 1170.00,1757.00
             1170.00,1757.00 1169.05,1776.00 1169.05,1776.00
             1169.05,1776.00 1169.05,1788.00 1169.05,1788.00
             1169.05,1788.00 1170.00,1798.00 1170.00,1798.00
             1170.00,1798.00 1170.00,1812.00 1170.00,1812.00
             1170.00,1812.00 1170.91,1822.00 1170.91,1822.00
             1171.44,1829.70 1170.16,1837.43 1172.00,1845.00
             1172.00,1845.00 1113.00,1844.00 1113.00,1844.00
             1113.00,1844.00 1096.00,1843.00 1096.00,1843.00
             1096.00,1843.00 1074.00,1843.00 1074.00,1843.00
             1074.00,1843.00 1057.00,1842.00 1057.00,1842.00
             1057.00,1842.00 1017.00,1842.00 1017.00,1842.00
             1017.00,1842.00 998.00,1841.00 998.00,1841.00
             998.00,1841.00 984.00,1842.00 984.00,1842.00
             977.49,1842.03 973.93,1841.74 968.00,1845.00
             984.80,1852.23 1002.29,1856.00 1020.00,1860.37
             1060.36,1870.34 1104.45,1876.94 1146.00,1877.00
             1146.00,1877.00 1163.00,1878.00 1163.00,1878.00
             1163.00,1878.00 1206.00,1877.00 1206.00,1877.00
             1206.00,1877.00 1216.00,1876.09 1216.00,1876.09
             1216.00,1876.09 1271.00,1870.08 1271.00,1870.08
             1357.49,1855.76 1427.77,1825.19 1499.00,1774.14
             1614.98,1691.02 1697.63,1581.43 1740.02,1445.00
             1750.30,1411.93 1758.11,1378.21 1763.42,1344.00
             1763.42,1344.00 1769.09,1299.00 1769.09,1299.00
             1769.09,1299.00 1770.00,1289.00 1770.00,1289.00
             1770.55,1241.54 1758.15,1206.14 1726.71,1170.00
             1726.71,1170.00 1697.00,1140.28 1697.00,1140.28
             1690.11,1134.21 1677.87,1122.65 1675.00,1114.00
             1678.40,1112.42 1679.21,1112.12 1683.00,1112.02
             1700.49,1111.51 1719.53,1121.32 1734.00,1130.32
             1737.36,1132.40 1748.88,1139.74 1752.39,1136.36
             1755.11,1133.75 1750.79,1121.66 1749.87,1118.00
             1749.87,1118.00 1737.13,1064.00 1737.13,1064.00
             1717.00,983.39 1681.37,909.06 1629.40,844.00
             1629.40,844.00 1590.09,799.00 1590.09,799.00
             1590.09,799.00 1578.00,786.00 1578.00,786.00
             1578.00,786.00 1568.00,776.91 1568.00,776.91
             1568.00,776.91 1540.00,751.43 1540.00,751.43
             1459.97,683.26 1364.80,634.55 1265.00,602.66
             1235.35,593.18 1205.39,585.29 1175.00,578.58
             1157.97,574.81 1133.22,570.21 1116.00,570.00
             1116.00,570.00 1097.00,569.00 1097.00,569.00
             1097.00,569.00 968.00,569.00 968.00,569.00
             968.00,569.00 947.00,570.00 947.00,570.00
             947.00,570.00 937.00,570.91 937.00,570.91
             918.51,572.26 901.08,575.58 883.00,579.58
             849.43,586.99 816.36,596.76 784.00,608.31
             692.44,641.00 608.08,687.21 533.00,749.25
             495.84,779.96 460.54,816.33 429.27,853.00
             359.54,934.77 308.27,1026.43 282.13,1131.00
             276.68,1152.79 272.00,1174.77 268.73,1197.00
             268.73,1197.00 265.00,1228.00 265.00,1228.00
             265.00,1228.00 265.00,1237.00 265.00,1237.00
             265.01,1243.69 266.01,1256.09 275.00,1256.59
             278.99,1256.81 284.82,1253.03 288.00,1250.79
             298.50,1243.40 308.75,1232.04 318.00,1223.01
             322.70,1218.43 330.02,1211.34 336.00,1209.00
             336.00,1209.00 319.37,1274.00 319.37,1274.00
             308.69,1316.21 299.86,1358.42 297.96,1402.00
             297.96,1402.00 297.00,1413.00 297.00,1413.00
             297.00,1413.00 297.00,1455.00 297.00,1455.00
             297.00,1455.00 298.00,1478.00 298.00,1478.00
             298.00,1478.00 298.91,1489.00 298.91,1489.00
             299.75,1501.21 300.74,1513.00 303.42,1525.00
             306.38,1538.20 314.43,1559.07 319.60,1572.00
             328.83,1595.07 338.64,1617.78 349.75,1640.00
             393.41,1727.31 437.17,1791.36 503.91,1863.00
             571.91,1935.99 650.51,1992.99 738.00,2040.31
             778.29,2062.10 835.47,2087.74 879.00,2101.66
             940.46,2121.30 1017.64,2135.59 1082.00,2140.09
             1082.00,2140.09 1127.00,2143.00 1127.00,2143.00
             1127.00,2143.00 1144.00,2144.00 1144.00,2144.00
             1144.00,2144.00 1194.00,2144.00 1194.00,2144.00
             1194.00,2144.00 1215.00,2143.00 1215.00,2143.00
             1215.00,2143.00 1227.00,2142.09 1227.00,2142.09
             1227.00,2142.09 1287.00,2136.28 1287.00,2136.28
             1395.55,2122.12 1498.78,2090.17 1594.00,2035.57
             1651.42,2002.65 1704.21,1962.74 1752.00,1917.04
             1752.00,1917.04 1759.91,1909.91 1759.91,1909.91
             1759.91,1909.91 1767.04,1902.00 1767.04,1902.00
             1767.04,1902.00 1781.83,1887.00 1781.83,1887.00
             1817.17,1847.94 1846.13,1810.80 1875.33,1767.00
             1892.43,1741.36 1909.02,1715.12 1923.69,1688.00
             1954.95,1630.21 1975.46,1575.64 1991.37,1512.00
             1998.58,1483.19 2004.96,1453.59 2007.83,1424.00
             2012.40,1376.87 2012.55,1329.40 2012.00,1282.00
             2012.00,1282.00 2011.00,1267.00 2011.00,1267.00
             2011.00,1267.00 2011.00,1259.00 2011.00,1259.00
             2011.00,1259.00 2009.09,1233.00 2009.09,1233.00
             2005.27,1177.49 1996.47,1139.92 1980.02,1087.00
             1953.11,1000.39 1910.41,920.39 1857.42,847.00
             1820.69,796.12 1785.36,755.45 1737.00,715.08
             1681.22,668.51 1625.53,630.09 1562.00,594.86
             1542.54,584.07 1522.42,574.28 1502.00,565.42
             1502.00,565.42 1482.00,556.72 1482.00,556.72
             1479.08,555.46 1473.77,553.53 1471.65,551.36
             1469.04,548.71 1466.62,539.85 1465.33,536.00
             1465.33,536.00 1454.00,502.00 1454.00,502.00
             1454.00,502.00 1425.95,422.00 1425.95,422.00
             1422.42,412.34 1412.35,385.72 1411.00,377.00
             1411.00,377.00 1468.00,401.42 1468.00,401.42
             1474.97,404.08 1479.34,406.63 1487.00,407.00
             1483.39,389.10 1463.80,359.70 1453.33,344.00
             1433.13,313.69 1411.97,284.10 1388.75,256.00
             1388.75,256.00 1349.00,211.00 1349.00,211.00 Z
           M 1175.00,311.00
           C 1160.43,305.22 1142.57,302.71 1127.00,300.85
             1127.00,300.85 1106.00,298.91 1106.00,298.91
             1106.00,298.91 1096.00,298.00 1096.00,298.00
             1065.56,297.65 1020.66,307.54 992.00,318.05
             992.00,318.05 964.00,331.00 964.00,331.00
             968.50,337.28 978.82,345.67 985.00,351.00
             998.73,362.83 1012.63,369.87 1031.00,370.91
             1043.22,371.60 1064.50,359.71 1074.00,352.34
             1077.96,349.26 1082.44,345.50 1086.00,341.99
             1092.50,335.56 1096.31,329.02 1105.00,324.91
             1112.67,321.28 1121.69,320.72 1130.00,319.84
             1144.85,318.25 1160.73,317.64 1175.00,313.00
             1175.00,313.00 1175.00,311.00 1175.00,311.00 Z
           M 792.00,628.00
           C 800.39,629.57 811.14,635.91 819.00,639.74
             838.55,649.27 862.10,661.25 884.00,662.82
             895.43,663.63 909.56,657.68 915.89,648.00
             920.29,641.28 918.24,638.84 923.25,632.00
             928.47,624.88 938.95,616.42 946.00,610.80
             957.39,601.72 983.87,581.35 997.00,577.22
             1015.07,572.06 1039.33,576.10 1058.00,577.22
             1068.15,577.49 1092.46,581.12 1102.00,584.04
             1108.60,586.05 1114.70,588.67 1116.47,596.00
             1119.17,607.20 1107.85,609.32 1100.00,613.25
             1079.74,623.38 1060.87,633.73 1042.00,646.33
             996.68,676.60 951.60,720.52 931.20,772.00
             926.49,783.91 923.30,796.34 921.43,809.00
             920.01,818.54 919.76,829.03 916.00,838.00
             908.62,834.43 902.53,823.79 898.00,817.00
             886.73,800.09 872.51,775.58 867.15,756.00
             867.15,756.00 861.86,728.00 861.86,728.00
             858.52,721.85 852.37,718.77 847.00,714.84
             842.29,711.40 838.05,707.28 834.09,703.00
             824.61,692.78 810.50,667.06 803.74,654.00
             799.64,646.07 793.66,636.86 792.00,628.00 Z" />
</svg>
