<?xml version="1.0" encoding="UTF-8" standalone="no"?>
<!DOCTYPE svg PUBLIC "-//W3C//DTD SVG 20010904//EN"
              "http://www.w3.org/TR/2001/REC-SVG-20010904/DTD/svg10.dtd">

<svg xmlns="http://www.w3.org/2000/svg"
     width="176.367mm" height="190.829mm"
     viewBox="0 0 500 541">
  <path id="Ventrue"
        fill="none" stroke="black" stroke-width="1"
        d="M 404.00,0.00
           C 411.15,3.08 417.93,7.07 423.96,12.01
             432.04,18.63 429.80,20.08 440.81,24.00
             440.01,26.67 438.40,30.10 440.81,32.64
             443.36,35.80 448.90,33.01 449.47,30.73
             450.36,27.13 443.95,22.94 442.82,20.72
             441.01,17.14 446.56,11.50 449.09,9.34
             460.68,-0.55 465.29,23.77 473.09,8.00
             473.09,8.00 475.00,3.00 475.00,3.00
             475.00,3.00 484.00,11.61 484.00,11.61
             484.00,11.61 493.00,17.00 493.00,17.00
             489.94,19.04 479.40,25.53 479.42,29.32
             479.46,33.71 489.32,33.86 490.87,36.56
             492.12,38.74 490.09,41.38 488.77,43.00
             485.26,47.31 478.97,53.65 474.00,56.00
             474.00,56.00 472.27,49.04 472.27,49.04
             468.78,40.99 458.99,51.64 466.23,57.45
             467.40,58.40 468.53,58.79 470.00,59.00
             475.45,59.79 481.88,56.45 487.00,55.00
             487.06,61.75 487.59,68.70 495.00,71.00
             492.20,79.42 489.66,84.69 499.00,90.00
             499.00,90.00 493.36,100.00 493.36,100.00
             493.36,100.00 490.98,107.72 490.98,107.72
             488.10,112.68 482.76,113.26 481.00,124.00
             465.93,123.31 449.79,121.07 435.00,125.52
             430.53,126.86 415.10,135.32 411.00,138.21
             399.67,146.20 399.75,152.34 393.96,155.99
             387.53,160.04 379.08,156.13 375.48,159.60
             373.59,161.41 374.04,164.51 373.46,167.00
             372.67,170.41 371.02,173.14 368.69,175.72
             364.95,179.84 359.92,185.04 355.00,187.60
             348.17,191.15 337.99,188.03 338.75,197.00
             338.75,197.00 340.00,202.00 340.00,202.00
             331.90,203.82 331.71,198.20 327.02,200.05
             323.82,201.31 321.23,206.14 319.58,209.00
             313.39,219.74 312.74,222.96 315.00,235.00
             299.60,235.34 284.83,244.68 274.00,255.04
             249.68,278.29 247.27,289.63 227.00,310.00
             227.00,310.00 207.00,330.00 207.00,330.00
             201.48,335.52 197.94,336.92 197.92,345.00
             197.89,353.05 194.05,355.03 193.37,361.00
             192.80,366.02 195.91,367.89 195.93,371.00
             195.96,374.52 192.51,377.11 190.00,379.00
             179.50,371.70 180.44,379.73 172.00,382.21
             166.06,384.19 162.53,380.61 159.09,382.21
             157.11,382.90 154.46,386.32 153.00,388.00
             153.00,388.00 142.17,400.00 142.17,400.00
             142.17,400.00 103.83,442.00 103.83,442.00
             100.20,446.02 90.06,455.99 87.48,460.00
             84.66,464.38 87.14,467.32 83.91,473.00
             79.47,480.82 67.54,486.21 67.74,498.00
             67.82,503.10 70.85,507.16 72.00,512.00
             65.62,513.46 60.82,515.32 56.10,520.09
             50.34,525.92 46.93,533.55 37.00,534.77
             29.12,535.74 26.09,529.31 22.00,529.32
             19.71,529.32 16.00,532.30 14.00,533.56
             9.13,536.66 5.30,538.72 0.00,541.00
             0.56,537.03 1.28,533.55 3.36,530.04
             5.46,526.49 7.94,525.22 8.67,521.96
             9.54,518.10 7.37,515.43 6.49,512.00
             5.59,508.49 5.96,504.33 7.36,501.00
             10.26,494.13 14.29,492.64 17.87,487.00
             21.87,480.69 21.91,476.04 21.00,469.00
             30.77,470.54 42.46,467.31 49.91,460.67
             54.78,456.34 55.92,451.74 61.04,448.75
             65.34,446.24 69.86,446.41 74.00,443.49
             77.69,440.89 88.87,428.10 92.42,424.00
             92.42,424.00 119.16,394.00 119.16,394.00
             119.16,394.00 134.16,377.00 134.16,377.00
             135.92,375.04 140.33,370.65 141.22,368.42
             142.53,365.17 139.43,361.02 140.24,356.04
             141.03,351.16 145.36,349.92 145.59,345.00
             145.84,339.54 140.18,335.45 138.00,329.00
             145.78,328.02 146.71,335.04 154.00,333.90
             158.08,333.26 160.77,329.86 164.00,327.64
             169.61,323.80 176.44,322.14 183.00,324.00
             183.00,324.00 205.72,296.00 205.72,296.00
             205.72,296.00 249.95,245.00 249.95,245.00
             249.95,245.00 265.02,227.00 265.02,227.00
             265.02,227.00 268.44,217.00 268.44,217.00
             268.44,217.00 275.01,206.00 275.01,206.00
             275.01,206.00 269.00,192.00 269.00,192.00
             273.26,192.23 278.04,194.05 281.00,193.57
             284.51,193.00 287.60,190.42 291.00,189.49
             295.02,188.41 298.23,189.93 301.77,186.69
             309.72,179.40 298.28,167.26 309.02,165.11
             309.02,165.11 315.00,165.11 315.00,165.11
             315.48,154.48 319.08,131.12 334.00,134.39
             336.33,134.90 337.95,135.88 340.00,137.00
             345.94,122.05 344.13,113.43 349.27,103.00
             356.96,87.41 373.36,79.63 371.52,64.00
             371.05,59.97 369.59,56.56 367.74,53.00
             364.97,47.68 362.23,44.83 359.00,40.00
             370.83,33.64 371.00,25.92 371.00,14.00
             377.75,13.60 379.78,11.93 383.00,6.00
             392.07,7.63 397.91,8.01 404.00,0.00 Z
           M 387.18,60.00
           C 389.26,58.99 392.30,57.17 394.77,58.30
             399.61,60.52 396.03,69.01 405.00,66.03
             408.45,64.89 413.96,62.06 415.86,58.90
             420.51,51.19 418.34,38.12 411.96,32.18
             408.03,28.53 403.18,25.48 398.02,28.74
             395.00,30.64 392.79,33.97 391.02,37.00
             388.55,41.22 388.41,42.40 387.18,47.00
             386.10,52.44 385.43,54.47 387.18,60.00 Z
           M 443.14,48.66
           C 437.23,52.60 441.51,58.60 445.78,57.16
             449.43,55.92 450.73,48.11 443.14,48.66 Z
           M 442.00,106.00
           C 448.46,105.84 449.27,105.08 455.00,102.29
             459.33,100.19 460.49,99.45 463.98,95.98
             466.63,93.35 469.85,89.86 470.36,86.00
             470.94,81.60 467.30,77.99 464.00,75.65
             456.83,70.57 441.66,71.10 435.79,77.64
             433.78,79.87 432.48,85.03 432.12,88.00
             432.12,88.00 432.12,90.98 432.12,90.98
             432.55,98.42 438.18,94.27 441.39,97.60
             443.36,99.65 442.33,103.45 442.00,106.00 Z
           M 331.02,146.58
           C 328.16,147.64 326.48,148.76 325.71,152.01
             325.16,154.29 325.98,157.55 328.97,156.66
             331.51,155.91 339.46,147.49 331.02,146.58 Z
           M 356.00,162.00
           C 351.04,165.56 348.25,168.25 346.00,174.00
             354.38,175.89 359.85,170.37 356.00,162.00 Z" />
</svg>
