<?xml version="1.0" encoding="UTF-8" standalone="no"?>
<!DOCTYPE svg PUBLIC "-//W3C//DTD SVG 20010904//EN"
              "http://www.w3.org/TR/2001/REC-SVG-20010904/DTD/svg10.dtd">

<svg xmlns="http://www.w3.org/2000/svg"
     width="18.1806in" height="21.625in"
     viewBox="0 0 1309 1557">
  <path id="VampireMouth"
        fill="none" stroke="black" stroke-width="1"
        d="M 413.00,1143.00
           C 413.00,1143.00 494.00,1153.17 494.00,1153.17
             494.00,1153.17 559.00,1159.00 559.00,1159.00
             559.00,1159.00 568.00,1159.00 568.00,1159.00
             568.00,1159.00 584.00,1160.00 584.00,1160.00
             584.00,1160.00 599.00,1161.04 599.00,1161.04
             599.00,1161.04 613.00,1161.04 613.00,1161.04
             613.00,1161.04 625.00,1162.00 625.00,1162.00
             625.00,1162.00 685.00,1162.00 685.00,1162.00
             685.00,1162.00 698.00,1161.02 698.00,1161.02
             698.00,1161.02 713.00,1161.02 713.00,1161.02
             713.00,1161.02 730.00,1160.00 730.00,1160.00
             730.00,1160.00 742.00,1159.09 742.00,1159.09
             742.00,1159.09 765.00,1157.91 765.00,1157.91
             765.00,1157.91 784.00,1156.09 784.00,1156.09
             811.23,1154.18 870.89,1147.76 897.00,1143.00
             893.70,1148.83 878.98,1158.78 873.00,1163.15
             852.63,1178.03 831.19,1191.69 809.00,1203.69
             809.00,1203.69 786.00,1215.24 786.00,1215.24
             783.63,1216.41 778.38,1218.36 777.02,1220.41
             775.78,1222.30 776.00,1225.78 776.00,1228.00
             776.00,1228.00 776.00,1325.00 776.00,1325.00
             769.47,1320.32 765.20,1314.91 759.95,1309.00
             750.41,1298.26 737.75,1282.07 730.05,1270.00
             730.05,1270.00 718.78,1251.00 718.78,1251.00
             717.40,1248.39 715.43,1243.45 712.79,1242.11
             710.02,1240.70 700.38,1243.33 697.00,1244.00
             688.63,1245.65 671.33,1247.90 663.00,1248.00
             645.72,1248.20 632.07,1247.28 615.00,1244.41
             610.94,1243.73 599.42,1240.37 596.39,1242.64
             594.62,1243.96 592.72,1247.97 591.58,1250.00
             591.58,1250.00 582.19,1266.00 582.19,1266.00
             573.85,1279.58 559.63,1298.20 548.93,1310.00
             544.07,1315.36 539.66,1321.85 533.00,1325.00
             533.00,1325.00 533.00,1228.00 533.00,1228.00
             533.00,1225.73 533.22,1222.34 531.98,1220.39
             530.53,1218.11 525.49,1216.00 523.00,1214.75
             523.00,1214.75 500.00,1203.22 500.00,1203.22
             478.07,1191.65 457.14,1177.71 437.00,1163.29
             430.70,1158.78 416.45,1149.31 413.00,1143.00 Z" />
  <path id="VampireEyes"
        fill="none" stroke="black" stroke-width="1"
        d="M 291.00,780.00
           C 291.00,780.00 337.00,789.58 337.00,789.58
             337.00,789.58 415.00,806.65 415.00,806.65
             415.00,806.65 546.00,835.58 546.00,835.58
             546.00,835.58 579.00,842.79 579.00,842.79
             581.71,843.37 590.48,844.79 592.02,846.73
             593.70,848.89 592.22,855.18 592.02,858.00
             591.24,869.53 587.33,883.64 582.24,894.00
             560.74,937.75 520.01,960.23 472.00,960.00
             450.77,959.90 424.41,946.88 407.00,935.33
             369.72,910.60 335.28,877.31 311.81,839.00
             301.17,821.63 291.06,800.76 291.00,780.00 Z
           M 1019.00,780.00
           C 1018.86,795.73 1014.95,811.17 1010.00,826.00
             996.76,865.68 969.85,905.88 937.00,931.79
             917.11,947.48 892.89,959.96 867.00,960.00
             845.07,960.03 822.75,957.46 802.00,949.95
             767.17,937.33 738.82,916.93 723.87,882.00
             720.59,874.34 718.90,865.23 717.86,857.00
             717.36,854.40 716.26,848.92 717.86,846.73
             719.54,844.78 728.28,843.38 731.00,842.79
             731.00,842.79 765.00,835.21 765.00,835.21
             765.00,835.21 898.00,806.00 898.00,806.00
             898.00,806.00 981.00,787.79 981.00,787.79
             981.00,787.79 1019.00,780.00 1019.00,780.00 Z" />
  <path id="VampireHead"
        fill="none" stroke="black" stroke-width="1"
        d="M 120.00,618.00
           C 120.00,618.00 117.15,596.00 117.15,596.00
             117.15,596.00 114.00,561.00 114.00,561.00
             114.00,561.00 113.00,543.00 113.00,543.00
             113.00,543.00 113.00,500.00 113.00,500.00
             113.00,500.00 113.96,488.00 113.96,488.00
             113.96,488.00 113.96,477.00 113.96,477.00
             113.96,477.00 114.91,467.00 114.91,467.00
             116.54,443.15 118.81,419.63 122.75,396.00
             137.79,305.80 169.22,224.39 230.28,155.00
             304.42,70.76 414.00,26.79 523.00,10.73
             548.60,6.96 574.18,4.09 600.00,2.96
             600.00,2.96 613.00,1.96 613.00,1.96
             613.00,1.96 627.00,1.96 627.00,1.96
             627.00,1.96 639.00,1.00 639.00,1.00
             639.00,1.00 680.00,1.00 680.00,1.00
             680.00,1.00 697.00,2.00 697.00,2.00
             697.00,2.00 729.00,3.00 729.00,3.00
             729.00,3.00 752.00,4.83 752.00,4.83
             752.00,4.83 770.00,6.17 770.00,6.17
             795.85,8.67 821.48,12.60 847.00,17.39
             938.85,34.61 1029.76,73.69 1091.57,146.00
             1172.77,240.98 1196.58,373.54 1198.00,495.00
             1198.00,495.00 1199.00,508.00 1199.00,508.00
             1199.00,508.00 1199.00,533.00 1199.00,533.00
             1199.00,533.00 1198.00,546.00 1198.00,546.00
             1198.00,546.00 1198.00,552.00 1198.00,552.00
             1198.00,552.00 1193.58,595.00 1193.58,595.00
             1193.58,595.00 1190.00,618.00 1190.00,618.00
             1203.61,612.59 1218.20,608.39 1233.00,609.04
             1239.56,609.32 1248.91,611.53 1255.00,614.01
             1289.21,627.95 1302.75,655.18 1307.28,690.00
             1307.28,690.00 1309.00,709.00 1309.00,709.00
             1309.00,709.00 1309.00,732.00 1309.00,732.00
             1308.97,748.11 1304.38,777.59 1301.42,794.00
             1295.20,828.50 1288.79,853.74 1277.67,887.00
             1270.65,907.99 1258.88,932.50 1248.31,952.00
             1228.85,987.89 1205.11,1023.18 1176.00,1052.00
             1163.43,1064.44 1149.25,1075.08 1134.00,1083.99
             1134.00,1083.99 1120.00,1091.14 1120.00,1091.14
             1117.18,1092.40 1113.72,1093.45 1112.01,1096.21
             1110.57,1098.53 1109.05,1110.48 1108.39,1114.00
             1108.39,1114.00 1099.63,1153.00 1099.63,1153.00
             1091.66,1184.47 1077.19,1221.92 1062.75,1251.00
             1023.07,1330.91 968.44,1394.05 899.00,1449.60
             873.35,1470.12 846.51,1489.07 818.00,1505.42
             771.63,1532.01 721.74,1552.40 668.00,1556.09
             668.00,1556.09 656.00,1557.00 656.00,1557.00
             656.00,1557.00 652.00,1557.00 652.00,1557.00
             652.00,1557.00 642.00,1556.09 642.00,1556.09
             585.22,1552.19 532.38,1529.83 484.00,1500.80
             457.69,1485.01 432.95,1467.36 409.00,1448.20
             335.62,1389.49 283.17,1325.53 242.26,1241.00
             228.48,1212.53 216.05,1176.72 208.37,1146.00
             208.37,1146.00 201.00,1112.00 201.00,1112.00
             200.37,1108.77 198.97,1098.40 197.69,1096.22
             196.08,1093.50 192.72,1092.51 190.00,1091.22
             190.00,1091.22 174.00,1082.99 174.00,1082.99
             157.12,1073.11 144.78,1062.78 131.00,1049.00
             105.20,1023.19 82.09,987.09 64.69,955.00
             54.79,936.73 41.64,909.50 35.00,890.00
             22.90,854.48 14.05,818.01 7.92,781.00
             7.92,781.00 2.04,738.00 2.04,738.00
             2.04,738.00 2.04,728.00 2.04,728.00
             2.04,728.00 1.00,718.00 1.00,718.00
             1.00,718.00 1.91,702.00 1.91,702.00
             3.57,677.80 7.93,650.49 25.17,632.04
             29.95,626.92 36.88,622.27 43.00,618.86
             48.66,615.71 54.73,613.24 61.00,611.63
             68.15,609.79 76.62,608.58 84.00,609.09
             96.11,609.92 108.77,613.53 120.00,618.00 Z
           M 1085.00,799.00
           C 1085.00,799.00 1084.00,731.00 1084.00,731.00
             1084.00,731.00 1084.00,700.00 1084.00,700.00
             1084.00,700.00 1083.00,683.00 1083.00,683.00
             1083.00,683.00 1083.00,663.00 1083.00,663.00
             1083.00,663.00 1082.00,646.00 1082.00,646.00
             1082.00,646.00 1081.00,614.00 1081.00,614.00
             1081.00,614.00 1080.00,598.00 1080.00,598.00
             1080.00,598.00 1079.09,587.00 1079.09,587.00
             1077.07,557.54 1074.49,528.28 1070.27,499.00
             1063.57,452.55 1050.65,394.79 1025.31,355.00
             1018.20,343.84 1012.19,335.95 1002.00,327.29
             994.20,320.67 988.02,317.25 979.00,312.75
             930.06,288.34 874.00,298.41 829.00,326.42
             795.60,347.22 768.30,377.21 745.58,409.00
             705.77,464.70 676.60,533.20 655.00,598.00
             655.00,598.00 645.31,571.00 645.31,571.00
             645.31,571.00 629.40,530.00 629.40,530.00
             616.34,497.92 599.30,464.50 581.19,435.00
             547.38,379.92 496.60,323.77 432.00,306.73
             412.23,301.52 399.94,301.77 380.00,302.00
             365.77,302.17 343.78,308.47 331.00,314.76
             315.54,322.36 303.90,329.60 292.59,343.00
             276.55,362.01 266.16,379.17 256.43,402.00
             240.79,438.68 232.80,487.31 228.83,527.00
             226.21,553.21 224.04,579.65 224.00,606.00
             224.00,606.00 223.00,623.00 223.00,623.00
             223.00,623.00 223.00,697.00 223.00,697.00
             223.00,697.00 224.00,712.00 224.00,712.00
             224.00,712.00 224.00,731.00 224.00,731.00
             224.00,731.00 224.96,743.00 224.96,743.00
             224.96,743.00 224.96,757.00 224.96,757.00
             224.96,757.00 226.00,772.00 226.00,772.00
             226.00,772.00 227.00,799.00 227.00,799.00
             227.00,799.00 201.00,774.01 201.00,774.01
             198.68,771.75 189.51,763.17 187.00,762.40
             184.43,761.61 176.47,764.46 173.00,764.83
             163.38,765.86 153.50,763.77 145.00,759.21
             129.80,751.05 119.36,730.96 102.00,726.00
             102.00,726.00 102.00,742.00 102.00,742.00
             102.03,758.83 111.77,799.71 116.58,817.00
             116.58,817.00 130.42,862.00 130.42,862.00
             144.27,898.71 173.51,950.46 200.09,979.00
             207.19,986.63 226.72,1004.02 236.00,1007.92
             236.00,1007.92 251.00,1011.03 251.00,1011.03
             262.71,1014.75 272.50,1022.53 278.93,1033.00
             286.18,1044.81 285.85,1056.79 287.17,1070.00
             287.17,1070.00 290.08,1091.00 290.08,1091.00
             294.99,1120.72 303.77,1150.23 315.42,1178.00
             359.17,1282.25 448.27,1372.88 549.00,1423.25
             570.14,1433.82 594.29,1444.19 617.00,1450.71
             627.56,1453.74 644.17,1457.82 655.00,1457.82
             663.69,1457.82 680.38,1454.21 689.00,1451.85
             728.85,1440.94 776.66,1416.89 811.00,1394.00
             892.20,1339.87 957.66,1265.36 995.58,1175.00
             1006.12,1149.87 1015.57,1117.95 1019.73,1091.00
             1019.73,1091.00 1022.83,1068.00 1022.83,1068.00
             1024.21,1053.79 1023.67,1043.66 1032.10,1031.00
             1038.67,1021.13 1048.74,1014.10 1060.00,1010.72
             1060.00,1010.72 1075.00,1007.44 1075.00,1007.44
             1088.28,1000.84 1103.67,986.57 1113.99,976.00
             1124.05,965.69 1135.27,950.10 1143.33,938.00
             1157.80,916.30 1175.05,884.47 1183.95,860.00
             1183.95,860.00 1197.37,812.00 1197.37,812.00
             1201.48,795.57 1209.98,755.80 1210.00,740.00
             1210.00,740.00 1210.00,724.00 1210.00,724.00
             1195.58,728.12 1185.18,743.38 1174.00,752.54
             1158.98,764.85 1144.07,766.24 1126.00,761.00
             1113.41,777.64 1101.08,786.59 1085.00,799.00 Z" />
</svg>
