<?xml version="1.0" standalone="no"?>
<!DOCTYPE svg PUBLIC "-//W3C//DTD SVG 20010904//EN"
 "http://www.w3.org/TR/2001/REC-SVG-20010904/DTD/svg10.dtd">
<svg version="1.0" xmlns="http://www.w3.org/2000/svg"
 width="512.000000pt" height="512.000000pt" viewBox="0 0 512.000000 512.000000"
 preserveAspectRatio="xMidYMid meet">

<g transform="translate(0.000000,512.000000) scale(0.100000,-0.100000)"
fill="#000000" stroke="none">
<path d="M1490 4858 c-314 -110 -695 -694 -1073 -1644 -105 -262 -105 -269
-13 -147 171 226 475 567 621 698 190 170 382 286 509 308 94 16 211 0 581
-77 171 -36 346 -68 390 -72 94 -8 209 8 485 67 405 87 510 101 610 80 83 -18
223 -91 345 -183 184 -137 499 -470 739 -781 55 -70 101 -126 103 -123 5 5
-78 221 -160 416 -359 853 -719 1373 -1011 1462 -81 25 -176 21 -303 -11 -101
-26 -161 -51 -373 -155 -194 -96 -306 -136 -379 -136 -75 0 -170 34 -361 127
-294 144 -401 181 -560 189 -71 4 -96 1 -150 -18z"/>
<path d="M326 2830 c22 -240 78 -432 190 -650 95 -183 177 -293 349 -465 203
-203 368 -318 628 -440 l107 -50 0 -101 c0 -133 18 -193 75 -249 85 -86 212
-94 307 -22 51 39 86 105 95 176 l6 53 36 -5 c20 -3 91 -11 158 -18 l121 -13
4 -151 c3 -138 5 -155 29 -200 14 -27 44 -64 67 -82 95 -72 222 -64 307 22 61
61 75 113 75 286 l0 137 43 7 c23 4 99 18 169 32 l128 25 30 -31 c100 -100
269 -24 270 121 0 9 10 20 23 24 43 13 256 123 338 175 213 133 455 358 591
549 85 120 186 314 232 449 39 112 81 305 89 411 l5 65 -15 -50 c-41 -143 -97
-240 -202 -349 -289 -301 -778 -511 -1404 -601 -1142 -163 -2330 145 -2727
707 -48 68 -87 150 -114 243 l-15 50 5 -55z"/>
<path d="M3307 633 c-101 -170 -121 -244 -81 -312 77 -131 285 -79 288 73 0
25 -10 65 -27 101 -32 69 -118 215 -127 215 -3 0 -27 -35 -53 -77z"/>
</g>
</svg>
