<?xml version="1.0" encoding="UTF-8" standalone="no"?>
<!DOCTYPE svg PUBLIC "-//W3C//DTD SVG 20010904//EN"
              "http://www.w3.org/TR/2001/REC-SVG-20010904/DTD/svg10.dtd">

<svg xmlns="http://www.w3.org/2000/svg"
     width="5.33333in" height="5.33333in"
     viewBox="0 0 480 480">
  <path id="VampireMouthLips"
        fill="#803545" stroke="none" stroke-width="1"
        d="M 30.00,201.56
           C 30.00,201.56 47.42,156.56 47.42,156.56
             60.99,124.19 79.42,86.30 100.20,58.12
             109.75,45.18 125.44,27.35 141.56,23.21
             145.41,22.23 151.52,22.45 155.62,22.50
             171.44,22.69 192.26,32.45 206.25,39.62
             216.26,44.75 228.52,51.70 240.00,51.70
             251.53,51.70 265.62,44.14 275.62,38.73
             287.76,32.17 309.70,22.67 323.44,22.50
             327.67,22.45 334.53,22.21 338.44,23.21
             355.04,27.47 370.69,45.65 380.35,59.06
             401.90,89.00 418.35,122.63 432.58,156.56
             432.58,156.56 450.00,201.56 450.00,201.56
             445.38,197.71 433.81,182.02 429.19,176.25
             413.51,156.69 386.76,127.38 366.56,113.17
             353.47,103.97 342.68,97.31 326.25,97.50
             304.42,97.75 262.66,112.47 240.00,112.47
             217.82,112.47 175.27,97.75 153.75,97.50
             137.32,97.31 126.53,103.97 113.44,113.17
             91.98,128.26 66.91,156.66 50.08,177.19
             45.22,183.12 34.91,197.47 30.00,201.56 Z
           M 397.15,272.45
           C 397.15,272.45 415.31,259.79 415.31,259.79
             431.01,247.72 447.32,229.77 449.08,209.06
             450.87,213.61 449.63,218.42 449.08,223.12
             447.82,234.60 444.04,248.91 439.87,259.69
             424.57,299.17 395.28,330.25 359.06,351.57
             349.67,357.10 340.33,362.02 330.00,365.62M 330.33,365.00
           C 314.33,373.67 327.00,367.00 302.33,375.67
             292.67,378.00 288.00,379.67 270.00,381.67
             254.67,382.67 251.33,383.67 224.67,382.33
             215.67,382.33 204.00,381.67 196.67,379.67
             163.33,371.00 169.00,372.67 149.00,365.33
             135.37,360.57 122.61,352.99 110.62,345.00
             73.13,320.01 45.31,285.03 34.34,240.94
             31.58,229.88 30.00,220.50 30.00,209.06
             30.00,209.06 35.66,225.94 35.66,225.94
             38.88,233.20 46.09,242.74 51.60,248.44
             56.78,253.78 64.12,259.57 70.31,263.75
             72.97,265.54 81.19,270.58 82.85,272.37
             82.85,272.37 119.25,289.50 119.25,289.50
             149.75,300.75 178.25,300.75 197.75,305.25
             226.75,308.00 208.50,306.00 221.25,307.50
             241.25,309.25 287.75,304.75 305.50,303.25
             321.48,299.11 347.25,293.25 347.25,293.25
             347.25,293.25 367.25,286.50 367.25,286.50
             367.25,286.50 398.00,272.25 398.00,272.25" />
  <path id="VampireMouthBlood"
        fill="#800" stroke="none" stroke-width="1"
        d="M 361.91,268.73
           C 362.55,267.26 360.55,256.36 363.55,251.36
             366.27,248.00 363.94,243.36 366.27,242.09
             364.61,232.42 368.38,241.08 371.36,242.18
             380.36,255.52 380.33,243.00 385.33,259.33
             393.00,264.00 396.23,272.53 394.44,277.50
             393.68,279.62 391.30,283.08 389.98,285.00
             380.35,298.97 368.17,307.73 353.44,315.65
             353.44,315.65 338.44,322.20 338.44,322.20
             336.01,323.11 332.38,324.21 330.96,326.50
             329.80,328.37 330.00,331.59 330.00,333.75
             330.00,333.75 330.00,366.56 330.00,366.56
             329.91,385.26 310.70,385.49 304.03,378.44
             298.87,372.98 300.09,361.42 300.00,354.38
             299.78,338.55 282.23,330.98 272.48,345.00
             269.79,348.86 270.01,351.81 270.00,356.25
             270.00,356.25 270.00,405.94 270.00,405.94
             269.74,427.46 242.11,435.49 229.25,419.05
             225.18,413.84 225.01,410.32 225.00,404.06
             225.00,404.06 225.00,363.75 225.00,363.75
             224.99,360.42 225.18,357.45 223.64,354.38
             218.11,343.33 205.83,341.94 198.18,351.58
             192.95,358.16 195.10,374.92 195.00,383.44
             194.74,404.96 167.11,412.99 154.25,396.55
             150.18,391.34 150.01,387.82 150.00,381.56
             150.00,381.56 150.00,333.75 150.00,333.75
             150.00,331.56 150.19,328.37 149.04,326.46
             147.53,323.95 144.14,323.09 141.56,322.11
             135.75,319.88 130.12,317.67 124.69,314.61
             106.17,304.14 92.07,292.86 83.44,272.81
             83.44,272.81 98.44,280.02 98.44,280.02
             109.32,285.02 120.71,289.34 132.19,292.76
             186.96,309.08 258.07,312.35 314.06,300.94
             332.03,297.27 350.45,292.73 367.50,285.94
             369.38,282.96 368.02,284.32 369.21,282.79
             370.06,279.38 368.64,279.82 365.73,278.00
             362.27,275.27 362.45,275.18 362.27,272.64
             362.27,272.64 362.04,271.53 361.91,268.73 Z
           M 314.06,412.50
           C 314.06,412.50 315.94,412.50 315.94,412.50
             320.84,419.86 329.58,432.72 329.96,441.56
             330.21,447.18 329.12,451.53 324.34,455.02
             315.18,461.69 300.65,455.94 300.04,444.38
             299.47,433.42 308.19,421.30 314.06,412.50 Z
           M 371.93,287.21M 371.77,293.18" />
  <path id="VampireMouthTeeth"
        fill="#f1f1f1" stroke="#000" stroke-width="1"
        d="M 120.00,202.50
           C 98.76,200.71 88.13,177.88 84.38,159.38
             83.51,155.13 81.64,144.48 83.06,140.62
             84.28,137.32 93.48,129.52 96.56,126.65
             109.22,114.87 133.70,96.55 151.88,97.58
             180.80,99.23 215.68,112.81 242.81,112.50
             250.24,112.41 260.66,110.05 268.12,108.56
             286.27,104.93 310.17,98.61 328.12,97.58
             346.53,96.54 370.57,114.82 383.44,126.64
             386.92,129.83 395.48,136.66 396.94,140.62
             398.36,144.49 396.49,155.12 395.62,159.38
             391.87,177.88 381.24,200.71 360.00,202.50
             360.00,202.50 360.00,157.50 360.00,157.50
             355.64,159.83 353.93,162.76 348.75,164.26
             344.32,165.54 324.66,165.03 318.75,165.00
             314.49,164.98 311.37,164.86 307.51,162.74
             304.09,160.86 302.39,158.09 300.00,158.09
             297.61,158.09 295.91,160.86 292.49,162.74
             288.31,165.04 284.90,164.99 280.31,165.00
             280.31,165.00 252.19,164.50 252.19,164.50
             244.69,162.77 243.23,158.09 240.00,158.09
             236.77,158.09 235.31,162.77 227.81,164.50
             227.81,164.50 199.69,165.00 199.69,165.00
             195.10,164.99 191.69,165.04 187.51,162.74
             184.09,160.86 182.39,158.09 180.00,158.09
             177.86,158.09 175.32,161.00 173.40,162.20
             169.67,164.55 166.47,164.94 162.19,165.00
             156.37,165.07 135.56,165.51 131.25,164.26
             126.07,162.76 124.36,159.83 120.00,157.50
             120.00,157.50 120.00,202.50 120.00,202.50 Z
           M 360.00,232.50
           C 375.40,233.79 385.27,246.17 390.74,259.69
             391.78,262.26 394.96,269.98 394.06,272.45
             393.32,274.51 389.98,275.86 388.12,276.80
             388.12,276.80 369.38,285.00 369.38,285.00
             339.22,297.03 305.10,303.45 272.81,305.71
             272.81,305.71 263.44,306.56 263.44,306.56
             263.44,306.56 243.75,307.50 243.75,307.50
             243.75,307.50 234.38,307.50 234.38,307.50
             234.38,307.50 225.00,306.60 225.00,306.60
             225.00,306.60 215.62,306.60 215.62,306.60
             215.62,306.60 196.88,304.84 196.88,304.84
             170.26,302.00 147.35,297.55 121.88,289.06
             115.34,286.88 91.94,277.96 87.47,274.36
             83.51,271.18 87.71,263.43 89.25,259.69
             94.85,246.10 104.43,233.81 120.00,232.50
             120.00,232.50 120.00,270.00 120.00,270.00
             123.34,267.57 126.25,264.34 130.31,263.11
             130.31,263.11 163.12,262.50 163.12,262.50
             167.30,262.52 169.66,262.51 173.35,264.82
             175.26,266.02 177.85,268.90 180.00,268.90
             182.43,268.90 184.09,266.19 187.54,264.30
             191.18,262.30 193.84,262.51 197.81,262.69
             197.81,262.69 228.75,262.69 228.75,262.69
             234.87,264.24 236.86,268.90 240.00,268.90
             242.43,268.90 244.09,266.19 247.54,264.30
             251.17,262.30 253.84,262.51 257.81,262.69
             257.81,262.69 288.75,262.69 288.75,262.69
             294.87,264.24 296.86,268.90 300.00,268.90
             302.43,268.90 304.09,266.19 307.54,264.30
             311.17,262.30 313.84,262.51 317.81,262.50
             317.81,262.50 349.69,263.11 349.69,263.11
             353.75,264.34 356.66,267.57 360.00,270.00
             360.00,270.00 360.00,232.50 360.00,232.50 Z" />
  <path id="VampireMouthInside"
        fill="none" stroke="black" stroke-width="1"
        d="M 81.56,140.62
           C 81.56,140.62 84.06,158.44 84.06,158.44
             87.87,176.60 99.12,200.62 120.00,202.50
             120.00,202.50 120.00,157.50 120.00,157.50
             125.11,159.90 126.58,162.79 131.25,164.25
             135.36,165.53 155.58,165.03 161.25,165.00
             165.08,164.98 168.10,164.99 171.56,163.04
             174.84,161.20 177.10,158.09 180.00,158.09
             182.90,158.09 185.16,161.20 188.44,163.04
             192.18,165.14 195.57,164.99 199.69,165.00
             199.69,165.00 227.81,164.50 227.81,164.50
             234.20,162.96 236.19,158.09 240.00,158.09
             242.90,158.09 245.16,161.20 248.44,163.04
             252.18,165.14 255.57,164.99 259.69,165.00
             259.69,165.00 287.81,164.50 287.81,164.50
             294.20,162.96 296.19,158.09 300.00,158.09
             302.66,158.09 305.32,161.07 307.50,162.48
             311.02,164.74 313.76,164.94 317.81,165.00
             323.49,165.07 344.65,165.53 348.75,164.25
             353.42,162.79 354.89,159.90 360.00,157.50
             360.00,157.50 360.00,202.50 360.00,202.50
             386.82,200.08 397.50,163.26 397.50,140.62
             403.81,145.14 406.59,149.20 411.64,154.69
             411.64,154.69 434.80,181.88 434.80,181.88
             437.93,185.83 445.88,198.40 450.00,199.69
             450.00,199.69 450.00,203.44 450.00,203.44
             449.95,235.60 420.81,259.94 394.69,273.75
             393.13,256.47 378.32,234.15 360.00,232.50
             360.00,232.50 360.00,246.56 360.00,246.56
             350.62,241.17 346.49,237.35 335.62,232.92
             302.84,219.58 265.57,217.44 230.62,217.50
             230.62,217.50 219.38,218.35 219.38,218.35
             193.88,220.10 168.34,223.39 144.38,232.92
             134.00,237.05 129.05,241.36 120.00,246.56
             120.00,246.56 120.00,232.50 120.00,232.50
             101.68,234.15 86.87,256.47 85.31,273.75
             59.18,259.92 30.05,235.62 30.00,203.44
             30.00,203.44 30.00,199.69 30.00,199.69
             32.77,198.74 34.04,196.33 35.82,194.06
             35.82,194.06 46.05,180.94 46.05,180.94
             56.18,167.83 69.86,152.33 81.56,140.62 Z" />
  <path id="VampireMouthTongue"
        fill="#f55" stroke="#000" stroke-width="1"
        d="M 120.00,270.00
           C 120.00,270.00 120.00,254.06 120.00,254.06
             120.07,244.71 124.59,242.85 132.19,238.53
             141.68,233.12 159.79,227.25 170.62,225.00
             184.43,222.14 205.51,218.50 219.38,218.44
             219.38,218.44 242.81,217.50 242.81,217.50
             242.81,217.50 262.50,218.44 262.50,218.44
             273.05,218.57 296.83,222.25 307.50,224.61
             319.72,227.30 337.06,232.34 347.81,238.53
             355.28,242.82 359.93,244.88 360.00,254.06
             360.00,254.06 360.00,270.00 360.00,270.00
             354.94,267.63 353.04,264.45 348.75,263.11
             348.75,263.11 317.81,262.50 317.81,262.50
             314.15,262.52 311.74,262.43 308.44,264.38
             305.91,265.87 302.80,269.41 300.00,269.41
             297.20,269.41 294.09,265.87 291.56,264.38
             288.00,262.28 285.20,262.51 281.25,262.69
             281.25,262.69 252.19,262.69 252.19,262.69
             246.23,264.23 243.83,269.41 240.00,269.41
             237.20,269.41 234.09,265.87 231.56,264.38
             228.00,262.28 225.20,262.51 221.25,262.69
             221.25,262.69 192.19,262.69 192.19,262.69
             186.22,264.23 183.83,269.41 180.00,269.41
             177.34,269.41 174.65,266.41 172.50,264.98
             169.10,262.71 167.07,262.56 163.12,262.50
             163.12,262.50 142.50,262.50 142.50,262.50
             139.47,262.50 133.96,262.27 131.25,263.11
             126.96,264.45 125.06,267.63 120.00,270.00 Z" />
</svg>
