<?xml version="1.0" encoding="UTF-8" standalone="no"?>
<!DOCTYPE svg PUBLIC "-//W3C//DTD SVG 20010904//EN"
              "http://www.w3.org/TR/2001/REC-SVG-20010904/DTD/svg10.dtd">

<svg xmlns="http://www.w3.org/2000/svg"
     width="135.45mm" height="135.45mm"
     viewBox="0 0 512 512">
  <path id="VampireMouthBlood"
        fill="#800" stroke="black" stroke-width="1"
        d="M 384.00,248.00
           C 402.24,248.41 412.56,264.35 417.74,280.00
             419.35,282.04 422.65,290.70 420.74,296.00
             419.93,298.26 417.39,301.95 415.98,304.00
             405.71,318.90 392.72,328.25 377.00,336.69
             377.00,336.69 361.00,343.68 361.00,343.68
             358.41,344.65 354.54,345.82 353.02,348.27
             351.79,350.26 352.00,353.70 352.00,356.00
             352.00,356.00 352.00,391.00 352.00,391.00
             351.90,410.94 331.41,411.19 324.30,403.67
             318.79,397.85 320.10,385.51 320.00,378.00
             319.77,361.12 301.05,353.05 290.65,368.00
             287.78,372.12 288.01,375.26 288.00,380.00
             288.00,380.00 288.00,433.00 288.00,433.00
             287.72,455.96 258.25,464.52 244.53,446.99
             240.19,441.43 240.01,437.68 240.00,431.00
             240.00,431.00 240.00,388.00 240.00,388.00
             239.99,384.45 240.19,381.28 238.55,378.00
             232.65,366.22 219.55,364.74 211.39,375.02
             205.81,382.04 208.11,399.92 208.00,409.00
             207.72,431.96 178.25,440.52 164.53,422.99
             160.19,417.43 160.01,413.68 160.00,407.00
             160.00,407.00 160.00,356.00 160.00,356.00
             160.00,353.66 160.20,350.26 158.98,348.22
             157.37,345.55 153.75,344.63 151.00,343.58
             144.80,341.21 138.79,338.85 133.00,335.58
             113.25,324.42 98.21,312.38 89.00,291.00
             89.00,291.00 105.00,298.69 105.00,298.69
             116.61,304.02 128.76,308.63 141.00,312.28
             199.42,329.69 275.28,333.17 335.00,321.00
             354.16,317.09 373.81,312.25 392.00,305.00
             394.00,301.82 392.55,303.27 393.82,301.64
             394.73,298.00 392.43,300.45 391.27,296.36
             387.45,292.00 390.18,293.45 384.00,291.00
             384.00,291.00 384.00,248.00 384.00,248.00 Z
           M 335.00,440.00
           C 335.00,440.00 337.00,440.00 337.00,440.00
             342.23,447.85 351.55,461.57 351.96,471.00
             352.22,476.99 351.06,481.63 345.96,485.35
             336.19,492.47 320.69,486.34 320.04,474.00
             319.43,462.31 328.74,449.39 335.00,440.00 Z
           M 396.73,306.36M 396.55,312.73" />
  <path id="VampireMouthLips"
        fill="#803545" stroke="black" stroke-width="1"
        d="M 32.00,215.00
           C 32.00,215.00 50.58,167.00 50.58,167.00
             65.06,132.47 84.72,92.05 106.88,62.00
             117.07,48.19 133.80,29.17 151.00,24.76
             155.10,23.71 161.62,23.95 166.00,24.00
             182.87,24.20 205.08,34.61 220.00,42.26
             230.68,47.73 243.76,55.15 256.00,55.15
             268.30,55.15 283.33,47.08 294.00,41.31
             306.94,34.31 330.35,24.18 345.00,24.00
             349.52,23.95 356.83,23.69 361.00,24.76
             378.71,29.30 395.40,48.69 405.71,63.00
             428.69,94.93 446.24,130.81 461.42,167.00
             461.42,167.00 480.00,215.00 480.00,215.00
             475.07,210.89 462.73,194.15 457.80,188.00
             441.08,167.14 412.54,135.87 391.00,120.72
             377.03,110.90 365.53,103.80 348.00,104.00
             324.71,104.27 280.17,119.97 256.00,119.97
             232.34,119.97 186.95,104.27 164.00,104.00
             146.47,103.80 134.97,110.90 121.00,120.72
             98.11,136.81 71.37,167.10 53.42,189.00
             48.23,195.33 37.24,210.63 32.00,215.00 Z
           M 32.00,223.00
           C 32.00,223.00 38.04,241.00 38.04,241.00
             41.47,248.75 49.16,258.92 55.04,265.00
             60.56,270.70 68.39,276.88 75.00,281.33
             77.83,283.24 86.60,288.62 88.37,290.53
             88.37,290.53 95.75,303.00 95.75,303.00
             99.87,309.13 108.29,317.86 114.00,322.54
             121.29,328.51 133.31,335.80 142.00,339.58
             145.26,340.99 157.46,345.29 158.98,347.50
             160.23,349.32 160.00,352.83 160.00,355.00
             160.00,355.00 160.00,390.00 160.00,390.00
             145.46,384.92 130.78,376.52 118.00,368.00
             78.01,341.34 48.33,304.03 36.63,257.00
             33.69,245.20 32.00,235.20 32.00,223.00 Z
           M 479.02,223.00
           C 480.93,227.85 479.61,232.98 479.02,238.00
             477.68,250.24 473.64,265.50 469.19,277.00
             452.87,319.11 421.63,352.27 383.00,375.01
             372.98,380.91 363.02,386.15 352.00,390.00
             352.00,390.00 352.00,355.00 352.00,355.00
             352.01,352.43 351.63,348.79 353.60,346.84
             355.13,345.32 366.15,341.40 369.00,340.14
             377.48,336.39 387.62,330.46 395.00,324.87
             401.68,319.81 410.76,310.84 415.56,304.00
             415.56,304.00 423.63,290.61 423.63,290.61
             423.63,290.61 443.00,277.11 443.00,277.11
             459.74,264.23 477.14,245.09 479.02,223.00 Z
           M 288.00,406.00
           C 288.00,406.00 288.00,383.00 288.00,383.00
             288.00,378.48 287.58,373.15 289.57,369.00
             295.08,357.50 311.57,356.99 317.91,368.00
             320.88,373.15 319.93,382.03 320.00,388.00
             320.07,393.89 320.78,394.57 322.00,400.00
             312.10,402.87 298.25,405.91 288.00,406.00 Z
           M 240.00,408.00
           C 240.00,408.00 217.00,405.58 217.00,405.58
             214.82,405.25 210.41,405.02 208.99,403.26
             207.74,401.71 208.00,397.95 208.00,396.00
             207.99,388.36 206.63,379.12 212.22,373.11
             219.17,365.63 231.53,366.57 237.30,375.02
             240.13,379.16 239.99,383.24 240.00,388.00
             240.00,388.00 240.00,408.00 240.00,408.00 Z" />
  <path id="VampireMouthTeeth"
        fill="#fff" stroke="black" stroke-width="1"
        d="M 128.00,216.00
           C 105.34,214.09 94.01,189.74 90.00,170.00
             89.08,165.47 87.08,154.11 88.60,150.00
             89.90,146.47 99.71,138.15 103.00,135.09
             116.50,122.53 142.61,102.99 162.00,104.09
             192.85,105.84 230.06,120.33 259.00,120.00
             266.92,119.90 278.04,117.39 286.00,115.80
             305.35,111.93 330.85,105.18 350.00,104.09
             369.63,102.98 395.28,122.47 409.00,135.08
             412.71,138.49 421.84,145.77 423.40,150.00
             424.92,154.12 422.92,165.46 422.00,170.00
             417.99,189.74 406.66,214.09 384.00,216.00
             384.00,216.00 384.00,168.00 384.00,168.00
             379.35,170.48 377.53,173.61 372.00,175.21
             367.27,176.58 346.30,176.03 340.00,176.00
             335.46,175.98 332.13,175.85 328.01,173.59
             324.36,171.58 322.55,168.63 320.00,168.63
             317.45,168.63 315.64,171.58 311.99,173.59
             307.53,176.04 303.89,175.99 299.00,176.00
             299.00,176.00 269.00,175.47 269.00,175.47
             261.00,173.62 259.45,168.63 256.00,168.63
             252.55,168.63 251.00,173.62 243.00,175.47
             243.00,175.47 213.00,176.00 213.00,176.00
             208.11,175.99 204.47,176.04 200.01,173.59
             196.36,171.58 194.55,168.63 192.00,168.63
             189.72,168.63 187.01,171.73 184.96,173.01
             180.98,175.52 177.57,175.94 173.00,176.00
             166.79,176.07 144.60,176.54 140.00,175.21
             134.47,173.61 132.65,170.48 128.00,168.00
             128.00,168.00 128.00,216.00 128.00,216.00 Z
           M 384.00,248.00
           C 400.43,249.38 410.96,262.58 416.79,277.00
             417.90,279.74 421.29,287.98 420.33,290.61
             419.54,292.81 415.98,294.25 414.00,295.25
             414.00,295.25 394.00,304.00 394.00,304.00
             361.83,316.83 325.44,323.68 291.00,326.09
             291.00,326.09 281.00,327.00 281.00,327.00
             281.00,327.00 260.00,328.00 260.00,328.00
             260.00,328.00 250.00,328.00 250.00,328.00
             250.00,328.00 240.00,327.04 240.00,327.04
             240.00,327.04 230.00,327.04 230.00,327.04
             230.00,327.04 210.00,325.16 210.00,325.16
             181.61,322.13 157.17,317.39 130.00,308.33
             123.03,306.01 98.07,296.49 93.30,292.65
             89.08,289.26 93.56,280.99 95.20,277.00
             101.17,262.51 111.39,249.40 128.00,248.00
             128.00,248.00 128.00,288.00 128.00,288.00
             131.56,285.41 134.67,281.96 139.00,280.65
             139.00,280.65 174.00,280.00 174.00,280.00
             178.45,280.02 180.97,280.01 184.91,282.48
             186.94,283.75 189.71,286.83 192.00,286.83
             194.59,286.83 196.36,283.94 200.04,281.92
             203.92,279.79 206.76,280.01 211.00,280.20
             211.00,280.20 244.00,280.20 244.00,280.20
             250.53,281.86 252.65,286.83 256.00,286.83
             258.59,286.83 260.36,283.94 264.04,281.92
             267.92,279.79 270.76,280.01 275.00,280.20
             275.00,280.20 308.00,280.20 308.00,280.20
             314.53,281.86 316.65,286.83 320.00,286.83
             322.59,286.83 324.36,283.94 328.04,281.92
             331.92,279.79 334.76,280.01 339.00,280.00
             339.00,280.00 373.00,280.65 373.00,280.65
             377.33,281.96 380.44,285.41 384.00,288.00
             384.00,288.00 384.00,248.00 384.00,248.00 Z" />
  <path id="VampireMouthInside"
        fill="none" stroke="none" stroke-width="1"
        d="M 87.00,150.00
           C 87.00,150.00 89.66,169.00 89.66,169.00
             93.73,188.37 105.73,213.99 128.00,216.00
             128.00,216.00 128.00,168.00 128.00,168.00
             133.45,170.56 135.02,173.64 140.00,175.20
             144.38,176.57 165.95,176.03 172.00,176.00
             176.08,175.98 179.31,175.99 183.00,173.91
             186.50,171.95 188.91,168.63 192.00,168.63
             195.09,168.63 197.50,171.95 201.00,173.91
             204.99,176.15 208.61,175.99 213.00,176.00
             213.00,176.00 243.00,175.47 243.00,175.47
             249.81,173.82 251.94,168.63 256.00,168.63
             259.09,168.63 261.50,171.95 265.00,173.91
             268.99,176.15 272.61,175.99 277.00,176.00
             277.00,176.00 307.00,175.47 307.00,175.47
             313.81,173.82 315.94,168.63 320.00,168.63
             322.84,168.63 325.68,171.81 328.00,173.31
             331.76,175.72 334.68,175.94 339.00,176.00
             345.06,176.07 367.63,176.57 372.00,175.20
             376.98,173.64 378.55,170.56 384.00,168.00
             384.00,168.00 384.00,216.00 384.00,216.00
             412.61,213.42 424.00,174.14 424.00,150.00
             430.73,154.82 433.70,159.15 439.08,165.00
             439.08,165.00 463.79,194.00 463.79,194.00
             467.12,198.22 475.60,211.63 480.00,213.00
             480.00,213.00 480.00,217.00 480.00,217.00
             479.95,251.31 448.86,277.27 421.00,292.00
             419.34,273.57 403.54,249.76 384.00,248.00
             384.00,248.00 384.00,263.00 384.00,263.00
             374.00,257.25 369.59,253.17 358.00,248.45
             323.03,234.22 283.28,231.94 246.00,232.00
             246.00,232.00 234.00,232.91 234.00,232.91
             206.81,234.77 179.56,238.28 154.00,248.45
             142.93,252.85 137.65,257.45 128.00,263.00
             128.00,263.00 128.00,248.00 128.00,248.00
             108.46,249.76 92.66,273.57 91.00,292.00
             63.12,277.25 32.05,251.33 32.00,217.00
             32.00,217.00 32.00,213.00 32.00,213.00
             34.96,211.99 36.31,209.42 38.21,207.00
             38.21,207.00 49.12,193.00 49.12,193.00
             59.93,179.02 74.52,162.48 87.00,150.00 Z" />
  <path id="VampireMouthTongue"
        fill="#f55" stroke="black" stroke-width="1"
        d="M 128.00,288.00
           C 128.00,288.00 128.00,271.00 128.00,271.00
             128.07,261.02 132.90,259.04 141.00,254.43
             151.13,248.66 170.44,242.40 182.00,240.00
             196.72,236.95 219.21,233.07 234.00,233.00
             234.00,233.00 259.00,232.00 259.00,232.00
             259.00,232.00 280.00,233.00 280.00,233.00
             291.25,233.14 316.62,237.07 328.00,239.58
             341.03,242.45 359.53,247.83 371.00,254.43
             378.97,259.01 383.93,261.21 384.00,271.00
             384.00,271.00 384.00,288.00 384.00,288.00
             378.60,285.47 376.58,282.08 372.00,280.65
             372.00,280.65 339.00,280.00 339.00,280.00
             335.09,280.02 332.52,279.93 329.00,282.01
             326.30,283.59 322.99,287.37 320.00,287.37
             317.01,287.37 313.70,283.59 311.00,282.01
             307.20,279.77 304.21,280.01 300.00,280.20
             300.00,280.20 269.00,280.20 269.00,280.20
             262.64,281.85 260.09,287.37 256.00,287.37
             253.01,287.37 249.70,283.59 247.00,282.01
             243.20,279.77 240.21,280.01 236.00,280.20
             236.00,280.20 205.00,280.20 205.00,280.20
             198.64,281.85 196.09,287.37 192.00,287.37
             189.16,287.37 186.29,284.17 184.00,282.64
             180.37,280.22 178.21,280.06 174.00,280.00
             174.00,280.00 152.00,280.00 152.00,280.00
             148.77,280.00 142.89,279.75 140.00,280.65
             135.42,282.08 133.40,285.47 128.00,288.00 Z" />
</svg>
