<?xml version="1.0" encoding="UTF-8" standalone="no"?>
<!DOCTYPE svg PUBLIC "-//W3C//DTD SVG 20010904//EN"
              "http://www.w3.org/TR/2001/REC-SVG-20010904/DTD/svg10.dtd">

<svg xmlns="http://www.w3.org/2000/svg"
     width="3.03333in" height="1.11111in"
     viewBox="0 0 273 100">
  <path id="1floor"
        fill="none" stroke="black" stroke-width="1"
        d="M 14.22,0.61
           C 20.18,0.61 25.28,0.98 31.06,2.62
             31.06,2.62 33.50,3.31 33.50,3.31
             33.50,3.31 36.03,4.47 36.03,4.47
             36.03,4.47 35.48,1.44 35.48,1.44
             42.97,1.44 50.68,1.05 58.12,1.76
             58.12,1.76 69.15,3.26 69.15,3.26
             69.15,3.26 71.38,3.96 71.38,3.96
             71.38,3.96 74.40,4.54 74.40,4.54
             74.40,4.54 77.17,5.30 77.17,5.30
             77.17,5.30 76.34,1.44 76.34,1.44
             76.34,1.44 93.18,1.44 93.18,1.44
             93.18,1.44 96.49,1.72 96.49,1.72
             96.49,1.72 98.98,1.72 98.98,1.72
             98.98,1.72 109.99,3.35 109.99,3.35
             109.99,3.35 112.50,4.09 112.50,4.09
             112.50,4.09 115.54,4.61 115.54,4.61
             115.54,4.61 129.07,8.54 129.07,8.54
             129.07,8.54 132.13,10.08 132.13,10.08
             132.13,10.08 136.52,11.51 136.52,11.51
             136.52,11.51 140.91,10.08 140.91,10.08
             140.91,10.08 143.98,8.54 143.98,8.54
             143.98,8.54 157.50,4.61 157.50,4.61
             157.50,4.61 160.54,4.09 160.54,4.09
             160.54,4.09 163.05,3.35 163.05,3.35
             163.05,3.35 174.07,1.72 174.07,1.72
             174.07,1.72 176.55,1.72 176.55,1.72
             176.55,1.72 179.86,1.44 179.86,1.44
             179.86,1.44 196.71,1.44 196.71,1.44
             196.71,1.44 195.88,5.30 195.88,5.30
             195.88,5.30 198.64,4.54 198.64,4.54
             198.64,4.54 201.66,3.96 201.66,3.96
             201.66,3.96 203.89,3.26 203.89,3.26
             203.89,3.26 214.93,1.76 214.93,1.76
             222.37,1.05 230.08,1.44 237.56,1.44
             237.56,1.44 237.01,4.47 237.01,4.47
             237.01,4.47 239.54,3.31 239.54,3.31
             239.54,3.31 241.98,2.62 241.98,2.62
             247.76,0.98 252.86,0.61 258.82,0.61
             258.82,0.61 257.72,6.68 257.72,6.68
             257.72,6.68 262.96,6.68 262.96,6.68
             262.49,9.58 257.96,10.46 257.25,13.31
             256.99,14.35 257.30,15.84 257.39,16.90
             257.39,16.90 257.88,21.87 257.88,21.87
             258.58,26.64 260.37,32.81 262.71,37.02
             262.71,37.02 264.42,39.53 264.42,39.53
             264.42,39.53 266.09,42.57 266.09,42.57
             266.09,42.57 272.35,49.75 272.35,49.75
             268.45,52.54 266.42,55.95 264.04,59.95
             264.04,59.95 262.71,61.92 262.71,61.92
             259.58,67.69 257.24,76.01 257.17,82.60
             257.15,84.09 256.88,86.37 257.80,87.57
             259.19,89.36 262.63,90.47 262.96,92.82
             262.96,92.82 257.72,92.82 257.72,92.82
             257.72,92.82 258.82,98.34 258.82,98.34
             253.43,98.34 248.92,98.05 243.64,96.78
             242.17,96.42 242.28,96.26 241.13,95.84
             241.13,95.84 236.46,94.47 236.46,94.47
             236.46,94.47 237.56,99.17 237.56,99.17
             229.27,99.17 220.97,99.39 212.72,98.57
             212.72,98.57 200.03,96.55 200.03,96.55
             198.85,96.30 198.61,95.85 195.88,95.30
             195.88,95.30 196.71,99.17 196.71,99.17
             196.71,99.17 180.69,99.17 180.69,99.17
             180.69,99.17 177.38,98.89 177.38,98.89
             177.38,98.89 174.90,98.89 174.90,98.89
             170.98,98.60 162.97,97.39 159.18,96.45
             159.18,96.45 157.22,95.81 157.22,95.81
             157.22,95.81 145.91,92.41 145.91,92.41
             145.91,92.41 143.42,91.73 143.42,91.73
             141.30,90.94 138.67,89.00 136.52,89.00
             134.37,89.00 131.75,90.94 129.62,91.73
             129.62,91.73 127.13,92.41 127.13,92.41
             127.13,92.41 115.83,95.81 115.83,95.81
             115.83,95.81 113.86,96.45 113.86,96.45
             110.07,97.39 102.06,98.60 98.15,98.89
             98.15,98.89 95.66,98.89 95.66,98.89
             95.66,98.89 92.35,99.17 92.35,99.17
             92.35,99.17 76.34,99.17 76.34,99.17
             76.34,99.17 77.17,95.30 77.17,95.30
             74.43,95.85 74.20,96.30 73.01,96.55
             73.01,96.55 60.33,98.57 60.33,98.57
             52.07,99.39 43.77,99.17 35.48,99.17
             35.48,99.17 36.58,94.47 36.58,94.47
             36.58,94.47 31.91,95.84 31.91,95.84
             30.77,96.26 30.87,96.42 29.40,96.78
             24.12,98.05 19.61,98.34 14.22,98.34
             14.22,98.34 15.33,92.82 15.33,92.82
             15.33,92.82 10.08,92.82 10.08,92.82
             10.42,90.47 13.85,89.36 15.24,87.57
             16.16,86.37 15.89,84.09 15.88,82.60
             15.80,76.01 13.46,67.69 10.33,61.92
             10.33,61.92 9.00,59.95 9.00,59.95
             6.62,55.95 4.60,52.54 0.69,49.75
             0.69,49.75 6.95,42.57 6.95,42.57
             6.95,42.57 8.62,39.53 8.62,39.53
             8.62,39.53 10.33,37.02 10.33,37.02
             12.67,32.81 14.46,26.64 15.17,21.87
             15.17,21.87 15.65,16.90 15.65,16.90
             15.75,15.84 16.05,14.35 15.79,13.31
             15.08,10.46 10.55,9.58 10.08,6.68
             10.08,6.68 15.33,6.68 15.33,6.68
             15.33,6.68 14.22,0.61 14.22,0.61 Z" />
  <path id="2floor"
        fill="none" stroke="black" stroke-width="1"
        d="M 15.88,1.44
           C 15.88,1.44 19.19,1.44 19.19,1.44
             23.74,1.44 33.28,3.21 37.41,5.02
             37.41,5.02 36.86,2.26 36.86,2.26
             44.25,2.26 51.87,1.89 59.22,2.59
             64.30,3.07 69.41,3.92 74.40,4.97
             74.40,4.97 77.99,5.85 77.99,5.85
             77.99,5.85 77.17,2.26 77.17,2.26
             77.17,2.26 94.01,2.26 94.01,2.26
             99.25,2.27 110.39,3.87 115.54,5.15
             120.45,6.38 125.18,7.84 129.90,9.67
             129.90,9.67 134.31,11.57 134.31,11.57
             134.86,11.82 136.08,12.46 136.64,12.46
             137.21,12.46 138.45,11.83 139.01,11.57
             139.01,11.57 143.42,9.67 143.42,9.67
             148.14,7.84 152.87,6.38 157.78,5.15
             162.93,3.87 174.07,2.27 179.31,2.26
             179.31,2.26 196.15,2.26 196.15,2.26
             196.15,2.26 195.33,5.85 195.33,5.85
             195.33,5.85 198.91,4.97 198.91,4.97
             203.91,3.92 209.02,3.07 214.10,2.59
             221.45,1.89 229.06,2.26 236.46,2.26
             236.46,2.26 235.91,5.02 235.91,5.02
             240.04,3.21 249.58,1.44 254.13,1.44
             254.13,1.44 257.44,1.44 257.44,1.44
             257.44,1.44 256.34,7.23 256.34,7.23
             256.34,7.23 261.86,7.23 261.86,7.23
             261.82,7.71 261.83,8.12 261.58,8.55
             261.23,9.14 260.47,9.46 259.93,9.85
             258.79,10.67 256.67,12.34 256.05,13.58
             255.48,14.77 255.95,16.46 256.05,17.72
             256.33,22.05 256.84,25.42 258.11,29.60
             259.64,34.58 262.34,39.62 265.62,43.67
             265.62,43.67 269.31,47.82 269.31,47.82
             269.76,48.28 270.64,49.06 270.64,49.75
             270.64,50.44 269.76,51.22 269.31,51.68
             269.31,51.68 265.85,55.55 265.85,55.55
             262.61,59.54 259.41,65.23 257.92,70.18
             256.50,74.88 255.77,79.63 255.79,84.53
             255.79,87.47 256.84,87.92 259.10,89.66
             260.57,90.79 261.71,90.90 261.86,92.82
             261.86,92.82 256.34,92.82 256.34,92.82
             256.34,92.82 257.44,98.06 257.44,98.06
             251.55,98.06 247.75,97.69 241.98,96.34
             241.98,96.34 235.36,94.47 235.36,94.47
             235.36,94.47 236.46,98.89 236.46,98.89
             236.46,98.89 220.45,98.89 220.45,98.89
             220.45,98.89 217.13,98.60 217.13,98.60
             217.13,98.60 214.65,98.60 214.65,98.60
             214.65,98.60 202.50,96.83 202.50,96.83
             202.50,96.83 195.33,95.30 195.33,95.30
             195.33,95.30 196.15,98.89 196.15,98.89
             196.15,98.89 180.14,98.89 180.14,98.89
             180.14,98.89 176.83,98.60 176.83,98.60
             176.83,98.60 174.34,98.60 174.34,98.60
             168.13,97.98 161.90,96.96 155.85,95.45
             151.13,94.27 146.55,92.64 142.04,90.83
             140.70,90.28 137.53,88.49 136.25,88.72
             136.25,88.72 129.90,91.38 129.90,91.38
             125.91,92.97 121.37,94.52 117.20,95.51
             111.19,96.93 105.12,97.98 98.98,98.60
             98.98,98.60 96.49,98.60 96.49,98.60
             96.49,98.60 93.18,98.89 93.18,98.89
             93.18,98.89 77.17,98.89 77.17,98.89
             77.17,98.89 77.99,95.30 77.99,95.30
             77.99,95.30 70.82,96.83 70.82,96.83
             70.82,96.83 58.67,98.60 58.67,98.60
             58.67,98.60 56.18,98.60 56.18,98.60
             56.18,98.60 52.87,98.89 52.87,98.89
             52.87,98.89 36.86,98.89 36.86,98.89
             36.86,98.89 37.96,94.47 37.96,94.47
             37.96,94.47 31.34,96.34 31.34,96.34
             25.57,97.69 21.77,98.06 15.88,98.06
             15.88,98.06 16.98,92.82 16.98,92.82
             16.98,92.82 11.46,92.82 11.46,92.82
             11.61,90.95 12.50,90.95 13.94,89.87
             16.00,88.33 17.51,87.53 17.53,84.81
             17.57,79.79 16.85,74.99 15.40,70.18
             13.91,65.23 10.71,59.54 7.47,55.55
             7.47,55.55 4.01,51.68 4.01,51.68
             3.56,51.22 2.68,50.44 2.68,49.75
             2.68,49.06 3.56,48.28 4.01,47.82
             4.01,47.82 7.70,43.67 7.70,43.67
             10.98,39.62 13.68,34.58 15.21,29.60
             16.48,25.42 16.98,22.05 17.27,17.72
             17.37,16.46 17.83,14.77 17.27,13.58
             16.64,12.34 14.53,10.67 13.39,9.85
             12.85,9.46 12.09,9.14 11.74,8.55
             11.48,8.12 11.50,7.71 11.46,7.23
             11.46,7.23 16.98,7.23 16.98,7.23
             16.98,7.23 15.88,1.44 15.88,1.44 Z" />
  <path id="3floor"
        fill="none" stroke="black" stroke-width="1"
        d="M 18.36,2.26
           C 18.36,2.26 21.67,2.26 21.67,2.26
             26.12,2.27 35.35,4.00 39.34,5.85
             39.34,5.85 38.79,3.09 38.79,3.09
             46.10,3.09 53.61,2.72 60.88,3.42
             65.69,3.87 71.33,4.81 76.06,5.86
             76.06,5.86 79.10,6.68 79.10,6.68
             79.10,6.68 78.27,3.09 78.27,3.09
             78.27,3.09 94.83,3.09 94.83,3.09
             100.14,3.10 110.56,4.68 115.82,5.92
             115.82,5.92 129.62,10.03 129.62,10.03
             129.62,10.03 134.31,12.12 134.31,12.12
             134.86,12.38 136.08,13.01 136.64,13.01
             137.25,13.01 138.68,12.27 139.28,11.99
             139.28,11.99 143.70,10.03 143.70,10.03
             143.70,10.03 157.50,5.92 157.50,5.92
             162.75,4.68 173.18,3.10 178.48,3.09
             178.48,3.09 195.05,3.09 195.05,3.09
             195.05,3.09 194.22,6.68 194.22,6.68
             194.22,6.68 197.26,5.86 197.26,5.86
             201.99,4.81 207.63,3.87 212.44,3.42
             219.71,2.72 227.22,3.09 234.53,3.09
             234.53,3.09 233.98,5.85 233.98,5.85
             237.96,4.00 247.20,2.27 251.64,2.26
             251.64,2.26 254.96,2.26 254.96,2.26
             254.96,2.26 253.85,8.06 253.85,8.06
             253.85,8.06 259.37,8.06 259.37,8.06
             259.31,8.46 259.32,8.73 259.09,9.10
             258.54,10.01 253.74,12.35 253.34,14.96
             253.34,14.96 253.85,21.87 253.85,21.87
             254.93,29.72 256.79,33.97 260.93,40.64
             260.93,40.64 262.22,42.85 262.22,42.85
             262.22,42.85 268.21,50.02 268.21,50.02
             265.14,52.22 262.91,55.43 260.93,58.58
             259.64,60.64 258.29,62.74 257.25,64.93
             255.11,69.45 253.36,76.77 253.30,81.77
             253.28,83.48 252.97,85.38 254.17,86.73
             254.17,86.73 259.10,90.75 259.10,90.75
             259.34,91.11 259.31,91.33 259.37,91.71
             259.37,91.71 253.85,91.71 253.85,91.71
             253.85,91.71 254.96,96.96 254.96,96.96
             249.16,96.96 245.45,96.56 239.77,95.24
             239.77,95.24 233.42,93.37 233.42,93.37
             233.42,93.37 234.53,97.79 234.53,97.79
             234.53,97.79 218.79,97.79 218.79,97.79
             218.79,97.79 215.48,97.50 215.48,97.50
             215.48,97.50 212.99,97.50 212.99,97.50
             212.99,97.50 198.36,95.18 198.36,95.18
             198.36,95.18 194.22,94.20 194.22,94.20
             194.22,94.20 195.05,97.79 195.05,97.79
             195.05,97.79 179.31,97.79 179.31,97.79
             179.31,97.79 176.00,97.50 176.00,97.50
             176.00,97.50 173.52,97.50 173.52,97.50
             168.10,96.95 161.65,95.92 156.40,94.57
             156.40,94.57 145.63,91.26 145.63,91.26
             145.63,91.26 143.15,90.51 143.15,90.51
             141.66,89.91 137.59,87.65 136.25,87.89
             136.25,87.89 129.90,90.62 129.90,90.62
             129.90,90.62 127.41,91.35 127.41,91.35
             127.41,91.35 114.99,95.05 114.99,95.05
             101.36,98.19 91.92,97.79 78.27,97.79
             78.27,97.79 79.10,94.20 79.10,94.20
             79.10,94.20 74.96,95.18 74.96,95.18
             74.96,95.18 60.33,97.50 60.33,97.50
             60.33,97.50 57.84,97.50 57.84,97.50
             57.84,97.50 54.53,97.79 54.53,97.79
             54.53,97.79 38.79,97.79 38.79,97.79
             38.79,97.79 39.90,93.37 39.90,93.37
             39.90,93.37 33.55,95.24 33.55,95.24
             27.87,96.56 24.16,96.96 18.36,96.96
             18.36,96.96 19.47,91.71 19.47,91.71
             19.47,91.71 13.94,91.71 13.94,91.71
             14.01,91.33 13.98,91.11 14.22,90.75
             14.22,90.75 19.15,86.73 19.15,86.73
             20.35,85.38 20.04,83.48 20.02,81.77
             19.96,76.77 18.21,69.45 16.07,64.93
             15.02,62.74 13.68,60.64 12.39,58.58
             10.41,55.43 8.18,52.22 5.11,50.02
             5.11,50.02 11.10,42.85 11.10,42.85
             11.10,42.85 12.39,40.64 12.39,40.64
             16.53,33.97 18.39,29.72 19.47,21.87
             19.47,21.87 19.98,14.96 19.98,14.96
             19.58,12.35 14.78,10.01 14.23,9.10
             14.00,8.73 14.01,8.46 13.94,8.06
             13.94,8.06 19.47,8.06 19.47,8.06
             19.47,8.06 18.36,2.26 18.36,2.26 Z" />
  <path id="4floor"
        fill="none" stroke="black" stroke-width="1"
        d="M 18.36,2.26
           C 18.36,2.26 21.67,2.26 21.67,2.26
             26.12,2.27 35.35,4.00 39.34,5.85
             39.34,5.85 38.79,3.09 38.79,3.09
             46.10,3.09 53.61,2.72 60.88,3.42
             65.69,3.87 71.33,4.81 76.06,5.86
             76.06,5.86 79.10,6.68 79.10,6.68
             79.10,6.68 78.27,3.09 78.27,3.09
             78.27,3.09 94.83,3.09 94.83,3.09
             100.14,3.10 110.56,4.68 115.82,5.92
             115.82,5.92 129.62,10.03 129.62,10.03
             129.62,10.03 134.31,12.12 134.31,12.12
             134.86,12.38 136.08,13.01 136.64,13.01
             137.25,13.01 138.68,12.27 139.28,11.99
             139.28,11.99 143.70,10.03 143.70,10.03
             143.70,10.03 157.50,5.92 157.50,5.92
             162.75,4.68 173.18,3.10 178.48,3.09
             178.48,3.09 195.05,3.09 195.05,3.09
             195.05,3.09 194.22,6.68 194.22,6.68
             194.22,6.68 197.26,5.86 197.26,5.86
             201.99,4.81 207.63,3.87 212.44,3.42
             219.71,2.72 227.22,3.09 234.53,3.09
             234.53,3.09 233.98,5.85 233.98,5.85
             237.96,4.00 247.20,2.27 251.64,2.26
             251.64,2.26 254.96,2.26 254.96,2.26
             254.96,2.26 253.85,8.06 253.85,8.06
             253.85,8.06 259.37,8.06 259.37,8.06
             259.31,8.46 259.32,8.73 259.09,9.10
             258.54,10.01 253.74,12.35 253.34,14.96
             253.34,14.96 253.85,21.87 253.85,21.87
             254.93,29.72 256.79,33.97 260.93,40.64
             260.93,40.64 262.22,42.85 262.22,42.85
             262.22,42.85 268.21,50.02 268.21,50.02
             265.14,52.22 262.91,55.43 260.93,58.58
             259.64,60.64 258.29,62.74 257.25,64.93
             255.11,69.45 253.36,76.77 253.30,81.77
             253.28,83.48 252.97,85.38 254.17,86.73
             254.17,86.73 259.10,90.75 259.10,90.75
             259.34,91.11 259.31,91.33 259.37,91.71
             259.37,91.71 253.85,91.71 253.85,91.71
             253.85,91.71 254.96,96.96 254.96,96.96
             249.16,96.96 245.45,96.56 239.77,95.24
             239.77,95.24 233.42,93.37 233.42,93.37
             233.42,93.37 234.53,97.79 234.53,97.79
             234.53,97.79 218.79,97.79 218.79,97.79
             218.79,97.79 215.48,97.50 215.48,97.50
             215.48,97.50 212.99,97.50 212.99,97.50
             212.99,97.50 198.36,95.18 198.36,95.18
             198.36,95.18 194.22,94.20 194.22,94.20
             194.22,94.20 195.05,97.79 195.05,97.79
             195.05,97.79 179.31,97.79 179.31,97.79
             179.31,97.79 176.00,97.50 176.00,97.50
             176.00,97.50 173.52,97.50 173.52,97.50
             168.10,96.95 161.65,95.92 156.40,94.57
             156.40,94.57 145.63,91.26 145.63,91.26
             145.63,91.26 143.15,90.51 143.15,90.51
             141.66,89.91 137.59,87.65 136.25,87.89
             136.25,87.89 129.90,90.62 129.90,90.62
             129.90,90.62 127.41,91.35 127.41,91.35
             127.41,91.35 114.99,95.05 114.99,95.05
             101.36,98.19 91.92,97.79 78.27,97.79
             78.27,97.79 79.10,94.20 79.10,94.20
             79.10,94.20 74.96,95.18 74.96,95.18
             74.96,95.18 60.33,97.50 60.33,97.50
             60.33,97.50 57.84,97.50 57.84,97.50
             57.84,97.50 54.53,97.79 54.53,97.79
             54.53,97.79 38.79,97.79 38.79,97.79
             38.79,97.79 39.90,93.37 39.90,93.37
             39.90,93.37 33.55,95.24 33.55,95.24
             27.87,96.56 24.16,96.96 18.36,96.96
             18.36,96.96 19.47,91.71 19.47,91.71
             19.47,91.71 13.94,91.71 13.94,91.71
             14.01,91.33 13.98,91.11 14.22,90.75
             14.22,90.75 19.15,86.73 19.15,86.73
             20.35,85.38 20.04,83.48 20.02,81.77
             19.96,76.77 18.21,69.45 16.07,64.93
             15.02,62.74 13.68,60.64 12.39,58.58
             10.41,55.43 8.18,52.22 5.11,50.02
             5.11,50.02 11.10,42.85 11.10,42.85
             11.10,42.85 12.39,40.64 12.39,40.64
             16.53,33.97 18.39,29.72 19.47,21.87
             19.47,21.87 19.98,14.96 19.98,14.96
             19.58,12.35 14.78,10.01 14.23,9.10
             14.00,8.73 14.01,8.46 13.94,8.06
             13.94,8.06 19.47,8.06 19.47,8.06
             19.47,8.06 18.36,2.26 18.36,2.26 Z" />
  <path id="background"
        fill="none" stroke="black" stroke-width="1"
        d="M 20.57,3.09
           C 20.57,3.09 23.88,3.09 23.88,3.09
             28.36,3.10 36.97,4.81 41.00,6.68
             41.00,6.68 40.45,3.92 40.45,3.92
             47.66,3.92 55.08,3.56 62.26,4.24
             66.78,4.67 73.02,5.70 77.44,6.75
             77.44,6.75 80.20,7.51 80.20,7.51
             80.20,7.51 79.37,3.92 79.37,3.92
             79.37,3.92 95.39,3.92 95.39,3.92
             100.83,3.93 110.71,5.47 116.09,6.75
             116.09,6.75 129.34,10.75 129.34,10.75
             129.34,10.75 134.31,12.72 134.31,12.72
             134.95,12.96 135.87,13.44 136.52,13.44
             137.18,13.44 138.09,12.96 138.73,12.72
             138.73,12.72 143.70,10.75 143.70,10.75
             143.70,10.75 156.95,6.75 156.95,6.75
             162.33,5.47 172.21,3.93 177.66,3.92
             177.66,3.92 193.67,3.92 193.67,3.92
             193.67,3.92 192.84,7.51 192.84,7.51
             192.84,7.51 195.60,6.75 195.60,6.75
             200.02,5.70 206.27,4.67 210.79,4.24
             217.96,3.56 225.38,3.92 232.59,3.92
             232.59,3.92 232.04,6.68 232.04,6.68
             236.08,4.81 244.68,3.10 249.16,3.09
             249.16,3.09 252.47,3.09 252.47,3.09
             252.47,3.09 251.37,8.89 251.37,8.89
             251.37,8.89 256.61,8.89 256.61,8.89
             256.11,11.95 251.66,12.19 250.90,15.24
             250.66,16.23 250.95,17.56 251.04,18.55
             251.04,18.55 251.53,23.52 251.53,23.52
             252.31,28.36 254.28,33.85 256.63,38.15
             256.63,38.15 258.34,40.91 258.34,40.91
             258.34,40.91 259.46,42.85 259.46,42.85
             259.46,42.85 265.45,49.75 265.45,49.75
             262.53,51.84 260.19,55.00 258.34,58.03
             254.16,64.87 250.91,72.80 250.82,80.94
             250.80,82.63 250.48,84.56 251.69,85.90
             253.14,87.53 256.28,88.30 256.61,90.61
             256.61,90.61 251.37,90.61 251.37,90.61
             251.37,90.61 252.47,95.85 252.47,95.85
             247.61,95.85 244.58,95.69 239.77,94.63
             239.77,94.63 231.49,92.26 231.49,92.26
             231.49,92.26 232.59,96.68 232.59,96.68
             232.59,96.68 217.13,96.68 217.13,96.68
             217.13,96.68 213.82,96.39 213.82,96.39
             213.82,96.39 211.34,96.39 211.34,96.39
             211.34,96.39 196.98,94.07 196.98,94.07
             196.98,94.07 192.84,93.09 192.84,93.09
             192.84,93.09 193.67,96.68 193.67,96.68
             180.01,96.68 171.44,97.10 157.78,93.95
             157.78,93.95 145.08,90.08 145.08,90.08
             145.08,90.08 143.15,89.52 143.15,89.52
             141.29,88.83 138.39,87.07 136.52,87.07
             134.65,87.07 131.75,88.83 129.90,89.52
             129.90,89.52 127.96,90.08 127.96,90.08
             127.96,90.08 115.26,93.95 115.26,93.95
             101.60,97.10 93.03,96.68 79.37,96.68
             79.37,96.68 80.20,93.09 80.20,93.09
             80.20,93.09 76.06,94.07 76.06,94.07
             76.06,94.07 61.71,96.39 61.71,96.39
             61.71,96.39 59.22,96.39 59.22,96.39
             59.22,96.39 55.91,96.68 55.91,96.68
             55.91,96.68 40.45,96.68 40.45,96.68
             40.45,96.68 41.55,92.26 41.55,92.26
             41.55,92.26 33.27,94.63 33.27,94.63
             28.46,95.69 25.44,95.85 20.57,95.85
             20.57,95.85 21.67,90.61 21.67,90.61
             21.67,90.61 16.43,90.61 16.43,90.61
             16.76,88.30 19.90,87.53 21.36,85.90
             22.56,84.56 22.25,82.63 22.23,80.94
             22.13,72.80 18.88,64.87 14.70,58.03
             12.85,55.00 10.51,51.84 7.60,49.75
             7.60,49.75 13.58,42.85 13.58,42.85
             13.58,42.85 14.70,40.91 14.70,40.91
             14.70,40.91 16.42,38.15 16.42,38.15
             18.76,33.85 20.73,28.36 21.51,23.52
             21.51,23.52 22.00,18.55 22.00,18.55
             22.09,17.56 22.38,16.23 22.14,15.24
             21.38,12.19 16.93,11.95 16.43,8.89
             16.43,8.89 21.67,8.89 21.67,8.89
             21.67,8.89 20.57,3.09 20.57,3.09 Z" />
  <path id="center"
        fill="none" stroke="black" stroke-width="1"
        d="M 57.84,18.00
           C 62.13,18.00 67.79,18.51 71.64,20.48
             71.64,20.48 71.37,18.55 71.37,18.55
             82.01,18.55 87.88,18.28 98.42,21.04
             98.42,21.04 97.60,18.55 97.60,18.55
             97.60,18.55 107.81,18.55 107.81,18.55
             107.81,18.55 111.12,18.84 111.12,18.84
             111.12,18.84 113.61,18.84 113.61,18.84
             113.61,18.84 119.40,19.84 119.40,19.84
             119.40,19.84 121.34,20.14 121.34,20.14
             121.34,20.14 131.55,23.12 131.55,23.12
             131.55,23.12 136.52,24.92 136.52,24.92
             136.52,24.92 141.49,23.12 141.49,23.12
             141.49,23.12 151.71,20.14 151.71,20.14
             151.71,20.14 153.64,19.84 153.64,19.84
             153.64,19.84 159.44,18.84 159.44,18.84
             159.44,18.84 161.92,18.84 161.92,18.84
             161.92,18.84 165.23,18.55 165.23,18.55
             165.23,18.55 175.45,18.55 175.45,18.55
             175.45,18.55 174.62,21.04 174.62,21.04
             185.17,18.28 191.03,18.55 201.67,18.55
             201.67,18.55 201.40,20.48 201.40,20.48
             205.25,18.51 210.91,18.00 215.20,18.00
             215.20,18.00 214.37,21.87 214.37,21.87
             214.37,21.87 217.96,21.87 217.96,21.87
             217.55,24.28 214.54,24.02 214.16,26.56
             214.05,27.34 214.32,28.47 214.36,29.32
             214.60,34.62 216.96,40.59 219.97,44.95
             219.97,44.95 224.04,49.75 224.04,49.75
             218.19,53.94 214.26,64.24 214.10,71.28
             214.08,72.29 214.03,73.34 214.69,74.17
             215.83,75.61 217.29,75.18 217.96,77.36
             217.96,77.36 214.37,77.36 214.37,77.36
             214.37,77.36 215.20,80.94 215.20,80.94
             209.98,80.94 206.02,80.35 201.12,78.46
             201.12,78.46 201.67,81.50 201.67,81.50
             190.94,81.50 185.28,81.79 174.62,79.01
             174.62,79.01 175.45,81.50 175.45,81.50
             165.40,81.50 159.81,81.73 149.77,79.43
             149.77,79.43 140.94,76.60 140.94,76.60
             139.76,76.15 137.73,75.05 136.52,75.05
             135.31,75.05 133.28,76.15 132.10,76.60
             132.10,76.60 123.27,79.43 123.27,79.43
             113.24,81.73 107.64,81.50 97.60,81.50
             97.60,81.50 98.42,79.01 98.42,79.01
             87.76,81.79 82.10,81.50 71.37,81.50
             71.37,81.50 71.92,78.46 71.92,78.46
             67.02,80.35 63.06,80.94 57.84,80.94
             57.84,80.94 58.67,77.36 58.67,77.36
             58.67,77.36 55.08,77.36 55.08,77.36
             55.75,75.18 57.22,75.61 58.35,74.17
             59.01,73.34 58.96,72.29 58.94,71.28
             58.78,64.24 54.86,53.94 49.01,49.75
             49.01,49.75 53.08,44.95 53.08,44.95
             56.08,40.59 58.44,34.62 58.68,29.32
             58.72,28.47 58.99,27.34 58.88,26.56
             58.50,24.02 55.49,24.28 55.08,21.87
             55.08,21.87 58.67,21.87 58.67,21.87
             58.67,21.87 57.84,18.00 57.84,18.00 Z" />
</svg>
